<svg width="512" height="512" fill="none" xmlns="http://www.w3.org/2000/svg"><path fill-rule="evenodd" clip-rule="evenodd" d="M91.59 0C41.006 0 0 42.135 0 94.11v323.78C0 469.865 41.006 512 91.59 512h328.82c50.584 0 91.59-42.135 91.59-94.111V94.111C512 42.135 470.994 0 420.41 0H91.59Z" fill="#84CC16"/><path fill-rule="evenodd" clip-rule="evenodd" d="M91.59 0C41.006 0 0 42.135 0 94.11v323.78C0 469.865 41.006 512 91.59 512h328.82c50.584 0 91.59-42.135 91.59-94.111V94.111C512 42.135 470.994 0 420.41 0H91.59Z" fill="#84CC16"/><path fill-rule="evenodd" clip-rule="evenodd" d="M53 67.245C53 59.378 59.378 53 67.245 53h132.711c7.868 0 14.245 6.378 14.245 14.245v138.751c0 7.867-6.377 14.245-14.245 14.245H67.245c-7.867 0-14.245-6.378-14.245-14.245V67.245ZM81.49 81.49v110.26h104.22V81.49H81.49ZM253.758 53c7.867 0 14.245 6.378 14.245 14.245V256.45c0 7.867-6.378 14.245-14.245 14.245H67.245c-7.867 0-14.245-6.378-14.245-14.245 0-7.867 6.378-14.245 14.245-14.245h172.268V67.245c0-7.867 6.378-14.245 14.245-14.245Zm44.041 14.245c0-7.867 6.377-14.245 14.245-14.245h132.711C452.622 53 459 59.378 459 67.245v138.751c0 7.867-6.378 14.245-14.245 14.245H312.044c-7.868 0-14.245-6.378-14.245-14.245V67.245Zm28.49 14.245v110.26H430.51V81.49H326.289Zm-14.245 160.715c7.867 0 14.245 6.378 14.245 14.245v71.178c0 7.867-6.378 14.245-14.245 14.245h-44.041v102.882c0 7.867-6.378 14.245-14.245 14.245-7.867 0-14.245-6.378-14.245-14.245V327.628c0-7.867 6.378-14.245 14.245-14.245h44.041V256.45c0-7.867 6.377-14.245 14.245-14.245Zm40.453 14.245c0-7.867 6.378-14.245 14.245-14.245h78.013c7.867 0 14.245 6.378 14.245 14.245 0 7.867-6.378 14.245-14.245 14.245h-63.768v42.688h63.768c7.867 0 14.245 6.378 14.245 14.245 0 7.867-6.378 14.245-14.245 14.245h-78.013c-7.867 0-14.245-6.378-14.245-14.245V256.45ZM53 306.004c0-7.867 6.378-14.245 14.245-14.245h132.711c7.868 0 14.245 6.378 14.245 14.245v138.751c0 7.867-6.377 14.245-14.245 14.245H67.245C59.378 459 53 452.622 53 444.755V306.004Zm28.49 14.245V430.51h104.22V320.249H81.49Zm206.445 59.636c0-7.868 6.378-14.245 14.245-14.245h119.261c7.867 0 14.245 6.377 14.245 14.245v64.87c0 7.867-6.378 14.245-14.245 14.245-7.867 0-14.245-6.378-14.245-14.245V394.13h-41.453v50.625c0 7.867-6.377 14.245-14.245 14.245-7.867 0-14.245-6.378-14.245-14.245V394.13H302.18c-7.867 0-14.245-6.378-14.245-14.245Z" fill="#fff"/></svg>