<svg viewBox="0 0 512 512" fill="none" xmlns="http://www.w3.org/2000/svg"><style>@media (prefers-color-scheme:dark){.rectangle{fill:#f5f5f5}}</style><path fill-rule="evenodd" clip-rule="evenodd" d="M448.305 217.491c4.212 32.61.52 65.559-10.465 95.998-7.797 21.604-33.982 27.295-53.165 14.719-17.134-11.234-22.692-33.445-18.592-53.551 2.016-9.886 3.083-20.202 3.083-30.81 0-73.084-50.666-132.331-113.166-132.331s-113.167 59.247-113.167 132.331c0 73.085 50.667 132.332 113.167 132.332 1.235 0 2.465-.023 3.69-.069 19.506-.731 40.452 8.174 46.317 26.835 5.412 17.218-3.963 35.923-21.771 38.622-34.044 5.159-69.017.924-101.256-12.569-42.312-17.708-77.202-50.226-98.529-91.828-21.326-41.603-27.721-89.622-18.06-135.604 9.663-45.981 34.763-86.978 70.882-115.77 36.119-28.793 80.94-43.535 126.573-41.632 45.633 1.902 89.151 20.329 122.893 52.034 33.742 31.706 55.543 74.657 61.566 121.293Z" fill="#2F3C33" style="fill:#2f3c33"/><path d="M262.381 325.282c-21.351-24.328-4.117-62.531 28.21-62.531a37.534 37.534 0 0 1 28.209 12.785L432.84 405.47c21.352 24.327 4.117 62.53-28.209 62.53a37.533 37.533 0 0 1-28.209-12.785L262.381 325.282Z" fill="#F43F5E"/></svg>