<svg width="512" height="512" fill="none" xmlns="http://www.w3.org/2000/svg"><path fill-rule="evenodd" clip-rule="evenodd" d="M135.911 31c-36.548 0-66.177 29.628-66.177 66.177V324.85c0 36.549 29.629 66.177 66.177 66.177h237.583c36.548 0 66.176-29.628 66.176-66.177V97.176C439.67 60.629 410.042 31 373.494 31H135.911Z" fill="#84CC16"/><path fill-rule="evenodd" clip-rule="evenodd" d="M135.911 31c-36.548 0-66.177 29.628-66.177 66.177V324.85c0 36.549 29.629 66.177 66.177 66.177h237.583c36.548 0 66.176-29.628 66.176-66.177V97.176C439.67 60.629 410.042 31 373.494 31H135.911Z" fill="#84CC16"/><path fill-rule="evenodd" clip-rule="evenodd" d="M113.244 79.482c0-5.482 4.444-9.926 9.926-9.926h92.479c5.482 0 9.927 4.444 9.927 9.926v96.687c0 5.483-4.445 9.927-9.927 9.927H123.17c-5.482 0-9.926-4.444-9.926-9.927V79.482Zm19.853 9.927v76.834h72.626V89.409h-72.626ZM253.14 69.556c5.483 0 9.927 4.444 9.927 9.926v131.846c0 5.482-4.444 9.927-9.927 9.927H123.17c-5.482 0-9.926-4.445-9.926-9.927 0-5.482 4.444-9.926 9.926-9.926h120.044V79.482c0-5.482 4.444-9.926 9.926-9.926Zm30.69 9.926c0-5.482 4.444-9.926 9.926-9.926h92.479c5.482 0 9.927 4.444 9.927 9.926v96.687c0 5.483-4.445 9.927-9.927 9.927h-92.479c-5.482 0-9.926-4.444-9.926-9.927V79.482Zm19.853 9.927v76.834h72.626V89.409h-72.626Zm-9.927 111.993c5.483 0 9.927 4.444 9.927 9.926v49.6c0 5.482-4.444 9.926-9.927 9.926h-30.689v71.693c0 5.482-4.444 9.926-9.927 9.926-5.482 0-9.926-4.444-9.926-9.926v-81.619c0-5.483 4.444-9.927 9.926-9.927h30.69v-39.673c0-5.482 4.444-9.926 9.926-9.926Zm28.19 9.926c0-5.482 4.444-9.926 9.927-9.926h54.362c5.482 0 9.927 4.444 9.927 9.926s-4.445 9.927-9.927 9.927h-44.436v29.746h44.436c5.482 0 9.927 4.444 9.927 9.927 0 5.482-4.445 9.926-9.927 9.926h-54.362c-5.483 0-9.927-4.444-9.927-9.926v-49.6ZM113.244 245.86c0-5.483 4.444-9.927 9.926-9.927h92.479c5.482 0 9.927 4.444 9.927 9.927v96.687c0 5.482-4.445 9.926-9.927 9.926H123.17c-5.482 0-9.926-4.444-9.926-9.926V245.86Zm19.853 9.926v76.834h72.626v-76.834h-72.626Zm143.859 41.556c0-5.482 4.445-9.926 9.927-9.926h83.106c5.482 0 9.926 4.444 9.926 9.926v45.205c0 5.482-4.444 9.926-9.926 9.926s-9.927-4.444-9.927-9.926v-35.278h-28.886v35.278c0 5.482-4.444 9.926-9.926 9.926s-9.926-4.444-9.926-9.926v-35.278h-24.441c-5.482 0-9.927-4.444-9.927-9.927Z" fill="#fff"/><path d="M256 426.857c-69.378 0-169.172-8.409-208.333-11.971C38.705 414.071 31 421.288 31 430.49c0 8.07 6.016 14.8 13.88 15.47a4244.494 4244.494 0 0 0 83.513 6.27c10.139.657 19.472 5.919 25.378 14.374 6.31 9.034 16.497 14.396 27.353 14.396h149.752c10.856 0 21.043-5.362 27.353-14.396 5.906-8.455 15.239-13.717 25.378-14.374a4244.508 4244.508 0 0 0 83.513-6.27c7.864-.67 13.88-7.4 13.88-15.47 0-9.202-7.705-16.419-16.667-15.604-39.161 3.562-138.955 11.971-208.333 11.971Z" fill="#84CC16"/></svg>