<svg width="1097" height="176" viewBox="0 0 1097 176" fill="none" xmlns="http://www.w3.org/2000/svg">
<path fill-rule="evenodd" clip-rule="evenodd" d="M51.7064 20C40.6607 20 31.7064 28.9543 31.7064 40V108.808C31.7064 119.854 40.6607 128.808 51.7064 128.808H123.509C134.555 128.808 143.509 119.854 143.509 108.808V40C143.509 28.9543 134.555 20 123.509 20H51.7064Z" fill="#F43F5E"/>
<path fill-rule="evenodd" clip-rule="evenodd" d="M51.7064 20C40.6607 20 31.7064 28.9543 31.7064 40V108.808C31.7064 119.854 40.6607 128.808 51.7064 128.808H123.509C134.555 128.808 143.509 119.854 143.509 108.808V40C143.509 28.9543 134.555 20 123.509 20H51.7064Z" fill="#F43F5E"/>
<path fill-rule="evenodd" clip-rule="evenodd" d="M44.856 34.6523C44.856 32.9955 46.1991 31.6523 47.856 31.6523H75.8051C77.462 31.6523 78.8051 32.9955 78.8051 34.6523V63.8734C78.8051 65.5302 77.462 66.8734 75.8051 66.8734H47.856C46.1991 66.8734 44.856 65.5302 44.856 63.8734V34.6523ZM50.856 37.6523V60.8734H72.8051V37.6523H50.856ZM87.1358 31.6523C88.7927 31.6523 90.1358 32.9955 90.1358 34.6523V74.4992C90.1358 76.156 88.7927 77.4992 87.1358 77.4992H47.856C46.1991 77.4992 44.856 76.156 44.856 74.4992C44.856 72.8423 46.1991 71.4992 47.856 71.4992H84.1358V34.6523C84.1358 32.9955 85.4789 31.6523 87.1358 31.6523ZM96.4108 34.6523C96.4108 32.9955 97.754 31.6523 99.4108 31.6523H127.36C129.017 31.6523 130.36 32.9955 130.36 34.6523V63.8734C130.36 65.5302 129.017 66.8734 127.36 66.8734H99.4108C97.754 66.8734 96.4108 65.5302 96.4108 63.8734V34.6523ZM102.411 37.6523V60.8734H124.36V37.6523H102.411ZM99.4108 71.4992C101.068 71.4992 102.411 72.8423 102.411 74.4992V89.4892C102.411 91.1461 101.068 92.4892 99.4108 92.4892H90.1358V114.156C90.1358 115.813 88.7927 117.156 87.1358 117.156C85.4789 117.156 84.1358 115.813 84.1358 114.156V89.4892C84.1358 87.8324 85.4789 86.4892 87.1358 86.4892H96.4108V74.4992C96.4108 72.8423 97.754 71.4992 99.4108 71.4992ZM107.93 74.4992C107.93 72.8423 109.274 71.4992 110.93 71.4992H127.36C129.017 71.4992 130.36 72.8423 130.36 74.4992C130.36 76.156 129.017 77.4992 127.36 77.4992H113.93V86.4892H127.36C129.017 86.4892 130.36 87.8324 130.36 89.4892C130.36 91.1461 129.017 92.4892 127.36 92.4892H110.93C109.274 92.4892 107.93 91.1461 107.93 89.4892V74.4992ZM44.856 84.9353C44.856 83.2785 46.1991 81.9353 47.856 81.9353H75.8051C77.462 81.9353 78.8051 83.2785 78.8051 84.9353V114.156C78.8051 115.813 77.462 117.156 75.8051 117.156H47.856C46.1991 117.156 44.856 115.813 44.856 114.156V84.9353ZM50.856 87.9353V111.156H72.8051V87.9353H50.856ZM94.3335 100.495C94.3335 98.8377 95.6767 97.4946 97.3335 97.4946H122.45C124.107 97.4946 125.45 98.8377 125.45 100.495V114.156C125.45 115.813 124.107 117.156 122.45 117.156C120.793 117.156 119.45 115.813 119.45 114.156V103.495H110.72V114.156C110.72 115.813 109.377 117.156 107.72 117.156C106.063 117.156 104.72 115.813 104.72 114.156V103.495H97.3335C95.6767 103.495 94.3335 102.151 94.3335 100.495Z" fill="white"/>
<path d="M88 139.637C67.0326 139.637 36.8723 137.096 25.0372 136.019C22.3285 135.773 20 137.954 20 140.735C20 143.174 21.8182 145.208 24.1948 145.41C29.3425 145.849 38.7182 146.611 49.4342 147.305C52.4987 147.504 55.3193 149.094 57.1041 151.649C59.0111 154.38 62.09 156 65.3709 156H110.629C113.91 156 116.989 154.38 118.896 151.649C120.681 149.094 123.501 147.504 126.566 147.305C137.282 146.611 146.658 145.849 151.805 145.41C154.182 145.208 156 143.174 156 140.735C156 137.954 153.672 135.773 150.963 136.019C139.128 137.096 108.967 139.637 88 139.637Z" fill="#F43F5E"/>
<path d="M255.94 62.5284C254.926 61.3456 253.574 60.2051 251.885 59.1069C250.195 58.0086 248.294 57.0371 246.182 56.1923C244.07 55.263 241.747 54.5449 239.212 54.038C236.762 53.4466 234.186 53.1509 231.482 53.1509C224.555 53.1509 219.444 54.4604 216.149 57.0793C212.854 59.6982 211.207 63.2887 211.207 67.8507C211.207 71.061 212.051 73.5955 213.741 75.4541C215.431 77.3127 218.007 78.8333 221.471 80.0161C225.019 81.1988 229.497 82.4238 234.904 83.691C241.155 85.0427 246.562 86.6901 251.124 88.6332C255.686 90.5763 259.192 93.1952 261.642 96.49C264.092 99.7003 265.317 104.009 265.317 109.416C265.317 113.724 264.472 117.484 262.783 120.694C261.178 123.82 258.897 126.439 255.94 128.551C252.983 130.578 249.519 132.099 245.548 133.113C241.578 134.042 237.269 134.507 232.623 134.507C228.061 134.507 223.583 134.042 219.19 133.113C214.882 132.099 210.784 130.663 206.898 128.804C203.012 126.946 199.379 124.622 196 121.834L201.449 112.204C202.801 113.64 204.533 115.076 206.645 116.512C208.841 117.864 211.291 119.131 213.995 120.314C216.782 121.497 219.782 122.468 222.992 123.228C226.202 123.904 229.497 124.242 232.876 124.242C239.297 124.242 244.281 123.102 247.829 120.821C251.378 118.455 253.152 115.034 253.152 110.556C253.152 107.177 252.138 104.473 250.11 102.446C248.167 100.418 245.253 98.7287 241.367 97.377C237.48 96.0253 232.749 94.6736 227.174 93.3219C221.091 91.8012 215.98 90.1539 211.84 88.3797C207.701 86.5211 204.575 84.1134 202.463 81.1566C200.435 78.1997 199.422 74.3558 199.422 69.6248C199.422 63.8801 200.815 59.0224 203.603 55.0518C206.391 51.0811 210.235 48.082 215.135 46.0545C220.035 44.0269 225.569 43.0131 231.736 43.0131C235.791 43.0131 239.55 43.4355 243.014 44.2804C246.562 45.1252 249.857 46.3079 252.898 47.8286C255.94 49.3493 258.728 51.1656 261.262 53.2777L255.94 62.5284Z" fill="#2F3C33"/>
<path d="M335.949 133.62H324.797V96.6167C324.797 89.8582 323.572 84.7893 321.122 81.41C318.757 78.0307 315.335 76.3411 310.858 76.3411C307.986 76.3411 305.071 77.1015 302.114 78.6221C299.242 80.1428 296.707 82.2126 294.511 84.8315C292.314 87.366 290.709 90.3228 289.695 93.7021V133.62H278.544V41.1123H289.695V81.6635C292.314 76.9325 295.862 73.2153 300.34 70.5119C304.902 67.724 309.802 66.3301 315.04 66.3301C319.01 66.3301 322.305 67.0481 324.924 68.4843C327.628 69.836 329.782 71.7791 331.387 74.3136C332.992 76.848 334.133 79.8049 334.809 83.1841C335.569 86.4789 335.949 90.1116 335.949 94.0822V133.62Z" fill="#2F3C33"/>
<path d="M509.799 67.4706H520.571L492.438 133.62H482.681L469.882 102.446L457.209 133.62H447.452L419.319 67.4706H429.964L452.774 122.595L463.419 95.4762L452.267 67.5973H462.025L469.882 88.6332L477.738 67.5973H487.496L476.471 95.4762L487.116 122.595L509.799 67.4706Z" fill="#2F3C33"/>
<path d="M630.729 133.62H619.577V96.6167C619.577 89.6892 618.437 84.5781 616.156 81.2833C613.959 77.9885 610.665 76.3411 606.272 76.3411C601.794 76.3411 597.739 77.9885 594.106 81.2833C590.473 84.4936 587.897 88.6754 586.376 93.8288V133.62H575.225V96.6167C575.225 89.6047 574.126 84.4936 571.93 81.2833C569.733 77.9885 566.438 76.3411 562.045 76.3411C557.652 76.3411 553.597 77.9463 549.88 81.1566C546.247 84.2824 543.671 88.4642 542.15 93.7021V133.62H530.998V67.4706H541.136V81.6635C543.84 76.7635 547.346 73.0041 551.654 70.3852C555.963 67.6818 560.82 66.3301 566.227 66.3301C571.719 66.3301 576.112 67.8507 579.406 70.8921C582.701 73.8489 584.729 77.6928 585.489 82.4238C588.446 77.1859 592.036 73.2153 596.26 70.5119C600.485 67.724 605.3 66.3301 610.707 66.3301C614.508 66.3301 617.677 67.0481 620.211 68.4843C622.83 69.836 624.9 71.7791 626.42 74.3136C627.941 76.7635 629.039 79.6781 629.715 83.0574C630.391 86.4367 630.729 90.1116 630.729 94.0822V133.62Z" fill="#2F3C33"/>
<path d="M677.341 134.887C672.357 134.887 667.795 134 663.655 132.226C659.6 130.367 656.052 127.875 653.01 124.749C650.053 121.539 647.73 117.864 646.041 113.724C644.435 109.585 643.633 105.192 643.633 100.545C643.633 94.2935 645.069 88.5909 647.941 83.4376C650.814 78.2842 654.784 74.1446 659.853 71.0188C665.007 67.893 670.878 66.3301 677.468 66.3301C684.142 66.3301 689.929 67.9352 694.829 71.1455C699.813 74.2713 703.657 78.4109 706.36 83.5643C709.148 88.6332 710.542 94.1245 710.542 100.038C710.542 100.883 710.5 101.728 710.416 102.573C710.416 103.333 710.373 103.924 710.289 104.347H655.418C655.756 108.655 656.939 112.499 658.966 115.878C661.078 119.173 663.782 121.792 667.076 123.735C670.371 125.594 673.919 126.523 677.721 126.523C681.776 126.523 685.578 125.509 689.126 123.482C692.759 121.454 695.251 118.793 696.603 115.498L706.234 118.159C704.798 121.37 702.643 124.242 699.771 126.777C696.983 129.311 693.646 131.296 689.76 132.733C685.958 134.169 681.819 134.887 677.341 134.887ZM655.038 96.6167H700.151C699.813 92.3081 698.588 88.5065 696.476 85.2117C694.364 81.9169 691.661 79.3402 688.366 77.4816C685.071 75.623 681.438 74.6937 677.468 74.6937C673.582 74.6937 669.991 75.623 666.696 77.4816C663.402 79.3402 660.698 81.9169 658.586 85.2117C656.559 88.5065 655.376 92.3081 655.038 96.6167Z" fill="#2F3C33"/>
<path d="M848.286 133.62H837.134V96.6167C837.134 89.6892 835.993 84.5781 833.712 81.2833C831.516 77.9885 828.221 76.3411 823.828 76.3411C819.351 76.3411 815.295 77.9885 811.663 81.2833C808.03 84.4936 805.453 88.6754 803.933 93.8288V133.62H792.781V96.6167C792.781 89.6047 791.683 84.4936 789.486 81.2833C787.29 77.9885 783.995 76.3411 779.602 76.3411C775.209 76.3411 771.154 77.9463 767.437 81.1566C763.804 84.2824 761.227 88.4642 759.707 93.7021V133.62H748.555V67.4706H758.693V81.6635C761.396 76.7635 764.902 73.0041 769.211 70.3852C773.519 67.6818 778.377 66.3301 783.784 66.3301C789.275 66.3301 793.668 67.8507 796.963 70.8921C800.258 73.8489 802.285 77.6928 803.046 82.4238C806.002 77.1859 809.593 73.2153 813.817 70.5119C818.041 67.724 822.857 66.3301 828.263 66.3301C832.065 66.3301 835.233 67.0481 837.768 68.4843C840.386 69.836 842.456 71.7791 843.977 74.3136C845.498 76.7635 846.596 79.6781 847.272 83.0574C847.948 86.4367 848.286 90.1116 848.286 94.0822V133.62Z" fill="#2F3C33"/>
<path d="M894.898 134.887C889.913 134.887 885.351 134 881.211 132.226C877.156 130.367 873.608 127.875 870.567 124.749C867.61 121.539 865.287 117.864 863.597 113.724C861.992 109.585 861.189 105.192 861.189 100.545C861.189 94.2935 862.626 88.5909 865.498 83.4376C868.37 78.2842 872.341 74.1446 877.41 71.0188C882.563 67.893 888.435 66.3301 895.024 66.3301C901.698 66.3301 907.485 67.9352 912.385 71.1455C917.37 74.2713 921.214 78.4109 923.917 83.5643C926.705 88.6332 928.099 94.1245 928.099 100.038C928.099 100.883 928.057 101.728 927.972 102.573C927.972 103.333 927.93 103.924 927.845 104.347H872.975C873.312 108.655 874.495 112.499 876.523 115.878C878.635 119.173 881.338 121.792 884.633 123.735C887.928 125.594 891.476 126.523 895.278 126.523C899.333 126.523 903.134 125.509 906.683 123.482C910.315 121.454 912.808 118.793 914.159 115.498L923.79 118.159C922.354 121.37 920.2 124.242 917.327 126.777C914.539 129.311 911.202 131.296 907.316 132.733C903.515 134.169 899.375 134.887 894.898 134.887ZM872.594 96.6167H917.708C917.37 92.3081 916.145 88.5065 914.033 85.2117C911.921 81.9169 909.217 79.3402 905.922 77.4816C902.628 75.623 898.995 74.6937 895.024 74.6937C891.138 74.6937 887.548 75.623 884.253 77.4816C880.958 79.3402 878.255 81.9169 876.143 85.2117C874.115 88.5065 872.932 92.3081 872.594 96.6167Z" fill="#2F3C33"/>
<path d="M997.9 133.62H986.748V96.6167C986.748 89.6047 985.65 84.4936 983.454 81.2833C981.342 77.9885 978.089 76.3411 973.696 76.3411C970.655 76.3411 967.613 77.1015 964.572 78.6221C961.615 80.1428 958.954 82.2126 956.589 84.8315C954.308 87.366 952.66 90.3228 951.646 93.7021V133.62H940.495V67.4706H950.633V81.6635C952.407 78.5376 954.688 75.8342 957.476 73.5532C960.264 71.2722 963.432 69.4981 966.98 68.2309C970.528 66.9637 974.245 66.3301 978.131 66.3301C981.933 66.3301 985.101 67.0481 987.636 68.4843C990.254 69.836 992.282 71.7791 993.718 74.3136C995.239 76.7635 996.295 79.6781 996.886 83.0574C997.562 86.4367 997.9 90.1116 997.9 94.0822V133.62Z" fill="#2F3C33"/>
<path d="M1014.61 107.135V67.4706H1025.76V104.98C1025.76 111.739 1026.94 116.808 1029.31 120.187C1031.67 123.566 1035.18 125.256 1039.83 125.256C1042.87 125.256 1045.78 124.622 1048.57 123.355C1051.44 122.003 1054.02 120.103 1056.3 117.653C1058.58 115.203 1060.35 112.288 1061.62 108.909V67.4706H1072.77V120.947C1072.77 122.299 1073.03 123.313 1073.53 123.989C1074.12 124.58 1075.05 124.918 1076.32 125.003V133.62C1075.05 133.789 1074.04 133.873 1073.28 133.873C1072.6 133.958 1071.93 134 1071.25 134C1069.14 134 1067.32 133.366 1065.8 132.099C1064.28 130.747 1063.48 129.1 1063.4 127.157L1063.14 119.427C1060.27 124.327 1056.38 128.128 1051.48 130.832C1046.67 133.535 1041.39 134.887 1035.64 134.887C1028.72 134.887 1023.48 132.564 1019.93 127.917C1016.38 123.186 1014.61 116.259 1014.61 107.135Z" fill="#2F3C33"/>
<path fill-rule="evenodd" clip-rule="evenodd" d="M411.18 71.0381V129.861C411.18 132.07 409.389 133.861 407.18 133.861H351.023C348.814 133.861 347.023 132.07 347.023 129.861V71.0381C347.023 68.8289 348.814 67.0381 351.023 67.0381H407.18C409.389 67.0381 411.18 68.8289 411.18 71.0381ZM403.791 78.7344V122.164C403.791 124.373 402 126.164 399.791 126.164H358.413C356.204 126.164 354.413 124.373 354.413 122.164V78.7344C354.413 76.5252 356.204 74.7344 358.413 74.7344H399.791C402 74.7344 403.791 76.5252 403.791 78.7344ZM394.577 112.568V88.331C394.577 86.1219 392.786 84.331 390.577 84.331H367.626C365.417 84.331 363.626 86.1219 363.626 88.331V112.568C363.626 114.777 365.417 116.568 367.626 116.568H390.577C392.786 116.568 394.577 114.777 394.577 112.568Z" fill="#F43F5E"/>
<path d="M735.822 120.302V129.733C735.822 131.942 734.031 133.733 731.822 133.733H723.087C720.878 133.733 719.087 131.942 719.087 129.733V120.302C719.087 118.093 720.878 116.302 723.087 116.302H731.822C734.031 116.302 735.822 118.093 735.822 120.302Z" fill="#F43F5E"/>
</svg>
