<svg width="585" height="176" viewBox="0 0 585 176" fill="none" xmlns="http://www.w3.org/2000/svg">
<path fill-rule="evenodd" clip-rule="evenodd" d="M51.7064 20C40.6607 20 31.7064 28.9543 31.7064 40V108.808C31.7064 119.854 40.6607 128.808 51.7064 128.808H123.509C134.555 128.808 143.509 119.854 143.509 108.808V40C143.509 28.9543 134.555 20 123.509 20H51.7064Z" fill="#84CC16"/>
<path fill-rule="evenodd" clip-rule="evenodd" d="M51.7064 20C40.6607 20 31.7064 28.9543 31.7064 40V108.808C31.7064 119.854 40.6607 128.808 51.7064 128.808H123.509C134.555 128.808 143.509 119.854 143.509 108.808V40C143.509 28.9543 134.555 20 123.509 20H51.7064Z" fill="#84CC16"/>
<path fill-rule="evenodd" clip-rule="evenodd" d="M44.856 34.6523C44.856 32.9955 46.1991 31.6523 47.856 31.6523H75.8051C77.462 31.6523 78.8051 32.9955 78.8051 34.6523V63.8734C78.8051 65.5302 77.462 66.8734 75.8051 66.8734H47.856C46.1991 66.8734 44.856 65.5302 44.856 63.8734V34.6523ZM50.856 37.6523V60.8734H72.8051V37.6523H50.856ZM87.1358 31.6523C88.7927 31.6523 90.1358 32.9955 90.1358 34.6523V74.4992C90.1358 76.156 88.7927 77.4992 87.1358 77.4992H47.856C46.1991 77.4992 44.856 76.156 44.856 74.4992C44.856 72.8423 46.1991 71.4992 47.856 71.4992H84.1358V34.6523C84.1358 32.9955 85.4789 31.6523 87.1358 31.6523ZM96.4108 34.6523C96.4108 32.9955 97.754 31.6523 99.4108 31.6523H127.36C129.017 31.6523 130.36 32.9955 130.36 34.6523V63.8734C130.36 65.5302 129.017 66.8734 127.36 66.8734H99.4108C97.754 66.8734 96.4108 65.5302 96.4108 63.8734V34.6523ZM102.411 37.6523V60.8734H124.36V37.6523H102.411ZM99.4108 71.4992C101.068 71.4992 102.411 72.8423 102.411 74.4992V89.4892C102.411 91.1461 101.068 92.4892 99.4108 92.4892H90.1358V114.156C90.1358 115.813 88.7927 117.156 87.1358 117.156C85.4789 117.156 84.1358 115.813 84.1358 114.156V89.4892C84.1358 87.8324 85.4789 86.4892 87.1358 86.4892H96.4108V74.4992C96.4108 72.8423 97.754 71.4992 99.4108 71.4992ZM107.93 74.4992C107.93 72.8423 109.274 71.4992 110.93 71.4992H127.36C129.017 71.4992 130.36 72.8423 130.36 74.4992C130.36 76.156 129.017 77.4992 127.36 77.4992H113.93V86.4892H127.36C129.017 86.4892 130.36 87.8324 130.36 89.4892C130.36 91.1461 129.017 92.4892 127.36 92.4892H110.93C109.274 92.4892 107.93 91.1461 107.93 89.4892V74.4992ZM44.856 84.9353C44.856 83.2785 46.1991 81.9353 47.856 81.9353H75.8051C77.462 81.9353 78.8051 83.2785 78.8051 84.9353V114.156C78.8051 115.813 77.462 117.156 75.8051 117.156H47.856C46.1991 117.156 44.856 115.813 44.856 114.156V84.9353ZM50.856 87.9353V111.156H72.8051V87.9353H50.856ZM94.3335 100.495C94.3335 98.8377 95.6767 97.4946 97.3335 97.4946H122.45C124.107 97.4946 125.45 98.8377 125.45 100.495V114.156C125.45 115.813 124.107 117.156 122.45 117.156C120.793 117.156 119.45 115.813 119.45 114.156V103.495H110.72V114.156C110.72 115.813 109.377 117.156 107.72 117.156C106.063 117.156 104.72 115.813 104.72 114.156V103.495H97.3335C95.6767 103.495 94.3335 102.151 94.3335 100.495Z" fill="white"/>
<path d="M88 139.637C67.0326 139.637 36.8723 137.096 25.0372 136.019C22.3285 135.773 20 137.954 20 140.735C20 143.174 21.8182 145.208 24.1948 145.41C29.3425 145.849 38.7182 146.611 49.4342 147.305C52.4987 147.504 55.3193 149.094 57.1041 151.649C59.0111 154.38 62.09 156 65.3709 156H110.629C113.91 156 116.989 154.38 118.896 151.649C120.681 149.094 123.501 147.504 126.566 147.305C137.282 146.611 146.658 145.849 151.805 145.41C154.182 145.208 156 143.174 156 140.735C156 137.954 153.672 135.773 150.963 136.019C139.128 137.096 108.967 139.637 88 139.637Z" fill="#84CC16"/>
<path d="M228.332 43.6189C227.582 42.7441 226.583 41.9006 225.333 41.0883C224.083 40.276 222.677 39.5575 221.115 38.9326C219.553 38.2453 217.835 37.7142 215.96 37.3393C214.148 36.9019 212.243 36.6832 210.243 36.6832C205.12 36.6832 201.339 37.6517 198.902 39.5887C196.466 41.5257 195.247 44.1813 195.247 47.5554C195.247 49.9298 195.872 51.8043 197.122 53.1789C198.371 54.5536 200.277 55.6783 202.839 56.5531C205.463 57.4278 208.775 58.3338 212.774 59.2711C217.398 60.2708 221.397 61.4893 224.771 62.9264C228.145 64.3635 230.738 66.3005 232.55 68.7374C234.362 71.1118 235.268 74.2984 235.268 78.2974C235.268 81.4841 234.643 84.2646 233.393 86.639C232.206 88.9509 230.519 90.8879 228.332 92.45C226.145 93.9496 223.583 95.0743 220.647 95.8241C217.71 96.5114 214.523 96.8551 211.087 96.8551C207.713 96.8551 204.401 96.5114 201.152 95.8241C197.965 95.0743 194.935 94.0121 192.06 92.6374C189.186 91.2628 186.499 89.5445 184 87.4825L188.03 80.3594C189.03 81.4216 190.311 82.4838 191.873 83.546C193.498 84.5458 195.31 85.483 197.309 86.3578C199.371 87.2326 201.589 87.9511 203.964 88.5135C206.338 89.0134 208.775 89.2633 211.274 89.2633C216.023 89.2633 219.709 88.4198 222.334 86.7327C224.958 84.9832 226.27 82.4526 226.27 79.1409C226.27 76.6416 225.52 74.6421 224.021 73.1425C222.584 71.6429 220.428 70.3932 217.554 69.3935C214.68 68.3937 211.18 67.394 207.056 66.3942C202.558 65.2695 198.777 64.0511 195.716 62.7389C192.654 61.3643 190.342 59.5835 188.78 57.3966C187.28 55.2097 186.531 52.3666 186.531 48.8676C186.531 44.6187 187.562 41.0258 189.624 38.0891C191.685 35.1524 194.529 32.9342 198.153 31.4346C201.777 29.935 205.869 29.1852 210.431 29.1852C213.43 29.1852 216.21 29.4976 218.772 30.1224C221.397 30.7473 223.833 31.622 226.083 32.7468C228.332 33.8715 230.394 35.2149 232.269 36.777L228.332 43.6189Z" fill="#2F3C33"/>
<path d="M287.508 96.199H279.26V68.8311C279.26 63.8324 278.354 60.0834 276.542 57.584C274.793 55.0847 272.262 53.835 268.951 53.835C266.826 53.835 264.67 54.3974 262.483 55.5221C260.359 56.6468 258.485 58.1776 256.86 60.1146C255.235 61.9891 254.048 64.1761 253.298 66.6754V96.199H245.051V27.7793H253.298V57.7715C255.235 54.2724 257.86 51.5231 261.171 49.5236C264.545 47.4617 268.169 46.4307 272.043 46.4307C274.98 46.4307 277.417 46.9618 279.354 48.024C281.354 49.0238 282.947 50.4609 284.134 52.3354C285.321 54.2099 286.165 56.3968 286.665 58.8962C287.227 61.3331 287.508 64.0199 287.508 66.9566V96.199Z" fill="#2F3C33"/>
<path d="M416.09 47.2742H424.057L403.25 96.199H396.033L386.567 73.1425L377.194 96.199H369.977L349.17 47.2742H357.043L373.914 88.0449L381.787 67.9876L373.539 47.3679H380.756L386.567 62.9264L392.378 47.3679H399.594L391.44 67.9876L399.313 88.0449L416.09 47.2742Z" fill="#2F3C33"/>
<path d="M505.531 96.199H497.284V68.8311C497.284 63.7074 496.44 59.9272 494.753 57.4903C493.128 55.0534 490.692 53.835 487.442 53.835C484.131 53.835 481.132 55.0534 478.445 57.4903C475.758 59.8647 473.852 62.9576 472.728 66.7691V96.199H464.48V68.8311C464.48 63.645 463.667 59.8647 462.043 57.4903C460.418 55.0534 457.981 53.835 454.732 53.835C451.483 53.835 448.484 55.0222 445.735 57.3966C443.048 59.7085 441.142 62.8014 440.017 66.6754V96.199H431.769V47.2742H439.267V57.7715C441.267 54.1474 443.86 51.3669 447.047 49.4299C450.233 47.4304 453.826 46.4307 457.825 46.4307C461.887 46.4307 465.136 47.5554 467.573 49.8048C470.009 51.9917 471.509 54.8348 472.071 58.3338C474.258 54.4598 476.914 51.5231 480.038 49.5236C483.162 47.4617 486.724 46.4307 490.723 46.4307C493.535 46.4307 495.878 46.9618 497.752 48.024C499.689 49.0238 501.22 50.4609 502.345 52.3354C503.47 54.1474 504.282 56.3031 504.782 58.8025C505.282 61.3018 505.531 64.0199 505.531 66.9566V96.199Z" fill="#2F3C33"/>
<path d="M540.006 97.1362C536.32 97.1362 532.946 96.4802 529.884 95.168C526.885 93.7934 524.261 91.9501 522.011 89.6382C519.824 87.2638 518.106 84.5458 516.856 81.4841C515.669 78.4224 515.075 75.1732 515.075 71.7366C515.075 67.1128 516.138 62.8952 518.262 59.0836C520.387 55.2721 523.323 52.2104 527.072 49.8985C530.884 47.5866 535.226 46.4307 540.1 46.4307C545.036 46.4307 549.316 47.6179 552.941 49.9923C556.627 52.3042 559.47 55.3659 561.47 59.1774C563.532 62.9264 564.562 66.9878 564.562 71.3617C564.562 71.9865 564.531 72.6114 564.469 73.2362C564.469 73.7986 564.438 74.236 564.375 74.5484H523.792C524.042 77.735 524.917 80.5781 526.416 83.0774C527.978 85.5143 529.978 87.4513 532.415 88.8884C534.851 90.263 537.476 90.9503 540.288 90.9503C543.287 90.9503 546.099 90.2005 548.723 88.7009C551.41 87.2013 553.253 85.2331 554.253 82.7962L561.376 84.7645C560.314 87.1388 558.72 89.2633 556.596 91.1378C554.534 93.0123 552.066 94.4807 549.192 95.5429C546.38 96.6051 543.318 97.1362 540.006 97.1362ZM523.511 68.8311H556.877C556.627 65.6444 555.721 62.8327 554.159 60.3958C552.597 57.9589 550.597 56.0532 548.161 54.6785C545.724 53.3039 543.037 52.6166 540.1 52.6166C537.226 52.6166 534.57 53.3039 532.133 54.6785C529.697 56.0532 527.697 57.9589 526.135 60.3958C524.635 62.8327 523.761 65.6444 523.511 68.8311Z" fill="#2F3C33"/>
<path fill-rule="evenodd" clip-rule="evenodd" d="M343.15 49.9135V93.4195C343.15 95.0534 341.826 96.3779 340.192 96.3779H298.657C297.024 96.3779 295.699 95.0534 295.699 93.4195V49.9135C295.699 48.2796 297.024 46.9551 298.657 46.9551H340.192C341.826 46.9551 343.15 48.2796 343.15 49.9135ZM337.685 55.6059V87.7272C337.685 89.3611 336.36 90.6856 334.726 90.6856H304.122C302.488 90.6856 301.164 89.3611 301.164 87.7272V55.6059C301.164 53.972 302.488 52.6474 304.122 52.6474H334.726C336.36 52.6474 337.685 53.972 337.685 55.6059ZM330.87 80.6299V62.7037C330.87 61.0698 329.546 59.7453 327.912 59.7453H310.937C309.303 59.7453 307.978 61.0698 307.978 62.7037V80.6299C307.978 82.2638 309.303 83.5884 310.937 83.5884H327.912C329.546 83.5884 330.87 82.2638 330.87 80.6299Z" fill="#84CC16"/>
<path d="M232.128 147.609H226.746V129.752C226.746 126.409 226.196 123.943 225.095 122.353C224.035 120.763 222.445 119.968 220.325 119.968C218.164 119.968 216.208 120.763 214.454 122.353C212.701 123.902 211.458 125.92 210.724 128.407V147.609H205.343V129.752C205.343 126.369 204.813 123.902 203.753 122.353C202.693 120.763 201.103 119.968 198.983 119.968C196.863 119.968 194.906 120.742 193.112 122.292C191.359 123.8 190.115 125.818 189.382 128.346V147.609H184V115.687H188.892V122.536C190.197 120.172 191.889 118.357 193.968 117.094C196.047 115.789 198.391 115.137 201.001 115.137C203.651 115.137 205.771 115.871 207.361 117.338C208.951 118.765 209.929 120.62 210.296 122.903C211.723 120.376 213.456 118.459 215.494 117.155C217.533 115.809 219.856 115.137 222.466 115.137C224.3 115.137 225.829 115.483 227.052 116.176C228.316 116.829 229.315 117.766 230.049 118.989C230.783 120.172 231.313 121.578 231.639 123.209C231.965 124.84 232.128 126.613 232.128 128.529V147.609Z" fill="#647067"/>
<path d="M254.622 148.221C252.217 148.221 250.015 147.793 248.017 146.937C246.06 146.04 244.348 144.837 242.88 143.329C241.454 141.779 240.332 140.006 239.517 138.008C238.742 136.01 238.355 133.89 238.355 131.648C238.355 128.631 239.048 125.879 240.434 123.392C241.82 120.906 243.737 118.908 246.183 117.399C248.67 115.891 251.503 115.137 254.683 115.137C257.904 115.137 260.696 115.911 263.061 117.461C265.466 118.969 267.321 120.967 268.626 123.454C269.971 125.9 270.644 128.55 270.644 131.404C270.644 131.811 270.624 132.219 270.583 132.627C270.583 132.994 270.563 133.279 270.522 133.483H244.042C244.205 135.562 244.776 137.417 245.755 139.048C246.774 140.638 248.078 141.902 249.668 142.839C251.258 143.736 252.971 144.185 254.805 144.185C256.762 144.185 258.597 143.695 260.309 142.717C262.062 141.739 263.265 140.454 263.917 138.864L268.565 140.149C267.872 141.698 266.832 143.084 265.446 144.307C264.101 145.53 262.49 146.488 260.615 147.181C258.78 147.874 256.783 148.221 254.622 148.221ZM243.859 129.752H265.63C265.466 127.673 264.875 125.839 263.856 124.249C262.837 122.659 261.532 121.415 259.942 120.518C258.352 119.621 256.599 119.173 254.683 119.173C252.808 119.173 251.075 119.621 249.485 120.518C247.895 121.415 246.59 122.659 245.571 124.249C244.593 125.839 244.022 127.673 243.859 129.752Z" fill="#647067"/>
<path d="M304.329 147.609H298.947V129.752C298.947 126.369 298.417 123.902 297.357 122.353C296.338 120.763 294.768 119.968 292.648 119.968C291.181 119.968 289.713 120.335 288.245 121.069C286.819 121.802 285.534 122.801 284.393 124.065C283.292 125.288 282.497 126.715 282.008 128.346V147.609H276.626V115.687H281.519V122.536C282.375 121.028 283.475 119.723 284.821 118.622C286.166 117.522 287.695 116.666 289.407 116.054C291.12 115.442 292.913 115.137 294.789 115.137C296.623 115.137 298.152 115.483 299.375 116.176C300.639 116.829 301.618 117.766 302.311 118.989C303.045 120.172 303.554 121.578 303.84 123.209C304.166 124.84 304.329 126.613 304.329 128.529V147.609Z" fill="#647067"/>
<path d="M312.392 134.828V115.687H317.773V133.789C317.773 137.05 318.344 139.496 319.485 141.127C320.627 142.758 322.319 143.573 324.561 143.573C326.029 143.573 327.435 143.267 328.781 142.656C330.167 142.004 331.41 141.086 332.511 139.904C333.612 138.722 334.468 137.315 335.08 135.684V115.687H340.461V141.494C340.461 142.146 340.583 142.635 340.828 142.962C341.113 143.247 341.562 143.41 342.173 143.451V147.609C341.562 147.691 341.073 147.732 340.706 147.732C340.38 147.772 340.053 147.793 339.727 147.793C338.708 147.793 337.831 147.487 337.098 146.875C336.364 146.223 335.976 145.428 335.936 144.49L335.813 140.76C334.427 143.125 332.552 144.959 330.187 146.264C327.863 147.569 325.315 148.221 322.543 148.221C319.2 148.221 316.672 147.1 314.96 144.857C313.248 142.574 312.392 139.231 312.392 134.828Z" fill="#647067"/>
</svg>
