<svg width="167" height="40" viewBox="0 0 167 40" fill="none" xmlns="http://www.w3.org/2000/svg">
<path fill-rule="evenodd" clip-rule="evenodd" d="M35.8427 16.3673C36.2335 19.4437 35.8909 22.5521 34.8717 25.4237C34.1483 27.4619 31.7188 27.9988 29.939 26.8123C28.3491 25.7525 27.8334 23.6572 28.2139 21.7604C28.4009 20.8277 28.5 19.8545 28.5 18.8538C28.5 11.9589 23.799 6.3696 18 6.3696C12.201 6.3696 7.49999 11.9589 7.49999 18.8538C7.49999 25.7486 12.201 31.3379 18 31.3379C18.1145 31.3379 18.2287 31.3357 18.3424 31.3314C20.1522 31.2625 22.0956 32.1026 22.6398 33.863C23.142 35.4874 22.2721 37.2521 20.6198 37.5067C17.4611 37.9934 14.2162 37.5938 11.2249 36.3209C7.29912 34.6503 4.06185 31.5826 2.08309 27.6578C0.104342 23.733 -0.489018 19.2029 0.407483 14.865C1.30399 10.527 3.63287 6.65944 6.9841 3.94316C10.3353 1.22687 14.494 -0.163951 18.728 0.0155583C22.962 0.195068 26.9997 1.9334 30.1304 4.9245C33.2611 7.9156 35.2839 11.9677 35.8427 16.3673Z" fill="#2F3C33"/>
<path d="M18.5922 26.5362C16.6111 24.2411 18.2102 20.6371 21.2096 20.6371C22.2116 20.6371 23.1651 21.0765 23.8269 21.8432L34.408 34.1012C36.3891 36.3962 34.79 40.0003 31.7906 40.0003C30.7886 40.0003 29.8351 39.5609 29.1733 38.7942L18.5922 26.5362Z" fill="#F43F5E"/>
<path d="M147.38 22.3687V10.5068H152.226V21.3199C152.226 22.7665 152.491 23.8634 153.021 24.6108C153.552 25.3341 154.335 25.6957 155.372 25.6957C155.999 25.6957 156.614 25.5752 157.217 25.3341C157.843 25.0689 158.41 24.6832 158.916 24.1769C159.447 23.6706 159.893 23.0317 160.254 22.2602V10.5068H165.1V24.0322C165.1 24.5385 165.185 24.9001 165.353 25.1171C165.546 25.3341 165.848 25.4667 166.258 25.5149V29.4568C165.775 29.5291 165.365 29.5774 165.028 29.6015C164.715 29.6497 164.425 29.6738 164.16 29.6738C163.292 29.6738 162.581 29.4809 162.026 29.0952C161.496 28.6853 161.183 28.1308 161.086 27.4316L160.978 25.9127C160.134 27.1905 159.049 28.167 157.723 28.842C156.397 29.493 154.938 29.8185 153.347 29.8185C151.394 29.8185 149.911 29.1916 148.899 27.9379C147.886 26.6601 147.38 24.8037 147.38 22.3687Z" fill="#2F3C33"/>
<path d="M143.347 29.4569H138.501V18.8246C138.501 17.3057 138.236 16.1967 137.706 15.4975C137.175 14.7983 136.44 14.4488 135.5 14.4488C134.849 14.4488 134.186 14.6175 133.511 14.9551C132.86 15.2926 132.269 15.7627 131.739 16.3655C131.208 16.9441 130.822 17.6191 130.581 18.3906V29.4569H125.735V10.5069H130.111V14.0148C130.593 13.1951 131.208 12.508 131.956 11.9534C132.703 11.3748 133.559 10.9408 134.523 10.6515C135.512 10.3381 136.548 10.1814 137.633 10.1814C138.815 10.1814 139.779 10.3984 140.526 10.8324C141.298 11.2422 141.877 11.8088 142.262 12.5321C142.672 13.2312 142.949 14.0268 143.094 14.9189C143.263 15.8109 143.347 16.715 143.347 17.6312V29.4569Z" fill="#2F3C33"/>
<path d="M112.874 29.8185C111.355 29.8185 109.981 29.5653 108.751 29.059C107.522 28.5286 106.473 27.8174 105.605 26.9254C104.737 26.0092 104.062 24.9725 103.58 23.8153C103.122 22.6339 102.893 21.3923 102.893 20.0904C102.893 18.2822 103.29 16.6307 104.086 15.1359C104.906 13.6411 106.063 12.4477 107.558 11.5556C109.077 10.6395 110.861 10.1814 112.91 10.1814C114.983 10.1814 116.755 10.6395 118.226 11.5556C119.697 12.4477 120.818 13.6411 121.589 15.1359C122.385 16.6065 122.783 18.1978 122.783 19.9095C122.783 20.1988 122.771 20.5002 122.747 20.8136C122.723 21.1029 122.698 21.344 122.674 21.5369H108.028C108.124 22.5013 108.402 23.3451 108.86 24.0684C109.342 24.7917 109.945 25.3462 110.668 25.732C111.415 26.0936 112.211 26.2744 113.055 26.2744C114.019 26.2744 114.923 26.0454 115.767 25.5873C116.635 25.1051 117.226 24.4783 117.539 23.7068L121.698 24.864C121.24 25.8284 120.577 26.6843 119.709 27.4317C118.865 28.1791 117.865 28.7697 116.707 29.2037C115.55 29.6136 114.272 29.8185 112.874 29.8185ZM107.919 18.463H117.828C117.732 17.4986 117.455 16.6668 116.997 15.9676C116.563 15.2444 115.984 14.6899 115.261 14.3041C114.537 13.8942 113.73 13.6893 112.838 13.6893C111.97 13.6893 111.174 13.8942 110.451 14.3041C109.752 14.6899 109.173 15.2444 108.715 15.9676C108.281 16.6668 108.016 17.4986 107.919 18.463Z" fill="#2F3C33"/>
<path d="M99.8672 29.4569H95.0213V18.8246C95.0213 17.3298 94.7561 16.2329 94.2257 15.5337C93.7194 14.8104 93.0081 14.4488 92.092 14.4488C91.1517 14.4488 90.2476 14.8225 89.3797 15.5698C88.5358 16.2931 87.9331 17.2454 87.5715 18.4268V29.4569H82.7255V18.8246C82.7255 17.3057 82.4603 16.1967 81.9299 15.4975C81.4236 14.7983 80.7123 14.4488 79.7962 14.4488C78.8559 14.4488 77.9518 14.8104 77.0839 15.5337C76.24 16.257 75.6373 17.2093 75.2757 18.3906V29.4569H70.4297V10.5069H74.8055V14.0148C75.5288 12.7852 76.4932 11.8449 77.6987 11.194C78.9041 10.5189 80.2904 10.1814 81.8575 10.1814C83.4246 10.1814 84.6422 10.5671 85.5101 11.3386C86.4022 12.1101 86.9687 13.0625 87.2098 14.1956C87.9813 12.8937 88.9577 11.9052 90.1391 11.2302C91.3446 10.531 92.6947 10.1814 94.1895 10.1814C95.3708 10.1814 96.3232 10.3984 97.0464 10.8324C97.7938 11.2422 98.3725 11.8088 98.7823 12.5321C99.1922 13.2312 99.4694 14.0268 99.6141 14.9189C99.7829 15.8109 99.8672 16.715 99.8672 17.6312V29.4569Z" fill="#2F3C33"/>
<path d="M55.2061 21.7178V17.3419H66.1638V21.7178H55.2061Z" fill="#2F3C33"/>
<path d="M53.2832 14.702C51.8125 14.702 50.4986 14.9913 49.3413 15.5699C48.1841 16.1244 47.3523 16.9321 46.846 17.9929V29.4569H42V10.5069H46.4482V14.5573C47.1232 13.2554 47.9791 12.2308 49.0158 11.4834C50.0525 10.736 51.1495 10.3261 52.3068 10.2538C52.572 10.2538 52.7769 10.2538 52.9215 10.2538C53.0662 10.2538 53.1868 10.2658 53.2832 10.2899V14.702Z" fill="#2F3C33"/>
</svg>
