<?xml version="1.0" encoding="utf-8"?><svg viewBox="0 0 32 32" xmlns="http://www.w3.org/2000/svg" xmlns:xlink="http://www.w3.org/1999/xlink"><style>:root>svg{display:none}:root>svg:target{display:block}</style><svg fill="currentColor" viewBox="0 0 32 32" id="arrow-right" xmlns="http://www.w3.org/2000/svg"><path fill-rule="evenodd" d="M3.683 16.334a.62.62 0 0 1 .62-.617h23.47a.62.62 0 0 1 .62.617.62.62 0 0 1-.62.618H4.303a.62.62 0 0 1-.62-.618Z" clip-rule="evenodd"/><path fill-rule="evenodd" d="M28.561 15.403a1.23 1.23 0 0 1 0 1.863l-6.46 5.598a.515.515 0 0 1-.634.03.509.509 0 0 1-.043-.796l5.464-4.841a1.231 1.231 0 0 0 0-1.845l-5.464-4.841a.509.509 0 0 1 .043-.797.515.515 0 0 1 .635.031l6.459 5.598Z" clip-rule="evenodd"/><path fill-rule="evenodd" d="m25.438 15.037-4.469-3.959a1.186 1.186 0 0 1 .102-1.857 1.2 1.2 0 0 1 1.48.072l6.459 5.598c.88.763.88 2.124 0 2.887l-6.46 5.598a1.2 1.2 0 0 1-1.48.072 1.186 1.186 0 0 1-.1-1.858l4.468-3.959H4.304A1.3 1.3 0 0 1 3 16.334a1.3 1.3 0 0 1 1.304-1.297h21.134Z" clip-rule="evenodd"/></svg><svg fill="currentColor" viewBox="0 0 32 32" id="banner" xmlns="http://www.w3.org/2000/svg"><path d="M28.404 6.158c.595.635.93 1.496.93 2.394v14.896c0 .898-.335 1.759-.93 2.394a3.078 3.078 0 0 1-2.245.991H10a.667.667 0 0 1-.667-.666v-.021c0-.368.299-.667.667-.667h16.159a1.85 1.85 0 0 0 1.346-.596c.357-.38.558-.897.559-1.435V8.552a2.106 2.106 0 0 0-.56-1.435 1.85 1.85 0 0 0-1.345-.596H5.84a1.85 1.85 0 0 0-1.345.596 2.11 2.11 0 0 0-.56 1.435v14.896c.002.538.203 1.054.56 1.435.356.38.84.595 1.345.596h1.826c.368 0 .666.299.666.667v.02a.667.667 0 0 1-.666.667H5.84c-.842 0-1.65-.356-2.245-.991a3.503 3.503 0 0 1-.93-2.394V8.552c0-.898.335-1.759.93-2.394a3.078 3.078 0 0 1 2.245-.991h20.32c.842 0 1.65.356 2.245.991Z"/><path fill-rule="evenodd" d="M25.524 11.26c0-.538-.2-1.055-.558-1.436a1.847 1.847 0 0 0-1.347-.595H8.381c-.505 0-.99.214-1.347.595a2.102 2.102 0 0 0-.558 1.436v9.48c0 .538.2 1.055.558 1.436.357.38.842.595 1.347.595h15.238c.505 0 .99-.214 1.347-.595s.558-.898.558-1.436v-9.48Zm-1.27 9.2v-9.2a.7.7 0 0 0-.186-.478.616.616 0 0 0-.449-.199H8.381a.615.615 0 0 0-.449.199.7.7 0 0 0-.186.478v9.2l1.827-1.95a1.85 1.85 0 0 1 1.293-.594c.486-.015.96.17 1.322.515l3.734-3.983a1.89 1.89 0 0 1 .619-.44 1.802 1.802 0 0 1 1.458 0c.231.102.441.251.618.44l5.637 6.011ZM12.19 11.936c-.505 0-.99.215-1.347.596a2.102 2.102 0 0 0-.557 1.437c0 .539.2 1.056.558 1.437.358.38.842.595 1.348.594.25 0 .498-.052.729-.155.231-.102.441-.252.618-.44a2.05 2.05 0 0 0 .413-.66 2.149 2.149 0 0 0 0-1.555 2.044 2.044 0 0 0-.414-.659 1.904 1.904 0 0 0-.618-.44 1.803 1.803 0 0 0-.73-.155Z" clip-rule="evenodd"/></svg><svg fill="currentColor" viewBox="0 0 32 32" id="borders" xmlns="http://www.w3.org/2000/svg"><path d="M21.125 18.946a.5.5 0 0 1 .074.41l-1.571 6.154a.5.5 0 0 1-.485.376H12.63a.5.5 0 0 1-.485-.378l-.452-1.796a.5.5 0 1 0-.97.244l.642 2.552a.5.5 0 0 0 .485.378h8.07a.5.5 0 0 0 .485-.376l1.876-7.35a.5.5 0 0 0-.074-.41l-5.897-8.48a.5.5 0 0 0-.82 0l-5.899 8.48a.5.5 0 0 0-.075.408l.716 2.848a.5.5 0 0 0 .97-.244l-.605-2.407a.5.5 0 0 1 .074-.407l4.817-6.929a.5.5 0 0 1 .821 0l4.815 6.926Z"/><path fill-rule="evenodd" d="M15.295 21.765a.648.648 0 1 0 1.295 0 .648.648 0 0 0-1.295 0Zm.648-1.648a1.648 1.648 0 1 0 0 3.296 1.648 1.648 0 0 0 0-3.296Z" clip-rule="evenodd"/><path d="M15.943 22.413a.648.648 0 1 1 0-1.295.648.648 0 0 1 0 1.295Z"/><path fill-rule="evenodd" d="M20.819 28.905h-9.667a1.5 1.5 0 0 1 0-3h9.667a1.5 1.5 0 0 1 0 3Zm0-1a.5.5 0 1 0 0-1h-9.667a.5.5 0 0 0 0 1h9.667Zm-4.917-6.621a.417.417 0 0 1-.416-.416v-9a.417.417 0 0 1 .833 0v9c0 .23-.187.416-.417.416Zm1.314-17.199h-2.6a.793.793 0 0 0-.792.793v2.6c0 .438.355.793.793.793h2.6a.793.793 0 0 0 .792-.793v-2.6a.793.793 0 0 0-.793-.793Zm-2.6-.99c-.984 0-1.783.798-1.783 1.783v2.6c0 .985.799 1.783 1.784 1.783h2.6c.985 0 1.783-.798 1.783-1.783v-2.6c0-.985-.799-1.783-1.784-1.783h-2.6ZM5.5 6.314a.648.648 0 1 0 1.295 0 .648.648 0 0 0-1.295 0Zm.648-1.647a1.648 1.648 0 1 0 0 3.295 1.648 1.648 0 0 0 0-3.295ZM25 6.314a.648.648 0 1 0 1.295 0 .648.648 0 0 0-1.295 0Zm.648-1.647a1.648 1.648 0 1 0 0 3.295 1.648 1.648 0 0 0 0-3.295Z" clip-rule="evenodd"/><path fill-rule="evenodd" d="M12.833 6.833H7.167v-1h5.666v1Zm11.5 0H19v-1h5.333v1Z" clip-rule="evenodd"/><path d="M18.167 6.328c0 .241.172.45.408.502a11.874 11.874 0 0 1 8.946 8.762.517.517 0 0 0 .594.392.485.485 0 0 0 .388-.587 12.875 12.875 0 0 0-9.755-9.553.486.486 0 0 0-.581.484ZM28.82 17.413a.486.486 0 0 0-.581-.434.518.518 0 0 0-.414.55c.01.125.016.251.022.378.011.276.234.5.51.5a.486.486 0 0 0 .49-.5c-.006-.166-.015-.33-.028-.494ZM13.08 5.883c.303-.07.587.17.587.483a.519.519 0 0 1-.401.5c-5.074 1.198-8.89 5.656-9.113 11.04a.517.517 0 0 1-.51.5.486.486 0 0 1-.49-.5c.224-5.873 4.39-10.737 9.926-12.023Z"/></svg><svg fill="currentColor" viewBox="0 0 24 24" id="check" xmlns="http://www.w3.org/2000/svg"><path fill-rule="evenodd" d="M21.207 6.121a1 1 0 0 1 0 1.415l-7.505 7.504c-.766.767-1.384 1.385-1.926 1.845-.557.473-1.099.836-1.73 1.042a5.001 5.001 0 0 1-3.091 0c-.632-.206-1.174-.57-1.731-1.043-.542-.46-1.16-1.077-1.926-1.844l-.505-.504a1 1 0 1 1 1.414-1.415l.475.475c.803.803 1.364 1.363 1.836 1.764.463.393.774.573 1.055.665a3 3 0 0 0 1.854 0c.281-.092.592-.272 1.055-.665.472-.4 1.033-.96 1.836-1.764l7.475-7.475a1 1 0 0 1 1.414 0Z" clip-rule="evenodd"/></svg><svg fill="currentColor" viewBox="0 0 32 32" id="colors" xmlns="http://www.w3.org/2000/svg"><path d="M11.167 22A1.833 1.833 0 1 1 7.5 22a1.833 1.833 0 0 1 3.667 0Zm5.166 3.042a1.833 1.833 0 1 1-3.666 0 1.833 1.833 0 0 1 3.666 0Zm6.334-1.166a1.833 1.833 0 1 1-3.667 0 1.833 1.833 0 0 1 3.667 0Zm-8.834-16a1.833 1.833 0 1 1-3.666 0 1.833 1.833 0 0 1 3.666 0Zm13 11a1.833 1.833 0 1 1-3.666 0 1.833 1.833 0 0 1 3.666 0Zm-5.806-5.408a.5.5 0 1 0-.884.468l.037.07c.123.244.403.377.66.286a.467.467 0 0 0 .28-.639 5.531 5.531 0 0 0-.093-.185Zm.628 2.219c-.02-.314-.342-.502-.639-.397a.552.552 0 0 0-.354.552 4.497 4.497 0 0 1-2.245 4.097 4.5 4.5 0 0 1-6.062-1.505.5.5 0 1 0-.847.531 5.5 5.5 0 0 0 10.147-3.278Z"/><path d="M13.407 2.785C8.743 3.845 5.26 6.889 3.352 11.537c-.939 2.287-.908 6.133.06 8.996 1.5 4.436 5.77 8.01 10.525 8.798.97.166 3.56.166 4.543.015.954-.151 2.68-.621 2.878-.772a2.42 2.42 0 0 1 .514-.228c.53-.166 2.12-1.12 2.878-1.726 2.074-1.666 3.377-3.634 4.164-6.239.53-1.756.56-4.058.076-5.466-.773-2.242-2.18-3.605-4.437-4.286-.666-.197-.742-.09.969-1.378 2.18-1.636 3.786-3.453 3.786-4.27 0-.152-.152-.44-.318-.621-.303-.333-.424-.349-1.56-.288-1.136.076-2.998.56-3.331.893a.631.631 0 0 1-.364.137c-.394 0-4.452 1.999-6.178 3.043-.258.152-.515.243-.56.182-.182-.182-.107-1.332.12-1.711.788-1.393 1-1.984.91-2.453-.122-.515-.455-.94-1.091-1.363-.53-.333-2.09-.348-3.529-.015Zm3.15 1.045c.47.318.424.817-.151 1.847-.454.788-.5.97-.5 2.166V9.16l-1.211.878c-.667.5-1.379 1.015-1.59 1.151-.213.136-.697.56-1.106.924-.666.636-.757.666-1.378.606-1.075-.121-1.893.348-2.71 1.59-1.424 2.135-1.909 3.316-1.47 3.589.091.06 1.06.09 2.166.09 1.696 0 2.12-.045 2.74-.317.803-.334 1.046-.576 1.379-1.303.151-.348.394-.53.939-.727 2.06-.742 2.892-1.09 4.755-2.044 2.105-1.075 2.922-1.514 3.558-1.938.5-.318 2.105-.167 3.15.318.818.378 1.832 1.257 2.272 1.953.893 1.439 1.135 4.165.545 6.012-.167.515-.303 1-.303 1.06 0 .212-1.272 2.332-1.62 2.726-.197.212-.5.59-.667.833-.757 1.09-3.528 2.786-5.588 3.422-.984.303-1.468.348-3.558.348-2.241.015-2.514-.015-3.559-.393-1.71-.606-2.256-.848-3.331-1.56-3.513-2.287-5.603-6.179-5.603-10.449 0-3.513 1.302-6.45 3.998-8.95 1.817-1.71 3.8-2.71 6.526-3.286.757-.166 2-.09 2.317.137ZM27.93 5.586c-.47.651-.863 1.03-1.878 1.863-.485.394-.984.802-1.09.893a7.45 7.45 0 0 1-.833.621 170.86 170.86 0 0 0-2.771 1.848c-.076.075-.318.212-.53.318a44.45 44.45 0 0 0-1.59.863c-.667.363-1.273.666-1.333.666-.06.015-.227-.242-.364-.56-.12-.303-.439-.863-.681-1.227l-.454-.681.363-.273c.455-.348 2.075-1.302 3.15-1.847.454-.227 1.136-.59 1.514-.803a27.25 27.25 0 0 1 1.59-.742c.5-.197 1.03-.439 1.166-.515.5-.272 2.18-.787 2.923-.893 1.075-.152 1.196-.076.818.47Zm-11.963 5.86c.257.319.469.652.469.712 0 .076.106.334.227.576.136.242.212.454.197.47-.045.03-1.136.53-1.863.847-.166.06-.575.227-.908.333-.333.122-.727.273-.863.334-.212.075-.303 0-.44-.318a3.125 3.125 0 0 0-.393-.712c-.227-.242-.227-.288.106-.606.53-.485 2.786-2.226 2.907-2.226.046 0 .303.273.56.59ZM11.06 13.96c1.106.53 1.106 2.166-.015 2.696-.379.182-.939.257-1.953.257-.788 0-1.439-.045-1.439-.09 0-.243 1.272-2.227 1.696-2.666.227-.227.56-.363 1-.409.12 0 .439.091.711.212Z"/><path d="M11.06 13.96c1.106.53 1.106 2.166-.015 2.696-.379.182-.939.257-1.953.257-.788 0-1.439-.045-1.439-.09 0-.243 1.272-2.227 1.696-2.666.227-.227.56-.363 1-.409.12 0 .439.091.711.212Z"/></svg><svg fill="currentColor" viewBox="0 0 32 32" id="email" xmlns="http://www.w3.org/2000/svg"><path d="M27.003 5H5.667a2.663 2.663 0 0 0-2.654 2.667L3 23.669c0 1.467 1.2 2.667 2.667 2.667h21.336c1.467 0 2.667-1.2 2.667-2.667V7.667C29.67 6.2 28.47 5 27.003 5Zm0 18.669H5.667V10.334l10.668 6.668 10.668-6.668v13.335Zm-10.668-9.335L5.667 7.668h21.336l-10.668 6.668Z"/></svg><svg fill="currentColor" viewBox="0 0 32 32" id="establishments" xmlns="http://www.w3.org/2000/svg"><path d="M8.208 20.325H6.27a.527.527 0 0 0-.527.528v1.937c0 .292.236.528.527.528h1.938a.527.527 0 0 0 .527-.528v-1.937a.527.527 0 0 0-.527-.528Zm-.527 1.938h-.883v-.883h.883v.883Zm4.823-1.938h-1.938a.527.527 0 0 0-.527.528v1.937c0 .292.236.528.527.528h1.938a.527.527 0 0 0 .527-.528v-1.937a.527.527 0 0 0-.527-.528Zm-.528 1.938h-.883v-.883h.883v.883Zm-3.768 2.132H6.27a.527.527 0 0 0-.527.527v1.938c0 .291.236.527.527.527h1.938a.527.527 0 0 0 .527-.527v-1.938a.527.527 0 0 0-.527-.527Zm-.527 1.938h-.883v-.883h.883v.883Zm4.823-1.938h-1.938a.527.527 0 0 0-.527.527v1.938c0 .291.236.527.527.527h1.938a.527.527 0 0 0 .527-.527v-1.938a.527.527 0 0 0-.527-.527Zm-.528 1.938h-.883v-.883h.883v.883Zm-1.46-10.205a.53.53 0 0 0-.9.373.53.53 0 0 0 .527.527.531.531 0 0 0 .373-.9Z"/><path d="M28.973 28.445h-.528V15.047a.527.527 0 0 0-.527-.527h-2.525V7.727a.527.527 0 0 0-.28-.466l-8.86-4.7a.527.527 0 0 0-.774.466v5.38h-5.336a.527.527 0 0 0-.528.527v5.47a.527.527 0 0 0 1.055 0V9.46h7.172v2.106h-1.835a.527.527 0 0 0 0 1.055h1.835v1.898h-1.835a.527.527 0 0 0 0 1.055h1.835v1.898h-1.835a.527.527 0 0 0 0 1.055h1.835v1.898h-1.835a.527.527 0 0 0 0 1.055h1.835v1.898h-1.835a.527.527 0 0 0 0 1.055h1.835v1.899h-1.835a.527.527 0 0 0 0 1.054h1.835v1.058h-2.686v-9.703a.527.527 0 0 0-.527-.527H4.082a.527.527 0 0 0-.527.527v9.703h-.528a.527.527 0 0 0 0 1.055h25.946a.527.527 0 0 0 0-1.055Zm-14.871 0H4.609V19.27h9.493v9.175Zm6.539-13.398v13.398h-1.744V8.934a.527.527 0 0 0-.528-.528h-1.835V3.904l7.805 4.14v6.476h-3.171a.527.527 0 0 0-.527.527Zm6.75 2.426h-2.848a.527.527 0 0 0 0 1.055h2.848v1.898h-2.848a.527.527 0 0 0 0 1.055h2.848v1.898h-2.848a.527.527 0 0 0 0 1.055h2.848v1.899h-1.6a.527.527 0 0 0 0 1.054h1.6v1.058h-5.696v-12.87h5.696v1.898Z"/><path d="M23.773 26.487a.53.53 0 0 0-.746 0 .531.531 0 0 0 0 .746.53.53 0 0 0 .9-.373.528.528 0 0 0-.154-.373ZM20.641 8.46a.527.527 0 0 0-.528.527v.985a.527.527 0 1 0 1.055 0v-.985a.527.527 0 0 0-.527-.527Zm0 3.108a.527.527 0 0 0-.528.527v1.086a.527.527 0 1 0 1.055 0v-1.086a.527.527 0 0 0-.527-.527ZM22.75 8.46a.527.527 0 0 0-.527.527v.985a.527.527 0 1 0 1.054 0v-.985a.527.527 0 0 0-.527-.527Zm0 3.108a.527.527 0 0 0-.527.527v1.086a.527.527 0 1 0 1.054 0v-1.086a.527.527 0 0 0-.527-.527Z"/></svg><svg fill="currentColor" viewBox="0 0 32 32" id="holder" xmlns="http://www.w3.org/2000/svg"><path fill-rule="evenodd" d="M11.123 5.045a7.08 7.08 0 0 0-5.005 12.086l.054.053a.522.522 0 0 1-.739.738l-.053-.053c-3.308-3.307-3.146-8.717.353-11.822a8.1 8.1 0 0 1 5.39-2.046c.752 0 1.503.103 2.23.31a.522.522 0 0 1-.285 1.005 7.108 7.108 0 0 0-1.945-.271Zm3.312.214a.522.522 0 0 1 .713-.194 8.103 8.103 0 0 1 1.721 1.315.522.522 0 0 1-.738.738 7.132 7.132 0 0 0-1.5-1.146.522.522 0 0 1-.196-.713Zm4.356 3.78a.522.522 0 0 1 .738 0 3.418 3.418 0 0 0 4.834 0 .522.522 0 0 1 .739.739c-.97.97-2.276 1.4-3.544 1.29l5.328 5.328a2.572 2.572 0 0 1 .732 1.475 2.496 2.496 0 0 1-.668 2.08 2.51 2.51 0 0 1-1.81.774 2.519 2.519 0 0 1-3.292 3.086 2.51 2.51 0 0 1-1.553 2.218 2.515 2.515 0 0 1-1.384.157l.001.067a2.13 2.13 0 0 1-3.641 1.508l-.48-.481a.522.522 0 1 1 .738-.739l.48.481c.213.213.491.319.77.319h.001a1.087 1.087 0 0 0 .769-.318c.213-.213.319-.491.319-.77 0-.28-.106-.558-.319-.77a.522.522 0 1 1 .739-.739 1.471 1.471 0 0 0 2.086 0 1.475 1.475 0 0 0 .001-2.085h-.001v-.001a.522.522 0 0 1 .739-.739l.001.002.57.57a1.47 1.47 0 0 0 2.085 0h.001a1.475 1.475 0 0 0 0-2.085l-.418-.418a.522.522 0 0 1 .738-.74 1.47 1.47 0 0 0 1.043.433c.388 0 .773-.151 1.064-.454.551-.574.533-1.51-.05-2.092l-6.987-6.988-.37-.369a.522.522 0 0 1 0-.739Z" clip-rule="evenodd"/><path fill-rule="evenodd" d="M5.246 17.346a2.27 2.27 0 1 1 3.21 3.21 2.27 2.27 0 0 1-3.21-3.21Zm2.471.739a1.225 1.225 0 1 0-1.733 1.733 1.225 1.225 0 0 0 1.733-1.733Z" clip-rule="evenodd"/><path fill-rule="evenodd" d="M7.717 19.818a2.27 2.27 0 1 1 1.74 3.87.522.522 0 0 1-.061-1.043c.289-.016.572-.135.793-.356m-2.472-2.471a2.264 2.264 0 0 0-.664 1.604c0 .428.12.857.362 1.231a.522.522 0 0 0 .877-.567 1.22 1.22 0 0 1 .164-1.53 1.225 1.225 0 1 1 1.733 1.733m-2.472-2.471Z" clip-rule="evenodd"/><path fill-rule="evenodd" d="M10.189 22.29a2.27 2.27 0 1 1 3.21 3.21 2.27 2.27 0 0 1-3.21-3.21Zm2.471.738a1.225 1.225 0 1 0-1.733 1.733 1.225 1.225 0 0 0 1.733-1.733Z" clip-rule="evenodd"/><path fill-rule="evenodd" d="M17.136 13.033a.522.522 0 0 1 .738 0l2.693 2.693a.522.522 0 0 1-.738.739l-2.694-2.693a.522.522 0 0 1 0-.739Zm-2.377 3.271a.522.522 0 0 1 .738 0l5.615 5.616a.522.522 0 1 1-.738.738l-5.615-5.615a.522.522 0 0 1 0-.739Zm6.362.715a.522.522 0 0 1 .739 0l2.23 2.23a.522.522 0 0 1-.739.738l-2.23-2.23a.522.522 0 0 1 0-.738Zm-9.76 1.538a.522.522 0 0 1 .74 0l6.187 6.187a.522.522 0 0 1-.739.739l-6.187-6.188a.522.522 0 0 1 0-.738Zm1.3 6.204a1.916 1.916 0 1 1 2.709 2.71 1.916 1.916 0 0 1-2.71-2.71Zm.738.739a.871.871 0 1 0 1.232 1.232A.871.871 0 0 0 13.4 25.5Z" clip-rule="evenodd"/><path d="M16.5 6.033c.126.11.25.227.37.347a.522.522 0 0 1-.74.738 7.132 7.132 0 0 0-.382-.355l-3.352 3.351a2.402 2.402 0 1 0 3.398 3.4l3.366-3.367-.37-.369a.522.522 0 0 1 0-.739l-3.735 3.736c-.53.53-1.39.53-1.92 0h-.001a1.356 1.356 0 0 1-.398-.96v-.001a1.356 1.356 0 0 1 .398-.96l3.735-3.736.009-.008a7.08 7.08 0 0 1 10.327 9.675c.222.33.36.703.413 1.086l.003-.002A8.125 8.125 0 0 0 16.5 6.033Z"/></svg><svg fill="currentColor" viewBox="0 0 32 32" id="icons" xmlns="http://www.w3.org/2000/svg"><path d="M25.152 25.474a.572.572 0 0 0 .571.574h.182a.571.571 0 0 0 0-1.143h-.182a.572.572 0 0 0-.571.569Zm-1.142.005a.571.571 0 0 0-.572-.574H6.095a.571.571 0 1 0 0 1.143h17.343c.314 0 .57-.254.571-.569Z"/><path fill-rule="evenodd" d="M13.714 8.238a2.286 2.286 0 0 1 4.572 0v.465c5.256 1.06 9.214 5.705 9.214 11.273v.334h.024a1.81 1.81 0 1 1 0 3.619H4.476a1.81 1.81 0 1 1 0-3.62H4.5v-.333c0-5.568 3.958-10.213 9.214-11.273v-.465Zm3.429 0v.19h-2.286v-.19a1.143 1.143 0 1 1 2.286 0Zm9.214 11.738v.334H5.643v-.334C5.643 14.256 10.28 9.62 16 9.62s10.357 4.637 10.357 10.357Z" clip-rule="evenodd"/><path d="M14.804 11.502a.52.52 0 0 0 .551.382.521.521 0 0 0 .486-.52l-.002-.076a.545.545 0 0 0-.583-.542.543.543 0 0 0-.47.684l.018.072Zm-1.144.14a.545.545 0 0 0-.708-.392 8.949 8.949 0 0 0-4.53 3.65.544.544 0 0 0 .214.765.605.605 0 0 0 .793-.218 7.81 7.81 0 0 1 3.843-3.097.606.606 0 0 0 .388-.708Z"/></svg><svg fill="currentColor" viewBox="0 0 32 32" id="images" xmlns="http://www.w3.org/2000/svg"><path fill-rule="evenodd" d="M24.802 20.282c0 .345.28.625.625.625h2.219a1.79 1.79 0 0 0 1.791-1.792V6.155c0-.989-.802-1.791-1.791-1.791H11.439c-.99 0-1.792.802-1.792 1.792v2.318a.625.625 0 0 0 1.25 0V6.155c0-.299.243-.541.542-.541h16.207a.54.54 0 0 1 .541.542v12.96a.54.54 0 0 1-.541.54h-2.219a.625.625 0 0 0-.625.626Z" clip-rule="evenodd"/><path fill-rule="evenodd" d="M21.287 23.93c0 .345.28.625.625.625h2.192c.989 0 1.791-.802 1.791-1.792V9.803a1.79 1.79 0 0 0-1.791-1.791H7.896c-.99 0-1.792.802-1.792 1.791v1.77a.625.625 0 1 0 1.25 0v-1.77a.54.54 0 0 1 .541-.541h16.207c.3 0 .542.242.542.541v12.96a.54.54 0 0 1-.541.542h-2.192a.625.625 0 0 0-.625.625Z" clip-rule="evenodd"/><path fill-rule="evenodd" d="M2.563 25.844c0 .99.802 1.792 1.791 1.792h16.207c.99 0 1.792-.802 1.792-1.792V22.52a.625.625 0 1 0-1.25 0v3.324c0 .3-.243.542-.542.542H4.354a.542.542 0 0 1-.541-.542v-12.96a.54.54 0 0 1 .541-.54h16.207c.3 0 .542.242.542.54v7.533a.625.625 0 1 0 1.25 0v-7.532c0-.99-.802-1.792-1.792-1.792H4.354a1.79 1.79 0 0 0-1.791 1.792v12.96Z" clip-rule="evenodd"/><path d="m5.641 27.011 3.363-4.813a1.167 1.167 0 0 1 1.913 0l2.081 2.978a1.167 1.167 0 0 1-.956 1.835h-6.4Z"/><path fill-rule="evenodd" d="M5.087 27.3a.625.625 0 0 0 .554.336h6.4c1.45 0 2.3-1.63 1.47-2.818l-2.082-2.978a1.792 1.792 0 0 0-2.937 0l-3.363 4.813a.625.625 0 0 0-.042.647Zm1.753-.914 2.677-3.83a.542.542 0 0 1 .888 0l2.08 2.978a.542.542 0 0 1-.443.852H6.84Z" clip-rule="evenodd"/><path d="M15.982 19.888a1.167 1.167 0 0 0-1.913 0l-1.916 2.742c-.28.402-.28.935 0 1.337l1.779 2.546c.218.312.575.498.956.498h3.832c.944 0 1.497-1.061.957-1.835l-3.695-5.288Z"/><path fill-rule="evenodd" d="M14.888 26.386a.542.542 0 0 1-.444-.231l-1.779-2.547a.542.542 0 0 1 0-.62l1.916-2.742a.542.542 0 0 1 .888 0l3.695 5.288a.542.542 0 0 1-.444.852h-3.832Zm-1.469.485c.335.48.884.765 1.47.765h3.831c1.45 0 2.299-1.63 1.469-2.818l-3.695-5.288a1.792 1.792 0 0 0-2.938 0l-1.916 2.742a1.792 1.792 0 0 0 0 2.053l1.78 2.546Z" clip-rule="evenodd"/><path d="M9.368 16.99a2.031 2.031 0 1 1-4.062 0 2.031 2.031 0 0 1 4.062 0Z"/><path fill-rule="evenodd" d="M4.68 16.99a2.656 2.656 0 1 0 5.313 0 2.656 2.656 0 0 0-5.312 0Zm2.657 1.407a1.406 1.406 0 1 1 0-2.812 1.406 1.406 0 0 1 0 2.812Z" clip-rule="evenodd"/></svg><svg fill="currentColor" viewBox="0 0 32 32" id="increase" xmlns="http://www.w3.org/2000/svg"><path d="M3.573 28.453a.566.566 0 0 1-.57-.624.584.584 0 0 1 .586-.515h.825a.326.326 0 0 0 .325-.326v-4.031c0-.613.5-1.113 1.112-1.113h2.903c.614 0 1.113.5 1.113 1.113v4.031c0 .18.146.326.325.326h.353a.327.327 0 0 0 .325-.326v-1.801a.57.57 0 0 1 .57-.57h.055a.584.584 0 0 1 .515.586v1.785c0 .18.146.326.326.326h2.197a.327.327 0 0 0 .326-.326v-6.646a.327.327 0 0 0-.326-.326h-2.197a.327.327 0 0 0-.326.326v3.212a.57.57 0 0 1-.57.57h-.054a.584.584 0 0 1-.515-.587V19.99c0-.613.499-1.113 1.112-1.113h2.903c.613 0 1.112.5 1.112 1.113v7c0 .178.147.325.326.325h.352c.18 0 .326-.147.326-.326v-9.967c0-.613.5-1.113 1.112-1.113h2.903c.613 0 1.113.5 1.113 1.113v9.967c0 .18.146.326.325.326h.353a.326.326 0 0 0 .325-.326V14.053c0-.613.5-1.113 1.113-1.113h2.902c.614 0 1.113.5 1.113 1.113v4.162a.57.57 0 1 1-1.14 0v-3.81a.327.327 0 0 0-.325-.325h-2.198a.327.327 0 0 0-.325.325v12.583c0 .18.146.326.325.326h2.198a.326.326 0 0 0 .325-.326v-7.146a.57.57 0 0 1 .57-.57h.054a.584.584 0 0 1 .516.587v7.124c0 .179.146.325.325.325h.825c.304 0 .559.228.586.516a.566.566 0 0 1-.57.624H3.573v.005Zm14.91-11.405a.327.327 0 0 0-.325.326v9.614c0 .18.146.326.325.326h2.198a.326.326 0 0 0 .325-.326v-9.614a.327.327 0 0 0-.325-.326h-2.198ZM6.21 22.984a.327.327 0 0 0-.326.325v3.68c0 .178.147.325.326.325h2.197c.18 0 .326-.147.326-.326V23.31a.327.327 0 0 0-.326-.326H6.21Zm.765-5.687c-.527 0-.96-.363-1.058-.878a1.071 1.071 0 0 1 .743-1.232c4.34-1.34 7.954-3.212 10.749-5.573a.573.573 0 0 1 .608-.081.554.554 0 0 1 .325.564.564.564 0 0 1-.2.39c-2.583 2.182-5.839 3.967-9.68 5.313a.104.104 0 0 0-.071.12c.01.053.054.092.103.092h.016c2.344-.299 4.547-.88 6.555-1.726 3.424-1.443 6.229-3.646 8.35-6.55a.57.57 0 0 1 .787-.13l.488.337c.017.01.038.022.06.022.033 0 .06-.011.082-.038a.094.094 0 0 0 .027-.082l-.315-3.168a.325.325 0 0 0-.407-.283l-3.082.804c-.043.01-.07.043-.081.086a.118.118 0 0 0 .043.109l.489.336a.578.578 0 0 1 .184.727c-.027.05-.646 1.254-2.306 2.898a.562.562 0 0 1-.402.168.568.568 0 0 1-.401-.977c.911-.906 1.487-1.665 1.807-2.143.016-.027.01-.06-.017-.076l-1.21-.84a.549.549 0 0 1-.233-.57.558.558 0 0 1 .418-.456l5.518-1.438c.049-.011.098-.022.147-.022.293 0 .548.233.57.515l.57 5.67a.537.537 0 0 1-.131.43.595.595 0 0 1-.445.205.545.545 0 0 1-.315-.103l-1.204-.835a.072.072 0 0 0-.033-.011.05.05 0 0 0-.043.022c-2.198 2.827-5.041 4.997-8.46 6.44-2.588 1.09-5.43 1.753-8.459 1.964h-.086Z"/></svg><svg fill="currentColor" viewBox="0 0 32 32" id="language" xmlns="http://www.w3.org/2000/svg"><path d="M25.9 8.264a.71.71 0 0 0 .117-1.032C23.567 4.44 19.977 2.667 16 2.667 8.677 2.667 2.667 8.677 2.667 16S8.677 29.333 16 29.333c2.35 0 4.635-.662 6.652-1.835a.685.685 0 0 1 .546-.065l4.974 1.54a.667.667 0 0 0 .84-.813l-1.438-5.244a.684.684 0 0 1 .064-.511c1.08-1.955 1.695-4.156 1.695-6.405 0-2.441-.667-4.736-1.829-6.711a.712.712 0 0 0-1.05-.19.78.78 0 0 0-.189 1.01A11.78 11.78 0 0 1 27.834 16c0 6.535-5.298 11.833-11.833 11.833S4.167 22.535 4.167 16 9.465 4.167 16 4.167c3.521 0 6.684 1.538 8.851 3.979a.777.777 0 0 0 1.048.118Z"/><path d="M7.57 20.67c-.497 0-.815.523-.548.941a10.573 10.573 0 0 0 3.533 3.412c.528.312 1.09-.27.881-.847a19.882 19.882 0 0 1-.8-2.952.68.68 0 0 0-.663-.553H7.57Zm-.549-10.28c-.267.418.05.94.547.94h2.404a.68.68 0 0 0 .664-.553 19.81 19.81 0 0 1 .8-2.952c.208-.576-.354-1.159-.882-.847a10.573 10.573 0 0 0-3.533 3.412Zm9.052-4.882c-.025 0-.048-.007-.073-.007-.966.031-2.207 1.894-2.921 5.043a.648.648 0 0 0 .64.787h4.614c.417 0 .732-.38.64-.787-.71-3.125-1.936-4.979-2.9-5.036ZM16.001 26.5c.025 0 .048-.007.073-.007.963-.057 2.19-1.91 2.9-5.036a.648.648 0 0 0-.64-.787H13.72a.648.648 0 0 0-.64.787c.714 3.15 1.955 5.012 2.921 5.043ZM10.148 16c0-.536.016-1.076.046-1.613a.68.68 0 0 0-.674-.722H6.15a.644.644 0 0 0-.64.52A9.888 9.888 0 0 0 5.333 16c0 .622.066 1.226.176 1.816.057.305.329.52.64.52h3.37a.68.68 0 0 0 .674-.723A28.461 28.461 0 0 1 10.147 16Zm11.415-8.872c-.522-.332-1.1.245-.896.829.306.87.557 1.822.751 2.82a.68.68 0 0 0 .663.553h2.184c.497 0 .815-.523.548-.942a10.62 10.62 0 0 0-3.25-3.26ZM21.907 16c0 .536-.016 1.076-.046 1.613a.68.68 0 0 0 .673.722h3.151c.31 0 .582-.214.64-.519A9.89 9.89 0 0 0 26.5 16a9.89 9.89 0 0 0-.176-1.816.644.644 0 0 0-.639-.52h-3.15a.68.68 0 0 0-.674.723c.03.537.046 1.077.046 1.613Zm-8.697-2.335a.655.655 0 0 0-.658.611 27.864 27.864 0 0 0 0 3.448.655.655 0 0 0 .658.611h5.634a.655.655 0 0 0 .658-.611 27.942 27.942 0 0 0 0-3.448.655.655 0 0 0-.658-.611H13.21Zm7.456 10.378c-.205.584.374 1.161.896.829a10.62 10.62 0 0 0 3.25-3.26c.267-.42-.051-.941-.548-.941h-2.183a.68.68 0 0 0-.664.553 20.154 20.154 0 0 1-.75 2.82Z"/></svg><svg fill="currentColor" viewBox="0 0 32 32" id="menu" xmlns="http://www.w3.org/2000/svg"><path d="M3.124 28.997a.444.444 0 0 0 .432.336h18.666a.444.444 0 0 0 .431-.336l.445-1.778a.445.445 0 0 0-.431-.552.51.51 0 0 1-.502-.466 9.338 9.338 0 0 0-7.346-8.217c-.097-.02-.152-.108-.152-.206a1.778 1.778 0 1 0-3.556 0c0 .098-.056.186-.152.206a9.34 9.34 0 0 0-7.347 8.217.51.51 0 0 1-.5.466.444.444 0 0 0-.432.552l.444 1.778Zm18.835-.89a.445.445 0 0 1-.43.338H4.248a.444.444 0 0 1 0-.89h17.28c.288 0 .5.272.43.553ZM12 17.778a.889.889 0 1 1 1.778 0c0 .025-.025.043-.05.041a9.29 9.29 0 0 0-.84-.04c-.283 0-.562.015-.839.04-.024.002-.049-.016-.049-.04Zm.889.89a8.448 8.448 0 0 1 8.377 7.474.477.477 0 0 1-.483.526H4.994a.477.477 0 0 1-.483-.526 8.448 8.448 0 0 1 8.378-7.474Z"/><path d="M21.96 28.108a.445.445 0 0 1-.432.337H4.25a.444.444 0 0 1 0-.89h17.278c.29 0 .501.272.431.553ZM12 17.778a.889.889 0 1 1 1.778 0c0 .024-.025.042-.05.04a9.29 9.29 0 0 0-.84-.04c-.283 0-.562.015-.839.04-.024.002-.049-.016-.049-.04Z"/><path fill-rule="evenodd" d="m3.06 29.013-.445-1.778a.512.512 0 0 1 .496-.635.444.444 0 0 0 .435-.406 9.406 9.406 0 0 1 7.4-8.275c.058-.012.098-.067.098-.141a1.844 1.844 0 0 1 3.69 0c0 .075.04.129.098.141a9.406 9.406 0 0 1 7.4 8.275c.022.229.21.406.435.406a.512.512 0 0 1 .495.635l-.444 1.778a.512.512 0 0 1-.496.387H3.556a.511.511 0 0 1-.496-.387Zm20.038-1.794a.445.445 0 0 0-.431-.552.51.51 0 0 1-.502-.466 9.338 9.338 0 0 0-7.346-8.217c-.097-.02-.152-.108-.152-.206a1.778 1.778 0 1 0-3.556 0c0 .098-.056.186-.152.206a9.34 9.34 0 0 0-7.347 8.217.51.51 0 0 1-.5.466.444.444 0 0 0-.432.552l.444 1.778a.444.444 0 0 0 .432.336h18.666a.444.444 0 0 0 .431-.336l.445-1.778Zm-4.451-6.181a8.38 8.38 0 0 0-5.758-2.305 8.38 8.38 0 0 0-8.311 7.416.41.41 0 0 0 .416.451h15.79a.41.41 0 0 0 .416-.451 8.38 8.38 0 0 0-2.553-5.111Zm-5.758-2.371a8.448 8.448 0 0 1 8.377 7.474.477.477 0 0 1-.483.526H4.994a.477.477 0 0 1-.483-.526 8.448 8.448 0 0 1 8.378-7.474Z" clip-rule="evenodd"/><path d="M6.578 22.955a.425.425 0 0 0 .151.6c.213.123.483.05.62-.154a6.68 6.68 0 0 1 6.773-2.843.468.468 0 0 0 .544-.333.425.425 0 0 0-.322-.53 7.567 7.567 0 0 0-7.766 3.26Zm-.883 1.84a.427.427 0 0 0 .31.539c.234.06.475-.08.55-.31a.465.465 0 0 0-.258-.579.427.427 0 0 0-.569.25 7.284 7.284 0 0 0-.033.1ZM28.889 4.89h-.834a.5.5 0 0 1-.5-.5V3.11a.445.445 0 0 0-.512-.439L12.825 4.894a.005.005 0 0 0-.005.004.005.005 0 0 1-.004.005.438.438 0 0 0-.372.43v9.334a.444.444 0 0 0 .89 0v-8.39a.5.5 0 0 1 .5-.5h14.11a.5.5 0 0 1 .5.5v21.668a.5.5 0 0 1-.5.5H24a.444.444 0 1 0 0 .888h4.889a.444.444 0 0 0 .444-.444V5.333a.444.444 0 0 0-.444-.444Zm-2.222-.5a.5.5 0 0 1-.5.5H25.05c-.617 0-.687-.899-.077-.994l1.117-.175a.5.5 0 0 1 .577.494v.175Z"/><path d="M26.667 4.389a.5.5 0 0 1-.5.5H25.05c-.617 0-.687-.899-.077-.994l1.117-.175a.5.5 0 0 1 .577.494v.175Z"/><path fill-rule="evenodd" d="M27.032 2.606a.51.51 0 0 1 .59.505V4.39c0 .24.194.433.433.433h.834a.511.511 0 0 1 .511.511V28.89a.511.511 0 0 1-.511.511H24a.511.511 0 1 1 0-1.022h3.944c.24 0 .434-.194.434-.433V6.277a.433.433 0 0 0-.434-.434h-14.11a.433.433 0 0 0-.434.434v8.389a.511.511 0 1 1-1.022 0V5.333a.505.505 0 0 1 .404-.491.07.07 0 0 1 .032-.014l14.218-2.222Zm-16.697 18.42a6.612 6.612 0 0 0-2.93 2.412.535.535 0 0 1-.709.175.491.491 0 0 1-.173-.694 7.633 7.633 0 0 1 7.834-3.289.492.492 0 0 1 .374.611.535.535 0 0 1-.62.383 6.612 6.612 0 0 0-3.776.402Zm-4.703 3.75c.01-.035.022-.069.033-.103a.493.493 0 0 1 .657-.29c.26.106.383.4.297.661a.532.532 0 0 1-.631.354.493.493 0 0 1-.356-.623Zm21.41-22.104a.444.444 0 0 1 .513.44v1.277a.5.5 0 0 0 .5.5h.834a.444.444 0 0 1 .444.444V28.89a.444.444 0 0 1-.444.444H24a.444.444 0 1 1 0-.888h3.944a.5.5 0 0 0 .5-.5V6.277a.5.5 0 0 0-.5-.5h-14.11a.5.5 0 0 0-.5.5v8.389a.444.444 0 0 1-.89 0V5.333a.438.438 0 0 1 .372-.43.005.005 0 0 0 .004-.005c0-.002.002-.004.005-.004l14.218-2.222ZM6.73 23.556a.425.425 0 0 1-.15-.6 7.567 7.567 0 0 1 7.765-3.26c.24.047.384.29.322.529a.468.468 0 0 1-.544.333 6.68 6.68 0 0 0-6.773 2.843.468.468 0 0 1-.62.155Zm-.725 1.778a.427.427 0 0 1-.309-.538c.01-.034.022-.068.033-.101a.427.427 0 0 1 .57-.25.467.467 0 0 1 .258.578.465.465 0 0 1-.552.311Z" clip-rule="evenodd"/><path d="m16.803 10.568-.943-.943a.444.444 0 0 0-.628.629l.943.943a2.223 2.223 0 0 0 2.437.475c.22-.093.48-.072.648.096l.647.646a.5.5 0 0 1 0 .708l-3.418 3.417a.445.445 0 0 0 .629.629l3.417-3.418a.5.5 0 0 1 .707 0l3.418 3.418a.444.444 0 0 0 .628-.629l-3.417-3.417a.5.5 0 0 1 0-.707l.018-.019c.168-.168.43-.189.648-.096a2.225 2.225 0 0 0 2.437-.475l.629-.628a2.224 2.224 0 0 0-1.564-3.821 2.222 2.222 0 0 0-1.579.678l-.628.629a2.222 2.222 0 0 0-.475 2.437c.092.219.072.48-.096.648l-.019.018a.5.5 0 0 1-.707 0l-.646-.647c-.168-.168-.189-.429-.096-.648a2.221 2.221 0 0 0-.476-2.437l-.942-.943a.444.444 0 0 0-.629.629l.943.943a1.333 1.333 0 0 1 .38.822c.03.344-.38.432-.624.188l-1.327-1.327a.444.444 0 0 0-.629.629l1.328 1.328c.244.244.157.654-.187.625a1.334 1.334 0 0 1-.827-.38Zm5.657-1.257.629-.628a1.333 1.333 0 0 1 1.885 1.885l-.628.629a1.335 1.335 0 0 1-2.193-.422 1.333 1.333 0 0 1 .307-1.464Zm3.762 9.8a.444.444 0 1 1 .89 0 .444.444 0 0 1-.89 0Zm0 1.778a.444.444 0 1 1 .89 0 .444.444 0 0 1-.89 0Zm0 1.778a.444.444 0 1 1 .889 0 .444.444 0 0 1-.889 0Zm-6.667-3.556c0-.245.2-.444.445-.444h4.889a.444.444 0 0 1 0 .889H20a.444.444 0 0 1-.445-.445Zm1.778 1.778c0-.245.2-.444.445-.444h3.11a.444.444 0 0 1 0 .888h-3.11a.444.444 0 0 1-.445-.444Zm1.334 1.778c0-.246.199-.445.444-.445h1.778a.444.444 0 1 1 0 .89H23.11a.444.444 0 0 1-.444-.445Zm-12-16a.444.444 0 1 1 .889 0v7.11a.444.444 0 1 1-.89 0v-7.11Z"/><path d="m22.46 9.311.629-.628a1.333 1.333 0 0 1 1.885 1.885l-.628.629a1.335 1.335 0 0 1-2.193-.422 1.333 1.333 0 0 1 .307-1.464Z"/><path fill-rule="evenodd" d="M24.974 11.825a2.225 2.225 0 0 1-2.437.475c-.219-.093-.48-.072-.648.096l-.018.018a.5.5 0 0 0 0 .708l3.417 3.417a.444.444 0 1 1-.628.629l-3.418-3.418a.5.5 0 0 0-.707 0l-3.417 3.418a.445.445 0 0 1-.629-.629l3.418-3.417a.5.5 0 0 0 0-.707l-.647-.647c-.168-.168-.429-.189-.648-.096a2.223 2.223 0 0 1-2.437-.476l-.943-.942a.444.444 0 0 1 .628-.629l.944.943a1.334 1.334 0 0 0 .826.38c.344.03.431-.381.188-.625l-1.329-1.328a.444.444 0 0 1 .629-.629l1.327 1.327c.244.244.655.156.625-.188a1.333 1.333 0 0 0-.38-.822l-.944-.943a.444.444 0 1 1 .629-.629l.942.943a2.222 2.222 0 0 1 .476 2.437c-.093.22-.072.48.096.648l.646.647a.5.5 0 0 0 .707 0l.019-.018c.168-.168.188-.43.096-.648a2.223 2.223 0 0 1 .475-2.437l.628-.629a2.222 2.222 0 1 1 3.143 3.143l-.629.628Zm.675-.581a2.29 2.29 0 1 0-3.236-3.236l-.628.628a2.288 2.288 0 0 0-.49 2.51c.085.2.063.43-.082.575l-.018.018a.433.433 0 0 1-.613 0l-.646-.647c-.144-.144-.167-.374-.082-.575a2.29 2.29 0 0 0-.49-2.51l-.942-.943a.511.511 0 1 0-.723.723l.942.943a1.267 1.267 0 0 1 .362.78.237.237 0 0 1-.038.165.216.216 0 0 1-.122.08.374.374 0 0 1-.351-.11L17.165 8.32a.511.511 0 1 0-.723.723l1.328 1.328a.374.374 0 0 1 .11.35.217.217 0 0 1-.08.123.238.238 0 0 1-.164.04 1.267 1.267 0 0 1-.785-.361v-.001l-.943-.943a.511.511 0 0 0-.723.723l.943.943a2.289 2.289 0 0 0 2.51.49c.2-.086.43-.063.575.08l.647.648a.433.433 0 0 1 0 .612l-3.418 3.418a.511.511 0 1 0 .723.723l3.418-3.418a.43.43 0 0 1 .612 0l3.418 3.418a.511.511 0 1 0 .723-.723l-3.418-3.418a.433.433 0 0 1 0-.612l.018-.019c.145-.144.375-.166.575-.082a2.29 2.29 0 0 0 2.51-.489l.628-.628ZM20 18.6h4.889a.511.511 0 0 1 0 1.022H20a.511.511 0 0 1 0-1.022Zm1.778 1.778h3.11a.511.511 0 1 1 0 1.022h-3.11a.511.511 0 1 1 0-1.022Zm1.333 1.778h1.778a.511.511 0 1 1 0 1.022H23.11a.511.511 0 1 1 0-1.022ZM11.622 6.666v7.112a.511.511 0 1 1-1.022 0V6.667a.511.511 0 1 1 1.022 0Zm15.045 16.512a.511.511 0 1 1 0-1.023.511.511 0 0 1 0 1.023Zm0-1.778a.511.511 0 1 1 0-1.022.511.511 0 0 1 0 1.022Zm.51-2.289a.511.511 0 1 1-1.022 0 .511.511 0 0 1 1.023 0Zm-.51-.444a.444.444 0 1 0 0 .889.444.444 0 0 0 0-.89Zm0 1.777a.444.444 0 1 0 0 .89.444.444 0 0 0 0-.89Zm0 1.778a.444.444 0 1 0 0 .89.444.444 0 0 0 0-.89ZM20 18.667a.444.444 0 1 0 0 .889h4.889a.444.444 0 0 0 0-.89H20Zm1.778 1.777a.444.444 0 1 0 0 .89h3.11a.444.444 0 0 0 0-.89h-3.11Zm1.333 1.778a.444.444 0 1 0 0 .89h1.778a.444.444 0 1 0 0-.89H23.11Zm-12-16a.444.444 0 0 0-.444.445v7.11a.444.444 0 1 0 .889 0v-7.11a.444.444 0 0 0-.445-.445Z" clip-rule="evenodd"/></svg><svg fill="currentColor" viewBox="0 0 32 32" id="phone" xmlns="http://www.w3.org/2000/svg"><path d="M8.364 14.542a22.446 22.446 0 0 0 9.764 9.764l3.26-3.26c.4-.4.992-.533 1.51-.355 1.66.548 3.453.845 5.29.845.815 0 1.482.666 1.482 1.481v5.171c0 .815-.667 1.482-1.482 1.482C14.276 29.67 3 18.394 3 4.482 3 3.667 3.667 3 4.482 3h5.186c.814 0 1.481.667 1.481 1.482 0 1.852.296 3.63.845 5.29a1.487 1.487 0 0 1-.37 1.51l-3.26 3.26Z"/></svg><svg fill="currentColor" viewBox="0 0 32 32" id="support" xmlns="http://www.w3.org/2000/svg"><path d="M21.93 23.883a.528.528 0 1 0 0 1.055.528.528 0 0 0 0-1.055Z"/><path d="m23.228 22.177-2.506-.835-.9-1.8a5.775 5.775 0 0 0 1.563-3.055l.112-.672h.96c.872 0 1.582-.71 1.582-1.583V10.91c0-4.362-3.548-7.91-7.91-7.91a7.905 7.905 0 0 0-7.91 7.91v3.322c0 .688.44 1.274 1.054 1.492v.618c0 .872.71 1.582 1.582 1.582h.464a5.72 5.72 0 0 0 1.116 1.62l-.899 1.798-2.506.836C6.115 23.149 4 26.218 4 29.473c0 .29.236.527.527.527H27.73a.527.527 0 0 0 .528-.527c0-3.256-2.115-6.324-5.03-7.296Zm-.244-7.945a.528.528 0 0 1-.527.528h-.805a34.405 34.405 0 0 0 .262-3.322h1.07v2.794Zm-13.183.528a.528.528 0 0 1-.528-.528v-2.794h1.07l.007.165v.006c.037 1.059.125 2.135.256 3.15H9.8Zm1.054 2.11a.528.528 0 0 1-.527-.528v-.527h.432l.113.672c.021.128.047.256.078.382h-.096Zm-.526-6.487H9.293a6.851 6.851 0 0 1 6.836-6.328c3.603 0 6.565 2.793 6.835 6.328H21.93c-.038-2.913-2.41-5.274-5.328-5.274h-.944c-2.918 0-5.29 2.361-5.328 5.274Zm5.328-4.219h.944c2.363 0 4.275 1.933 4.274 4.293 0 .166-.001.31-.004.442v.005l-.66-.094a8.474 8.474 0 0 1-4.764-2.382.527.527 0 0 0-.373-.155 4.771 4.771 0 0 0-3.668 1.736c.221-2.147 2.036-3.845 4.25-3.845ZM12.044 16.87c-.264-.878-.566-3.462-.633-5.118l.71-.946a3.712 3.712 0 0 1 2.745-1.47 9.538 9.538 0 0 0 5.196 2.519l.776.111a32.465 32.465 0 0 1-.31 3.223v.001c-.048.327-.086.537-.183 1.125-.28 1.675-1.53 3.19-3.18 3.602a4.29 4.29 0 0 1-2.072 0c-1.03-.258-1.976-.97-2.585-1.992h1.075a1.584 1.584 0 0 0 1.491 1.055h1.055a1.582 1.582 0 1 0 0-3.164h-1.055c-.703 0-1.28.453-1.492 1.054h-1.538Zm2.986 4.114a5.333 5.333 0 0 0 1.961.044l-.931.986-1.03-1.03Zm.305 1.797-1.673 1.768a20.097 20.097 0 0 1-1.18-2.737l.627-1.257 2.226 2.226Zm3.724-2.404.717 1.434c-.325.941-.72 1.857-1.18 2.74l-1.79-1.791 2.253-2.383Zm-4.512-2.98c0-.29.236-.527.527-.527h1.055a.528.528 0 0 1 0 1.055h-1.055a.528.528 0 0 1-.527-.527Zm-9.471 11.55c.209-2.613 1.947-4.988 4.287-5.768l2.22-.74c.407 1.126.91 2.215 1.501 3.256l.003.006c.435.764.917 1.5 1.443 2.204l.65 1.041H5.075Zm11.053-.47-.715-1.149a20.088 20.088 0 0 1-1.214-1.813l1.88-1.988 1.982 1.981a20.09 20.09 0 0 1-1.192 1.782c-.026.035.01-.02-.741 1.186Zm.95.47.648-1.042a21.42 21.42 0 0 0 1.454-2.222l.008-.014v-.002a21.117 21.117 0 0 0 1.486-3.228l2.22.74c2.34.78 4.078 3.155 4.287 5.767H17.079Z"/><path d="M25.597 26.811A5.274 5.274 0 0 0 24.104 25a.527.527 0 1 0-.643.836c.499.383.911.884 1.193 1.447a.527.527 0 1 0 .943-.47Z"/></svg><svg fill="currentColor" viewBox="0 0 32 32" id="telegram" xmlns="http://www.w3.org/2000/svg"><path d="M28.134 5.043c-.133.04-.267.08-.4.134-7.978 3.125-15.942 6.263-23.906 9.4-.107.04-.227.095-.32.149-.347.161-.52.444-.507.835.013.39.227.646.573.794.094.04.2.067.307.094 1.881.566 3.762 1.118 5.643 1.67a.549.549 0 0 1 .414.418c.707 2.29 1.427 4.579 2.134 6.855.347 1.104 1.214 1.32 2.015.498a281.84 281.84 0 0 0 2.788-2.882c.2-.216.32-.202.547-.04 1.934 1.44 3.869 2.868 5.803 4.309 1.04.768 2.054.377 2.308-.889 1.64-7.946 2.975-14.356 3.615-17.426.187-.89.36-1.778.52-2.546.04-.97-.72-1.589-1.534-1.373ZM24.84 9.608c-.627.552-1.24 1.118-1.867 1.67l-9.246 8.242c-.24.215-.346.458-.386.781-.12 1.131-.24 2.263-.374 3.394a1.64 1.64 0 0 1-.053.242.227.227 0 0 1-.08.108c-.067.027-.107-.027-.134-.081l-.08-.242c-.547-1.778-1.094-3.542-1.64-5.32-.04-.135-.067-.283-.08-.337-.014-.404.186-.579.44-.727 1.587-.996 3.175-1.98 4.749-2.976a2694.51 2694.51 0 0 0 8.15-5.104c.08-.054.161-.094.241-.148.16-.108.347-.162.48.027.134.202.027.35-.12.471Z"/></svg><svg fill="currentColor" viewBox="0 0 32 32" id="theme" xmlns="http://www.w3.org/2000/svg"><path fill-rule="evenodd" d="M27.178 3.862A5.644 5.644 0 0 1 28.5 7.5v15.333a5.667 5.667 0 0 1-5.667 5.667H7.5a5.644 5.644 0 0 1-3.638-1.322.468.468 0 0 1-.015-.691l22.64-22.64a.468.468 0 0 1 .69.015Zm-7.796 11.537c-.302-.367-.095-.97.37-.867.301.066.6.162.895.287l.442.19a5 5 0 0 1 2.63 6.564l-.189.442a5 5 0 0 1-6.564 2.63l-.442-.19c-.279-.118-.195-.515.098-.593a4.992 4.992 0 0 0 3.315-2.866l.189-.443a5 5 0 0 0-.744-5.154Z" clip-rule="evenodd"/><path d="M6.833 9.833a3 3 0 1 1 6 0 3 3 0 0 1-6 0ZM9.333 4a.5.5 0 0 1 1 0v1.667a.5.5 0 1 1-1 0V4Zm0 10a.5.5 0 0 1 1 0v1.667a.5.5 0 1 1-1 0V14Zm6.334-4.667a.5.5 0 0 1 0 1H14a.5.5 0 1 1 0-1h1.667Zm-10 0a.5.5 0 1 1 0 1H4a.5.5 0 1 1 0-1h1.667Zm7.937-3.978a.5.5 0 0 1 .708.707l-1.179 1.179a.5.5 0 1 1-.707-.707l1.178-1.179Zm-7.07 7.071a.5.5 0 1 1 .707.707l-1.179 1.179a.5.5 0 0 1-.707-.707l1.178-1.179Zm7.778 1.178a.5.5 0 0 1-.707.708l-1.179-1.179a.5.5 0 0 1 .707-.707l1.179 1.178ZM7.24 6.533a.5.5 0 0 1-.707.708L5.356 6.062a.5.5 0 0 1 .707-.707l1.179 1.178Z"/></svg><svg fill="currentColor" viewBox="0 0 32 32" id="time" xmlns="http://www.w3.org/2000/svg"><path d="m27.584 10.862.407-.406.012.012a.759.759 0 0 0 1.074 0l.628-.629a.76.76 0 0 0 0-1.073l-1.648-1.648a.777.777 0 0 0-1.073 0l-.628.628a.758.758 0 0 0 0 1.074l.012.012-.43.43a10.504 10.504 0 0 0-5.065-2.146v-1.25h.813a.916.916 0 0 0 .916-.915V3.915A.917.917 0 0 0 21.686 3h-4.492a.916.916 0 0 0-.915.915v1.036a.916.916 0 0 0 .915.915h.814v1.25a10.5 10.5 0 0 0-1.65.357.483.483 0 0 0 .282.923 9.594 9.594 0 1 1-3.982 15.96.482.482 0 1 0-.683.682 10.554 10.554 0 0 0 15.61-14.176Zm-.064-2.915 1.357 1.356-.337.337-1.357-1.357.337-.336Zm-.47 1.568.258.258-.373.373a8.947 8.947 0 0 0-.263-.253l.378-.378ZM17.244 4.9v-.936h4.392V4.9h-4.392Zm1.729 2.132V5.866h.935v1.162a10.657 10.657 0 0 0-.468-.012c-.156 0-.312.01-.467.017Z"/><path d="M25.71 23.806a8.828 8.828 0 0 0 0-12.466c-.006-.007-.008-.016-.014-.022-.007-.007-.016-.01-.023-.015a8.817 8.817 0 0 0-6.233-2.577 8.87 8.87 0 0 0-1.584.142.483.483 0 1 0 .172.95c.308-.053.618-.088.93-.105v.755a.482.482 0 1 0 .965 0v-.752a7.838 7.838 0 0 1 4.73 1.962l-.53.53a.484.484 0 1 0 .682.683l.53-.53a7.837 7.837 0 0 1 1.962 4.73h-.752a.482.482 0 1 0 0 .965h.752a7.837 7.837 0 0 1-1.961 4.73l-.53-.531a.483.483 0 0 0-.683.683l.53.53a7.838 7.838 0 0 1-4.73 1.962v-.752a.483.483 0 0 0-.966 0v.757a7.788 7.788 0 0 1-4.405-1.678.483.483 0 1 0-.598.757 8.838 8.838 0 0 0 11.719-.67c.007-.006.016-.009.023-.015.006-.007.008-.016.015-.023Z"/><path d="M23.56 13.453a.483.483 0 0 0-.683 0l-2.705 2.706a1.58 1.58 0 0 0-.732-.185 1.599 1.599 0 1 0 1.6 1.6 1.579 1.579 0 0 0-.186-.732l2.706-2.706a.483.483 0 0 0 0-.683Zm-4.12 4.754a.634.634 0 1 1-.002-1.269.634.634 0 0 1 .002 1.269Zm-5.536-8.515h-3.047a.483.483 0 0 1 0-.966h3.047a.483.483 0 0 1 0 .966Zm-4.606 0H8.32a.483.483 0 0 1 0-.966h.977a.483.483 0 0 1 0 .966Zm6.094 3.178H7.321a.482.482 0 1 1 0-.966h8.071a.483.483 0 0 1 0 .966Zm-3.475 3.178H3.483a.483.483 0 1 1 0-.965h8.434a.483.483 0 0 1 0 .965Zm2.498 0h-.907a.483.483 0 1 1 0-.965h.907a.483.483 0 0 1 0 .965Zm1.862 3.178H9.123a.483.483 0 0 1 0-.965h7.154a.483.483 0 0 1 0 .965Zm-9.189 3.178h-.861a.483.483 0 0 1 0-.965h.86a.483.483 0 0 1 .001.965Zm7.327 0H8.624a.483.483 0 0 1 0-.965h5.791a.483.483 0 1 1 0 .965Z"/></svg><svg fill="currentColor" viewBox="0 0 32 32" id="tools" xmlns="http://www.w3.org/2000/svg"><path fill-rule="evenodd" d="M19.05 6.29H5.968v1.15H19.05V6.29Z" clip-rule="evenodd"/><path fill-rule="evenodd" d="M5.394 6.865c0 .317.257.574.574.574H19.05a.575.575 0 0 0 0-1.149H5.968a.574.574 0 0 0-.574.575Z" clip-rule="evenodd"/><path fill-rule="evenodd" d="M3 26.402c0 .897.728 1.625 1.625 1.625h23.75c.897 0 1.625-.728 1.625-1.625v-5.163a.522.522 0 0 0-1.044 0v5.163c0 .32-.26.58-.581.58H4.625a.58.58 0 0 1-.58-.58V5.625c0-.32.26-.58.58-.58h23.75c.32 0 .58.26.58.58v13.783a.522.522 0 0 0 1.045 0V5.625C30 4.728 29.272 4 28.375 4H4.625C3.728 4 3 4.728 3 5.625v20.777Z" clip-rule="evenodd"/><path fill-rule="evenodd" d="M6.252 9.207c0 .288.234.522.522.522h22.704a.522.522 0 0 0 0-1.044H6.774a.522.522 0 0 0-.522.522ZM3 9.207c0 .288.234.522.522.522h1.421a.522.522 0 1 0 0-1.044h-1.42A.522.522 0 0 0 3 9.207Zm21.631-2.341a1.369 1.369 0 1 0 2.738 0 1.369 1.369 0 0 0-2.738 0Zm1.37.534a.533.533 0 1 1 0-1.067.533.533 0 0 1 0 1.067Zm-5.184-.534a1.369 1.369 0 1 0 2.738 0 1.369 1.369 0 0 0-2.738 0Zm1.369.534a.533.533 0 1 1 0-1.067.533.533 0 0 1 0 1.067Z" clip-rule="evenodd"/><path d="M21.67 14.238h5.484-5.484Z"/><path fill-rule="evenodd" d="M21.148 14.238c0-.289.234-.522.522-.522h5.484a.522.522 0 1 1 0 1.044H21.67a.522.522 0 0 1-.522-.522Z" clip-rule="evenodd"/><path d="M18.85 14.238h.94-.94Z"/><path fill-rule="evenodd" d="M18.328 14.238c0-.289.234-.522.522-.522h.94a.522.522 0 0 1 0 1.044h-.94a.522.522 0 0 1-.522-.522Z" clip-rule="evenodd"/><path d="M26.318 18.26h.836-.836Z"/><path fill-rule="evenodd" d="M25.796 18.26c0-.29.234-.523.522-.523h.836a.522.522 0 1 1 0 1.044h-.836a.522.522 0 0 1-.522-.522Z" clip-rule="evenodd"/><path d="M18.85 18.26h5.536-5.536Z"/><path fill-rule="evenodd" d="M18.328 18.26c0-.29.234-.523.522-.523h5.536a.522.522 0 1 1 0 1.044H18.85a.522.522 0 0 1-.522-.522Z" clip-rule="evenodd"/><path d="M21.723 22.28h5.43-5.43Z"/><path fill-rule="evenodd" d="M21.2 22.28c0-.288.234-.522.523-.522h5.43a.522.522 0 1 1 0 1.045h-5.43a.522.522 0 0 1-.523-.523Z" clip-rule="evenodd"/><path d="M18.85 22.28h.836-.836Z"/><path fill-rule="evenodd" d="M18.328 22.28c0-.288.234-.522.522-.522h.836a.522.522 0 1 1 0 1.045h-.836a.522.522 0 0 1-.522-.523Zm1.155-7.667a1.236 1.236 0 0 0 2.472 0v-.745a1.236 1.236 0 0 0-2.472 0v.745Zm1.236.296a.296.296 0 0 1-.296-.296v-.745a.296.296 0 0 1 .592 0v.745a.296.296 0 0 1-.296.296Zm3.322 3.734a1.236 1.236 0 0 0 2.472 0v-.746a1.236 1.236 0 0 0-2.472 0v.746Zm1.236.295a.296.296 0 0 1-.295-.295v-.746a.296.296 0 1 1 .59 0v.746a.296.296 0 0 1-.295.295Z" clip-rule="evenodd"/><path fill-rule="evenodd" d="M19.483 22.65a1.236 1.236 0 0 0 2.472 0v-.745a1.236 1.236 0 0 0-2.472 0v.745Zm1.236.296a.296.296 0 0 1-.296-.296v-.745a.296.296 0 0 1 .592 0v.745a.296.296 0 0 1-.296.296Zm-8.474-9.841a5.41 5.41 0 0 1 1.496.62.544.544 0 0 1 .256.555c-.062.374.032.661.206.836.176.175.463.268.837.207a.544.544 0 0 1 .555.256c.28.464.49.969.62 1.496a.544.544 0 0 1-.21.573c-.31.221-.447.49-.447.738s.137.516.446.738a.544.544 0 0 1 .211.573 5.41 5.41 0 0 1-.62 1.496.544.544 0 0 1-.555.255c-.375-.061-.66.032-.836.207-.175.175-.269.462-.207.837a.543.543 0 0 1-.255.555c-.466.28-.97.49-1.498.62a.543.543 0 0 1-.572-.211c-.221-.31-.49-.446-.738-.446s-.517.137-.738.446a.544.544 0 0 1-.573.21 5.41 5.41 0 0 1-1.497-.62.544.544 0 0 1-.255-.554c.062-.375-.031-.661-.207-.836-.175-.175-.461-.27-.836-.207a.543.543 0 0 1-.555-.256c-.28-.465-.49-.97-.62-1.497a.544.544 0 0 1 .211-.573c.309-.22.446-.49.446-.737 0-.248-.137-.517-.446-.738a.544.544 0 0 1-.21-.573c.13-.527.339-1.031.62-1.496a.544.544 0 0 1 .554-.256c.375.061.661-.032.836-.207.176-.175.269-.462.207-.836a.544.544 0 0 1 .256-.555c.465-.28.969-.49 1.496-.62a.544.544 0 0 1 .573.211c.222.308.49.446.738.446s.517-.138.738-.446a.544.544 0 0 1 .573-.211Zm.056 1.148c-.358.357-.827.597-1.367.597s-1.01-.24-1.367-.598a4.32 4.32 0 0 0-.59.245c.001.506-.162 1.007-.543 1.388-.382.382-.883.545-1.389.544-.095.19-.177.387-.244.59.358.358.597.827.597 1.367s-.239 1.009-.597 1.366c.067.204.15.401.244.59.506 0 1.007.163 1.389.544.381.381.544.882.544 1.388.188.096.386.177.59.245.357-.358.826-.597 1.366-.597.54 0 1.01.239 1.367.597.202-.067.4-.149.59-.245-.001-.506.162-1.006.544-1.388.38-.381.882-.544 1.387-.544a4.3 4.3 0 0 0 .245-.59c-.358-.357-.597-.827-.597-1.366 0-.54.24-1.01.597-1.367a4.323 4.323 0 0 0-.245-.59c-.505 0-1.006-.162-1.388-.544-.381-.381-.544-.882-.544-1.388a4.333 4.333 0 0 0-.59-.244Zm-1.367 1.957a2.176 2.176 0 1 1 0 4.351 2.176 2.176 0 0 1 0-4.351Zm0 1.088a1.088 1.088 0 1 0 0 2.176 1.088 1.088 0 0 0 0-2.176Z" clip-rule="evenodd"/></svg><svg fill="currentColor" viewBox="0 0 32 32" id="whatsapp" xmlns="http://www.w3.org/2000/svg"><path fill-rule="evenodd" d="M25.448 6.542a13.224 13.224 0 0 0-9.392-3.875C8.737 2.667 2.78 8.594 2.778 15.88a13.142 13.142 0 0 0 1.772 6.606l-1.883 6.847 7.038-1.837a13.313 13.313 0 0 0 6.345 1.608h.006c7.318 0 13.275-5.928 13.277-13.214a13.101 13.101 0 0 0-3.885-9.348Zm-9.392 20.33h-.005c-1.98 0-3.922-.53-5.617-1.53l-.402-.239-4.177 1.09 1.114-4.052-.262-.415A10.917 10.917 0 0 1 5.02 15.88C5.022 9.825 9.973 4.897 16.06 4.897a10.986 10.986 0 0 1 7.802 3.221 10.892 10.892 0 0 1 3.23 7.77c-.003 6.056-4.953 10.983-11.036 10.983Zm6.053-8.225c-.332-.166-1.963-.964-2.267-1.074-.304-.11-.525-.166-.746.165-.221.33-.857 1.074-1.05 1.294-.194.22-.388.248-.72.083-.331-.165-1.4-.514-2.668-1.639-.986-.875-1.651-1.956-1.845-2.287-.193-.33-.002-.492.145-.674.36-.444.72-.909.83-1.13.11-.22.055-.412-.028-.578-.083-.165-.746-1.79-1.023-2.451-.27-.644-.543-.557-.746-.567-.194-.01-.415-.012-.636-.012-.221 0-.58.083-.885.414-.304.33-1.16 1.129-1.16 2.754s1.188 3.195 1.354 3.416c.165.22 2.34 3.555 5.667 4.985.792.34 1.41.543 1.892.696.794.25 1.517.215 2.09.13.637-.095 1.962-.798 2.239-1.57.276-.77.276-1.432.193-1.57-.083-.137-.304-.22-.636-.385Z" clip-rule="evenodd"/></svg></svg>