<?xml version="1.0" encoding="utf-8"?><svg viewBox="0 0 32 32" xmlns="http://www.w3.org/2000/svg" xmlns:xlink="http://www.w3.org/1999/xlink"><style>:root>svg{display:none}:root>svg:target{display:block}</style><svg fill="currentColor" viewBox="0 0 32 32" id="analytics" xmlns="http://www.w3.org/2000/svg"><path fill-rule="evenodd" d="M9.598 6.26a2.996 2.996 0 0 1 2.995-2.995h13.539a2.996 2.996 0 0 1 2.996 2.996v19.478a2.996 2.996 0 0 1-2.996 2.996H12.593a2.996 2.996 0 0 1-2.995-2.996v-1.544a7.25 7.25 0 0 1-4.62-2.093 7.2 7.2 0 0 1-1.971-3.687c-.842-4.23 2.372-8.274 6.59-8.63V6.262Zm-.008 4.654c-3.523.358-6.188 3.736-5.483 7.282a6.081 6.081 0 0 0 1.285 2.697l4.118-4.118.08-5.861Zm.71 6.658-4.114 4.114a6.116 6.116 0 0 0 3.965 1.402c3.068-.042 5.688-2.481 5.97-5.517H10.3Zm.337-1.123h6.07c.31 0 .561.252.561.561 0 3.66-2.885 6.838-6.548 7.17v1.56c0 1.034.839 1.873 1.873 1.873h13.539a1.874 1.874 0 0 0 1.874-1.874V6.261a1.874 1.874 0 0 0-1.874-1.874H12.593a1.874 1.874 0 0 0-1.873 1.874v4.07l-.083 6.118Zm1.526-8.733a.56.56 0 0 1 .56-.561c3.878 0 7.2 3.285 7.2 7.2a.56.56 0 0 1-.56.561h-6.64a.561.561 0 0 1-.56-.561V7.716Zm7.069.85c0-.31.251-.56.561-.56h5.875a.561.561 0 1 1 0 1.121h-5.875a.561.561 0 0 1-.561-.56Zm1.244 2.924c0-.31.25-.56.56-.56h4.632a.561.561 0 1 1 0 1.122h-4.631a.561.561 0 0 1-.561-.562Zm.641 2.865c0-.31.252-.561.561-.561h3.99a.561.561 0 1 1 0 1.122h-3.99a.561.561 0 0 1-.56-.561Zm-1.754 3.216a.561.561 0 1 1 0-1.122h3.762a.561.561 0 1 1 0 1.122h-3.762Zm4.842-.56c0-.31.251-.562.561-.562h.902a.561.561 0 1 1 0 1.122h-.902a.561.561 0 0 1-.561-.56Zm1.847 3.805a.561.561 0 0 1 .025.793l-3.607 3.84a.561.561 0 0 1-.734.073l-2.699-1.921a.561.561 0 1 1 .651-.914l2.3 1.637 3.27-3.483a.561.561 0 0 1 .794-.025Z" clip-rule="evenodd"/></svg><svg fill="currentColor" viewBox="0 0 32 32" id="arrow-right" xmlns="http://www.w3.org/2000/svg"><path d="m20.97 11.078 4.468 3.96H4.304A1.3 1.3 0 0 0 3 16.333a1.3 1.3 0 0 0 1.304 1.297h21.134l-4.469 3.96a1.186 1.186 0 0 0 .102 1.857 1.2 1.2 0 0 0 1.48-.072l6.459-5.598c.88-.763.88-2.124 0-2.887l-6.46-5.598a1.2 1.2 0 0 0-1.48-.072 1.186 1.186 0 0 0-.1 1.857Z"/></svg><svg fill="currentColor" viewBox="0 0 32 32" id="banner" xmlns="http://www.w3.org/2000/svg"><path d="M29.333 8.552v14.896c0 1.753-1.359 3.385-3.174 3.385H10a.667.667 0 0 1-.667-.666v-.021c0-.368.299-.667.667-.667h16.159c1.088-.002 1.902-.98 1.905-2.031V8.552c-.003-1.05-.817-2.029-1.905-2.031H5.84c-1.088.002-1.903.98-1.904 2.031v14.896c.001 1.05.816 2.029 1.904 2.031h1.826c.368 0 .666.299.666.667v.02a.667.667 0 0 1-.666.667H5.84c-1.815 0-3.174-1.632-3.174-3.385V8.552c0-1.752 1.359-3.385 3.174-3.385h20.32c1.815 0 3.174 1.633 3.174 3.385Z"/><path fill-rule="evenodd" clip-rule="evenodd" d="M25.524 11.26c0-1.051-.816-2.03-1.905-2.03H8.381c-1.09 0-1.905.979-1.905 2.03v9.48c0 1.051.816 2.03 1.905 2.03h15.238c1.09 0 1.905-.979 1.905-2.03v-9.48Zm-1.27 9.2v-9.2c0-.359-.298-.677-.635-.677H8.381c-.337 0-.635.318-.635.677v9.2l1.827-1.95a1.843 1.843 0 0 1 2.615-.08l3.735-3.982a1.846 1.846 0 0 1 2.694 0l5.637 6.011ZM12.19 11.936c-1.09 0-1.905.981-1.904 2.033 0 1.052.816 2.032 1.906 2.031 1.09 0 1.905-.98 1.905-2.032s-.817-2.032-1.906-2.031Z"/></svg><svg fill="currentColor" viewBox="0 0 32 32" id="borders" xmlns="http://www.w3.org/2000/svg"><path d="M28.82 17.413a.486.486 0 0 0-.581-.434.518.518 0 0 0-.414.55c.01.125.016.251.022.378.011.276.234.5.51.5a.486.486 0 0 0 .49-.5c-.006-.166-.015-.33-.028-.494Z"/><path fill-rule="evenodd" clip-rule="evenodd" d="M12.833 4.878c0-.985.799-1.783 1.784-1.783h2.6c.985 0 1.783.798 1.783 1.783v.955h5.071a1.648 1.648 0 1 1 .012 1h-2.477a12.884 12.884 0 0 1 6.897 8.564.485.485 0 0 1-.388.587.517.517 0 0 1-.594-.392A11.877 11.877 0 0 0 19 6.932v.546c0 .985-.799 1.783-1.784 1.783h-2.6a1.783 1.783 0 0 1-1.783-1.783v-.5C7.976 8.32 4.37 12.676 4.153 17.907a.517.517 0 0 1-.51.5.486.486 0 0 1-.49-.5c.186-4.878 3.09-9.06 7.24-11.074h-2.68a1.648 1.648 0 1 1 .012-1h5.11v-.955Zm4.383-.793h-2.6a.793.793 0 0 0-.792.793v2.6c0 .438.355.793.793.793h2.6a.793.793 0 0 0 .792-.793v-2.6a.793.793 0 0 0-.793-.793ZM5.5 6.315a.648.648 0 1 0 1.295 0 .648.648 0 0 0-1.295 0Zm19.5 0a.648.648 0 1 0 1.295 0 .648.648 0 0 0-1.295 0Z"/><path fill-rule="evenodd" clip-rule="evenodd" d="M21.199 19.355a.5.5 0 0 0-.074-.409L16.31 12.02l.009 8.14a1.648 1.648 0 1 1-.833.022l.003-8.161-4.817 6.928a.5.5 0 0 0-.074.407l.605 2.407a.5.5 0 1 1-.97.243l-.716-2.847a.5.5 0 0 1 .075-.407l5.897-8.483a.5.5 0 0 1 .821 0l5.897 8.482a.5.5 0 0 1 .074.409l-1.722 6.745c.9 0 1.76.487 1.76 1.5a1.5 1.5 0 0 1-1.5 1.5h-9.667a1.5 1.5 0 0 1-1.5-1.5c0-.865.722-1.5 1.562-1.5l-.49-1.95a.5.5 0 1 1 .97-.243l.45 1.796c.057.223.244.397.473.397h6.527a.516.516 0 0 0 .484-.395l1.571-6.155Zm-.38 8.55a.5.5 0 1 0 0-1h-9.667a.5.5 0 0 0 0 1h9.667Z"/></svg><svg fill="currentColor" viewBox="0 0 24 24" id="check" xmlns="http://www.w3.org/2000/svg"><path fill-rule="evenodd" clip-rule="evenodd" d="M21.207 6.123a1 1 0 0 1 0 1.414l-7.505 7.505c-1.06 1.06-2.181 2.407-3.657 2.886-1.735.564-3.464.11-4.821-1.042-.859-.729-1.635-1.553-2.431-2.349a1 1 0 1 1 1.414-1.414c.757.757 1.494 1.545 2.31 2.238.836.709 1.827 1.017 2.91.665 1.14-.37 2.081-1.619 2.891-2.429l7.475-7.474a1 1 0 0 1 1.414 0Z"/></svg><svg fill="currentColor" viewBox="0 0 32 32" id="colors" xmlns="http://www.w3.org/2000/svg"><path d="M11.167 22A1.833 1.833 0 1 1 7.5 22a1.833 1.833 0 0 1 3.667 0Zm5.166 3.042a1.833 1.833 0 1 1-3.666 0 1.833 1.833 0 0 1 3.666 0Zm6.334-1.166a1.833 1.833 0 1 1-3.667 0 1.833 1.833 0 0 1 3.667 0Zm-8.834-16a1.833 1.833 0 1 1-3.666 0 1.833 1.833 0 0 1 3.666 0Zm13 11a1.833 1.833 0 1 1-3.666 0 1.833 1.833 0 0 1 3.666 0Zm-5.993-4.584c-.638.269-1.124-.695-.489-1.031.67-.355 1.202.672.489 1.03Zm.815 1.395c-.043-.666-1.02-.463-.993.155a4.544 4.544 0 0 1-2.245 4.097c-2.068 1.195-4.793.518-6.062-1.505-.343-.546-1.19-.015-.847.531 1.551 2.473 4.881 3.3 7.409 1.84a5.553 5.553 0 0 0 2.738-5.118Z"/><path d="M13.407 2.785C8.743 3.845 5.26 6.889 3.352 11.537c-.939 2.287-.908 6.133.06 8.996 2.085 6.168 8.766 9.782 15.068 8.813 2.265-.36 4.473-1.288 6.27-2.726 2.074-1.666 3.377-3.634 4.164-6.239.53-1.756.56-4.058.076-5.466-.773-2.242-2.18-3.605-4.437-4.286-.666-.197-.742-.09.969-1.378 2.18-1.636 3.786-3.453 3.786-4.27 0-.152-.152-.44-.318-.621-.303-.333-.424-.349-1.56-.288-3.554.597-7.057 2.369-9.873 4.073-.258.152-.515.243-.56.182-.182-.182-.107-1.332.12-1.711.788-1.393 1-1.984.91-2.453-.122-.515-.455-.94-1.091-1.363-.53-.333-2.09-.348-3.529-.015Zm3.15 1.045c.47.318.424.817-.151 1.847-.455.788-.5.97-.5 2.166V9.16l-1.211.878c-.667.5-1.379 1.015-1.59 1.151-.213.136-.697.56-1.106.924-.666.636-.757.666-1.378.606-1.075-.121-1.893.348-2.71 1.59-1.424 2.135-1.909 3.316-1.47 3.589.091.06 1.06.09 2.166.09 1.56 0 3.373.008 4.119-1.62.151-.348.394-.53.939-.727 2.06-.742 2.892-1.09 4.755-2.044 2.105-1.075 2.922-1.514 3.558-1.938.5-.318 2.105-.167 3.15.318.818.378 1.832 1.257 2.272 1.953.893 1.439 1.135 4.165.545 6.012-1.333 4.17-4.201 6.813-8.178 8.041-3.498 1.077-7.416.402-10.448-1.605-3.513-2.287-5.603-6.179-5.603-10.449 0-3.513 1.302-6.45 3.998-8.95 1.817-1.71 3.8-2.71 6.526-3.286.757-.166 2-.09 2.317.137ZM27.93 5.586c-.47.651-.863 1.03-1.878 1.863-.485.394-.984.802-1.09.893-.243.212-.53.424-.833.621a174.69 174.69 0 0 0-2.771 1.848c-.076.075-.319.212-.53.318a44.45 44.45 0 0 0-1.59.863c-.667.363-1.273.666-1.333.666-.348-.666-1.213-2.048-1.5-2.468l.364-.273c.455-.348 2.075-1.302 3.15-1.847.454-.227 1.136-.59 1.514-.803a27.28 27.28 0 0 1 1.59-.742c.5-.197 1.03-.439 1.166-.515.5-.272 2.18-.787 2.923-.893 1.075-.152 1.196-.076.818.47Zm-11.07 7.617c-1.078.719-2.46.992-3.634 1.515-.212.075-.303 0-.44-.318a3.13 3.13 0 0 0-.393-.712c-.227-.242-.227-.288.106-.606.53-.485 2.786-2.226 2.907-2.226.204.103 1.454 2.147 1.454 2.347Z"/></svg><svg fill="currentColor" viewBox="0 0 32 32" id="competing" xmlns="http://www.w3.org/2000/svg"><path fill-rule="evenodd" d="m11.614 17.028 2.603.047c.344.003.62.284.617.628l-.047 2.603a.622.622 0 1 1-1.245-.01l.035-1.1L2.439 30.148a.623.623 0 0 1-.873-.887l11.138-10.953-1.1-.035a.623.623 0 1 1 .01-1.245Zm4.526 4.444h2.604c.344 0 .622.279.622.623v2.603a.623.623 0 1 1-1.245 0v-1.1l-6.547 6.547a.623.623 0 0 1-.88-.88l6.547-6.548h-1.1a.623.623 0 0 1 0-1.245ZM7.009 12.61h2.603c.344 0 .623.28.623.623v2.604a.623.623 0 1 1-1.246 0v-1.1l-6.547 6.546a.622.622 0 1 1-.88-.88l6.547-6.547h-1.1a.623.623 0 1 1 0-1.245ZM5.144 7.195h2.603c.344 0 .623.28.623.623v2.603a.623.623 0 1 1-1.245 0v-1.1l-4.687 4.36a.623.623 0 0 1-.88-.881l4.686-4.36h-1.1a.623.623 0 1 1 0-1.245Zm16.391 16.78h2.603c.344 0 .623.28.623.623V27.2a.623.623 0 0 1-1.245 0v-1.1l-4.66 4.432a.623.623 0 1 1-.88-.88l4.66-4.432h-1.1a.623.623 0 1 1 0-1.246ZM21.72 3.51a.623.623 0 0 1-.622-.623v-.98a.623.623 0 0 1 1.245 0v.98a.623.623 0 0 1-.623.622Zm4.724 1.956a.623.623 0 0 1 0-.88l.692-.693a.622.622 0 1 1 .88.88l-.692.693a.623.623 0 0 1-.88 0ZM28.4 10.19c0-.344.28-.623.623-.623h.98a.623.623 0 1 1 0 1.245h-.98a.623.623 0 0 1-.623-.623Zm-1.956 4.723a.623.623 0 0 1 .88 0l.693.692a.622.622 0 1 1-.88.88l-.693-.691a.623.623 0 0 1 0-.881Zm-4.724 4.181a.623.623 0 0 1-.622-.623v-.979a.623.623 0 0 1 1.245 0v.98a.623.623 0 0 1-.623.622Zm-6.296-2.608a.623.623 0 0 1 0-.88l.692-.693a.623.623 0 0 1 .88.88l-.692.693a.623.623 0 0 1-.88 0Zm-2.608-6.296c0-.344.278-.623.622-.623h.98a.623.623 0 1 1 0 1.245h-.98a.623.623 0 0 1-.623-.623Zm2.608-6.297a.623.623 0 0 1 .88 0l.693.692a.623.623 0 0 1-.881.88l-.692-.692a.622.622 0 0 1 0-.88Z" clip-rule="evenodd"/><path fill-rule="evenodd" d="M21.72 5.198a4.992 4.992 0 1 0 0 9.983 4.992 4.992 0 0 0 0-9.983Zm-6.237 4.992a6.237 6.237 0 1 1 12.474 0 6.237 6.237 0 0 1-12.474 0Z" clip-rule="evenodd"/><path fill-rule="evenodd" d="M20.758 7.148a1.096 1.096 0 0 1 1.924 0l.595 1.09 1.221.23a1.096 1.096 0 0 1 .595 1.83l-.854.902.16 1.232a1.096 1.096 0 0 1-1.556 1.131l-1.123-.532-1.122.532a1.096 1.096 0 0 1-1.557-1.13l.16-1.233-.854-.903a1.096 1.096 0 0 1 .595-1.83l1.221-.229.595-1.09Zm.962.836-.498.913a1.093 1.093 0 0 1-.76.552l-1.022.192.714.755c.226.24.333.568.29.894l-.133 1.031.94-.446c.296-.14.642-.14.94 0l.938.446-.133-1.03a1.096 1.096 0 0 1 .29-.895L24 9.641l-1.022-.192a1.096 1.096 0 0 1-.76-.552l-.498-.913Z" clip-rule="evenodd"/></svg><svg fill="currentColor" viewBox="0 0 32 32" id="decrease" xmlns="http://www.w3.org/2000/svg"><path d="M9.713 1.994c2.97 3.438 6.135 5.996 9.419 7.608.663.327.164 1.341-.507 1.021-3.034-1.49-5.976-3.755-8.75-6.733-.089-.097-.223.02-.175.13 1.215 2.027 2.63 3.811 4.212 5.31 2.696 2.557 5.84 4.242 9.35 5.02.304.07.489.367.435.668l-.112.582c-.014.082.078.17.157.115l2.776-1.56c.171-.096.21-.323.095-.486l-1.973-2.5c-.054-.07-.17-.04-.194.043l-.112.582a.578.578 0 0 1-.592.461c-.055-.005-1.407-.088-3.58-.949-.675-.264-.282-1.343.42-1.06 1.195.471 2.121.693 2.687.795.032.004.06-.014.063-.046l.285-1.445c.077-.475.726-.614 1.013-.243 0 0 3.333 4.205 3.532 4.477.2.272.154.684-.164.854l-4.965 2.798c-.408.25-.936-.152-.844-.602l.282-1.438c.001-.03-.009-.06-.04-.066-3.472-.877-6.601-2.61-9.295-5.162C11.098 8.235 9.35 5.898 7.94 3.21c-.492-1.122.922-2.185 1.772-1.215Zm19.714 26.459c.738 0 .745-1.14-.016-1.14h-.825a.327.327 0 0 1-.325-.325v-4.031c0-.613-.5-1.113-1.112-1.113h-2.903c-.613 0-1.113.5-1.113 1.113v4.031c0 .456-1.003.487-1.003 0v-1.801c0-.757-1.14-.742-1.14.016v1.785c0 .18-.146.326-.325.326h-2.198a.327.327 0 0 1-.326-.326v-6.646c0-.18.147-.326.326-.326h2.198c.179 0 .325.146.325.326v3.212c0 .757 1.14.741 1.14-.017V19.99c0-.613-.5-1.113-1.113-1.113h-2.903c-.613 0-1.112.5-1.112 1.113v7c0 .455-1.004.486-1.004 0v-9.97c0-.613-.499-1.113-1.112-1.113h-2.903c-.613 0-1.112.5-1.112 1.113v9.967c0 .487-1.004.456-1.004 0V14.053c0-.613-.5-1.113-1.113-1.113H5.852c-.614 0-1.113.5-1.113 1.113v4.162c0 .734 1.14.734 1.14 0v-3.81c0-.179.146-.325.325-.325h2.198c.179 0 .325.146.325.325v12.583c0 .18-.146.326-.325.326H6.204a.327.327 0 0 1-.325-.326v-7.146c0-.756-1.14-.741-1.14.017v7.124a.327.327 0 0 1-.325.325h-.825c-.76 0-.754 1.14-.016 1.14h25.854v.005Zm-14.91-11.405c.179 0 .325.146.325.326v9.614c0 .18-.146.326-.325.326h-2.198a.327.327 0 0 1-.325-.326v-9.614c0-.18.146-.326.325-.326h2.198Zm12.274 5.936c.178 0 .325.146.325.325v3.68a.326.326 0 0 1-.325.325h-2.198a.327.327 0 0 1-.326-.326V23.31c0-.18.147-.326.326-.326h2.198Z"/></svg><svg fill="currentColor" viewBox="0 0 32 32" id="email" xmlns="http://www.w3.org/2000/svg"><path d="M27.003 5H5.667a2.663 2.663 0 0 0-2.654 2.667L3 23.669c0 1.467 1.2 2.667 2.667 2.667h21.336c1.467 0 2.667-1.2 2.667-2.667V7.667C29.67 6.2 28.47 5 27.003 5Zm0 18.669H5.667V10.334l10.668 6.668 10.668-6.668v13.335Zm-10.668-9.335L5.667 7.668h21.336l-10.668 6.668Z"/></svg><svg fill="currentColor" viewBox="0 0 32 32" id="establishments" xmlns="http://www.w3.org/2000/svg"><path d="M8.208 20.325H6.27a.527.527 0 0 0-.527.527v1.938c0 .292.236.528.527.528h1.938a.527.527 0 0 0 .527-.528v-1.938a.527.527 0 0 0-.527-.527Zm-.527 1.938h-.883v-.883h.883v.883Zm4.823-1.938h-1.938a.527.527 0 0 0-.527.527v1.938c0 .292.236.528.527.528h1.938a.527.527 0 0 0 .527-.528v-1.938a.527.527 0 0 0-.527-.527Zm-.528 1.938h-.883v-.883h.883v.883Zm-3.768 2.132H6.27a.527.527 0 0 0-.527.527v1.938c0 .291.236.527.527.527h1.938a.527.527 0 0 0 .527-.527v-1.938a.527.527 0 0 0-.527-.527Zm-.527 1.938h-.883v-.884h.883v.884Zm4.823-1.938h-1.938a.527.527 0 0 0-.527.527v1.938c0 .291.236.527.527.527h1.938a.527.527 0 0 0 .527-.527v-1.938a.527.527 0 0 0-.527-.527Zm-.528 1.938h-.883v-.884h.883v.884Zm-1.833-10.36a.545.545 0 0 0-.528.528c0 .277.25.527.528.527.277 0 .527-.25.527-.527a.545.545 0 0 0-.527-.527Z"/><path d="M28.973 28.445h-.528V15.047a.527.527 0 0 0-.527-.527h-2.525V7.727a.527.527 0 0 0-.28-.466l-8.86-4.7a.532.532 0 0 0-.774.466v5.38h-5.336a.527.527 0 0 0-.528.527v5.47a.527.527 0 0 0 1.055 0V9.46h7.172v2.106h-1.835a.527.527 0 0 0 0 1.055h1.835v1.898h-1.835a.527.527 0 0 0 0 1.055h1.835v1.898h-1.835a.527.527 0 0 0 0 1.055h1.835v1.898h-1.835a.527.527 0 0 0 0 1.055h1.835v1.898h-1.835a.527.527 0 0 0 0 1.055h1.835v1.899h-1.835a.527.527 0 0 0 0 1.054h1.835v1.058h-2.686v-9.703a.527.527 0 0 0-.527-.527H4.082a.527.527 0 0 0-.527.527v9.703h-.528a.527.527 0 0 0 0 1.055h25.946a.527.527 0 0 0 0-1.055Zm-14.871 0H4.609V19.27h9.493v9.175Zm6.539-13.398v13.398h-1.744V8.934a.527.527 0 0 0-.528-.528h-1.835V3.904l7.805 4.14v6.476h-3.171a.527.527 0 0 0-.527.527Zm6.75 2.426h-2.848a.527.527 0 0 0 0 1.055h2.848v1.898h-2.848a.527.527 0 0 0 0 1.055h2.848v1.898h-2.848a.527.527 0 0 0 0 1.055h2.848v1.899h-1.6a.527.527 0 0 0 0 1.054h1.6v1.058h-5.696v-12.87h5.696v1.898Z"/><path d="M23.4 26.333a.546.546 0 0 0-.527.527c0 .279.249.527.527.527.28 0 .527-.248.528-.527a.544.544 0 0 0-.528-.527ZM20.64 8.459a.527.527 0 0 0-.527.527v.985a.527.527 0 0 0 1.055 0v-.985a.527.527 0 0 0-.527-.527Zm0 3.108a.527.527 0 0 0-.527.527v1.086a.527.527 0 1 0 1.055 0v-1.086a.527.527 0 0 0-.527-.527Zm2.11-3.108a.527.527 0 0 0-.527.527v.985a.527.527 0 0 0 1.054 0v-.985a.527.527 0 0 0-.527-.527Zm0 3.108a.527.527 0 0 0-.527.527v1.086a.527.527 0 1 0 1.054 0v-1.086a.527.527 0 0 0-.527-.527Z"/></svg><svg fill="currentColor" viewBox="0 0 32 32" id="holder" xmlns="http://www.w3.org/2000/svg"><path fill-rule="evenodd" clip-rule="evenodd" d="M6.426 6.828a7.057 7.057 0 0 1 4.697-1.783c.655 0 1.31.09 1.945.271a.522.522 0 1 0 .285-1.005 8.152 8.152 0 0 0-2.23-.31 8.101 8.101 0 0 0-5.39 2.046c-3.386 3.005-3.647 8.168-.663 11.496a2.27 2.27 0 0 0 1.992 3.668c-.046.497.07 1.006.353 1.442a.522.522 0 0 0 .877-.567 1.226 1.226 0 1 1 1.104.56.522.522 0 0 0-.491.551c.02.337.32.514.629.485-.06.65.158 1.32.655 1.818a2.266 2.266 0 0 0 1.91.644 1.916 1.916 0 0 0 3.062 1.507c.442.442.977.734 1.618.735a2.15 2.15 0 0 0 1.509-.625 2.128 2.128 0 0 0 .623-1.575 2.543 2.543 0 0 0 2.202-.704 2.51 2.51 0 0 0 .735-1.671 2.54 2.54 0 0 0 2.66-.58 2.519 2.519 0 0 0 .633-2.506 2.51 2.51 0 0 0 1.81-.775 2.492 2.492 0 0 0 .667-2.079l.003-.002A8.125 8.125 0 0 0 16.5 6.033a8.103 8.103 0 0 0-1.353-.968.522.522 0 1 0-.518.907c.392.223.767.487 1.118.79l-3.352 3.352c-.927.925-.927 2.474 0 3.4.938.938 2.46.938 3.398 0l3.366-3.367 6.987 6.988c.583.582.601 1.518.05 2.092a1.473 1.473 0 0 1-2.107.021l-2.23-2.23a.522.522 0 0 0-.739.74l2.23 2.23h.001c.687.687 1.281 1.64.418 2.504a1.487 1.487 0 0 1-2.086 0l-.57-.571-.002-.002-5.615-5.615a.522.522 0 0 0-.738.739l5.615 5.615.001.001c.575.576.574 1.51-.001 2.085a1.489 1.489 0 0 1-2.086 0L12.1 18.557a.522.522 0 0 0-.738.738l6.187 6.188c.213.212.319.49.319.77 0 .596-.497 1.089-1.089 1.088-.423 0-.7-.25-.979-.528a1.917 1.917 0 0 0-1.757-2.613 2.267 2.267 0 0 0-.644-1.91 2.266 2.266 0 0 0-1.817-.656 2.265 2.265 0 0 0-.655-1.816 2.265 2.265 0 0 0-1.816-.655 2.27 2.27 0 0 0-3.22-2.27 7.08 7.08 0 0 1 .535-10.065ZM18.79 9.04a.522.522 0 0 1 .738 0 3.418 3.418 0 0 0 4.834 0 .522.522 0 0 1 .739.739c-.97.97-2.276 1.4-3.544 1.29l5.328 5.328c.12.12.227.251.32.389A7.08 7.08 0 0 0 16.877 7.11c-1.218 1.275-2.497 2.497-3.744 3.743a1.377 1.377 0 0 0 0 1.922c.53.53 1.391.53 1.921 0l3.736-3.736ZM7.717 18.085a1.225 1.225 0 1 0-1.733 1.733 1.225 1.225 0 0 0 1.733-1.733Zm4.943 4.943a1.226 1.226 0 1 0-1.733 1.734 1.226 1.226 0 0 0 1.733-1.734Zm.74 2.472a.871.871 0 1 0 1.232 1.232A.871.871 0 0 0 13.4 25.5Z"/><path fill-rule="evenodd" clip-rule="evenodd" d="M17.874 13.033a.522.522 0 1 0-.738.739l2.693 2.693a.522.522 0 1 0 .738-.739l-2.693-2.693Z"/></svg><svg fill="currentColor" viewBox="0 0 32 32" id="icons" xmlns="http://www.w3.org/2000/svg"><path d="M23.438 24.905H6.095c-.737 0-.737 1.143 0 1.143h17.343c.736 0 .737-1.143 0-1.143Z"/><path fill-rule="evenodd" clip-rule="evenodd" d="M18.286 8.703C23.817 9.82 27.5 14.775 27.5 20.31c2.343 0 2.373 3.619.024 3.619H4.476c-2.349 0-2.319-3.62.024-3.62 0-5.534 3.683-10.49 9.214-11.606 0-3.508 4.572-3.508 4.572 0Zm-3.429-.274h2.286c0-1.704-2.286-1.704-2.286 0Zm11.5 11.88H5.643c0-5.764 4.45-10.69 10.357-10.69 5.906 0 10.357 4.926 10.357 10.69Z"/><path d="M15.355 11.884c.709-.058.602-1.197-.099-1.138-.704.059-.6 1.196.1 1.138Zm-1.695-.242a.545.545 0 0 0-.708-.392 8.949 8.949 0 0 0-4.53 3.65.544.544 0 0 0 .214.765.605.605 0 0 0 .793-.218 7.81 7.81 0 0 1 3.843-3.097.606.606 0 0 0 .388-.708Zm12.816 13.834c0 .77-1.328.768-1.324-.002.004-.766 1.324-.764 1.324.002Z"/></svg><svg fill="currentColor" viewBox="0 0 32 32" id="images" xmlns="http://www.w3.org/2000/svg"><path fill-rule="evenodd" clip-rule="evenodd" d="M4.68 16.99a2.656 2.656 0 1 0 5.313 0 2.656 2.656 0 0 0-5.312 0Z"/><path fill-rule="evenodd" clip-rule="evenodd" d="M29.438 19.115c0 .99-.803 1.792-1.792 1.792h-1.75v1.856c0 .99-.803 1.792-1.792 1.792h-1.751v1.29c0 .989-.802 1.791-1.792 1.791H4.354a1.79 1.79 0 0 1-1.791-1.792v-12.96c0-.989.802-1.79 1.791-1.79h1.75v-1.29c0-.99.803-1.792 1.793-1.792h1.75V6.155c0-.989.802-1.791 1.792-1.791h16.207c.99 0 1.791.802 1.791 1.792v12.96Zm-18.54-12.96a.54.54 0 0 1 .54-.541h16.208a.54.54 0 0 1 .541.542v12.96a.54.54 0 0 1-.541.54h-1.75V9.804c0-.99-.803-1.791-1.792-1.791H10.897V6.155ZM7.354 9.803a.54.54 0 0 1 .542-.541h16.207a.54.54 0 0 1 .541.541v12.96a.54.54 0 0 1-.541.542h-1.751v-.785a.625.625 0 1 0-1.25 0v3.324c0 .394-.283.562-.674.542.16-.5.106-1.072-.24-1.568l-3.695-5.288a1.792 1.792 0 0 0-2.937 0l-1.871 2.677-.257-.367a1.792 1.792 0 0 0-2.937 0l-3.176 4.546h-.962a.542.542 0 0 1-.541-.542v-12.96a.54.54 0 0 1 .541-.54H20.56c.3 0 .542.242.542.54v7.533a.625.625 0 1 0 1.25 0v-7.532c0-.99-.802-1.792-1.792-1.792H7.355v-1.29Z"/></svg><svg fill="currentColor" viewBox="0 0 32 32" id="increase" xmlns="http://www.w3.org/2000/svg"><path d="M3.573 28.453c-.738 0-.745-1.14.016-1.14h.825a.327.327 0 0 0 .325-.325v-4.031c0-.613.5-1.113 1.113-1.113h2.902c.614 0 1.113.5 1.113 1.113v4.031c0 .456 1.004.487 1.004 0v-1.801c0-.757 1.139-.742 1.139.016v1.785c0 .18.146.326.326.326h2.197c.18 0 .326-.147.326-.326v-6.647a.327.327 0 0 0-.326-.325h-2.197a.327.327 0 0 0-.326.325v3.213c0 .756-1.14.741-1.14-.017V19.99c0-.613.5-1.113 1.113-1.113h2.903c.613 0 1.112.5 1.112 1.113v7c0 .455 1.004.486 1.004 0v-9.97c0-.613.5-1.113 1.112-1.113h2.903c.613 0 1.113.5 1.113 1.113v9.967c0 .487 1.003.456 1.003 0V14.053c0-.613.5-1.113 1.113-1.113h2.902c.614 0 1.113.5 1.113 1.113v4.162c0 .734-1.14.734-1.14 0v-3.81a.327.327 0 0 0-.325-.325h-2.198a.327.327 0 0 0-.325.325v12.583c0 .18.146.326.325.326h2.198a.326.326 0 0 0 .325-.326v-7.146c0-.756 1.14-.741 1.14.017v7.124c0 .179.146.325.325.325h.825c.761 0 .754 1.14.016 1.14H3.573v.005Zm14.91-11.405a.326.326 0 0 0-.325.325v9.615c0 .18.146.326.325.326h2.198a.326.326 0 0 0 .325-.326v-9.615a.326.326 0 0 0-.325-.325h-2.198ZM6.21 22.984a.327.327 0 0 0-.326.325v3.68c0 .178.147.325.326.325h2.197c.18 0 .326-.147.326-.326V23.31a.327.327 0 0 0-.326-.326H6.21Zm.45-7.797c4.34-1.34 7.954-3.212 10.749-5.573.565-.476 1.294.388.732.874-2.582 2.181-5.838 3.966-9.68 5.312-.124.041-.07.212.05.212 2.343-.299 4.546-.88 6.554-1.726 3.424-1.443 6.229-3.646 8.35-6.55.186-.25.533-.3.787-.13l.489.337c.069.046.187-.003.168-.098l-.315-3.168c-.019-.196-.212-.322-.407-.283l-3.082.803c-.086.022-.104.141-.038.196l.489.336a.578.578 0 0 1 .184.727c-.027.05-.646 1.254-2.306 2.898-.513.513-1.344-.28-.803-.809.912-.906 1.487-1.665 1.807-2.143.016-.027.01-.06-.017-.076l-1.21-.84c-.404-.262-.27-.913.185-1.026l5.518-1.438c.33-.073.689.134.716.493l.57 5.67c.066.475-.514.797-.89.532l-1.204-.835c-.027-.014-.058-.017-.076.01-2.198 2.828-5.041 4.998-8.46 6.441-2.588 1.09-5.43 1.753-8.458 1.964-1.225 0-1.631-1.721-.402-2.11Z"/></svg><svg fill="currentColor" viewBox="0 0 32 32" id="language" xmlns="http://www.w3.org/2000/svg"><path d="M26.017 7.232C23.567 4.44 19.977 2.667 16 2.667 8.677 2.667 2.667 8.677 2.667 16S8.677 29.333 16 29.333c2.35 0 4.635-.662 6.652-1.835a.685.685 0 0 1 .546-.065l4.974 1.54a.667.667 0 0 0 .84-.813l-1.438-5.244a.684.684 0 0 1 .064-.511c1.08-1.955 1.695-4.156 1.695-6.405 0-2.441-.667-4.736-1.829-6.711-.493-.839-1.705.009-1.239.82A11.78 11.78 0 0 1 27.834 16c0 6.535-5.298 11.833-11.833 11.833S4.167 22.535 4.167 16 9.465 4.167 16 4.167c3.521 0 6.684 1.538 8.851 3.979.623.7 1.805-.185 1.166-.914Z"/><path d="M7.57 20.67c-.497 0-.815.523-.548.941a10.573 10.573 0 0 0 3.533 3.412c.528.312 1.09-.27.881-.847a19.87 19.87 0 0 1-.8-2.952.68.68 0 0 0-.663-.553H7.57Zm-.549-10.28c-.267.418.05.94.547.94h2.404a.68.68 0 0 0 .664-.553 19.81 19.81 0 0 1 .8-2.952c.208-.576-.354-1.159-.882-.847a10.572 10.572 0 0 0-3.533 3.412ZM16 5.5h.001c-.966.031-2.207 1.894-2.921 5.043a.648.648 0 0 0 .64.787h4.614c.417 0 .732-.38.64-.787-.71-3.125-2.01-4.986-2.974-5.043Zm0 21c.963-.057 2.265-1.918 2.974-5.043a.648.648 0 0 0-.64-.787H13.72a.648.648 0 0 0-.64.787c.714 3.15 1.954 5.012 2.92 5.043Zm-5.807-12.113a.68.68 0 0 0-.674-.722H6.15a.644.644 0 0 0-.64.52 9.868 9.868 0 0 0 0 3.63c.057.306.329.52.64.52h3.37a.68.68 0 0 0 .674-.722 28.491 28.491 0 0 1 0-3.226Zm11.37-7.259c-.523-.332-1.102.245-.897.829.306.87.557 1.822.751 2.82a.68.68 0 0 0 .664.553h2.183c.497 0 .815-.523.548-.942a10.62 10.62 0 0 0-3.25-3.26Zm.298 10.485a.68.68 0 0 0 .673.722h3.151c.31 0 .582-.214.64-.519a9.863 9.863 0 0 0 0-3.632.644.644 0 0 0-.64-.52h-3.15a.68.68 0 0 0-.674.723c.06 1.075.06 2.151 0 3.226Zm-8.651-3.948a.655.655 0 0 0-.658.611 27.933 27.933 0 0 0 0 3.448.655.655 0 0 0 .658.611h5.634a.655.655 0 0 0 .658-.611c.07-1.148.07-2.3 0-3.448a.655.655 0 0 0-.658-.611H13.21Zm7.456 10.378c-.205.584.374 1.161.896.829a10.62 10.62 0 0 0 3.25-3.26c.267-.42-.051-.941-.548-.941h-2.183a.68.68 0 0 0-.664.553 20.154 20.154 0 0 1-.75 2.82Z"/></svg><svg fill="currentColor" viewBox="0 0 32 32" id="low-contacts" xmlns="http://www.w3.org/2000/svg"><path d="m10.635 19.687-2.512 1.51-.01.006a1.86 1.86 0 0 0-.21 3.005 1.86 1.86 0 0 0 1.72 2.973c.043.204.123.403.239.59.597.957 1.695 1.03 2.619.566a1.757 1.757 0 0 0 2.586.903l5.345-3.332c2.053-1.28 3.644-2.802 5.194-4.63.178-.21.36-.425.55-.646a1.697 1.697 0 0 0 1.468-.13l1.837-1.092a1.7 1.7 0 0 0 .593-2.33l-2.277-3.83a.7.7 0 0 0-1.203.715l2.276 3.83a.3.3 0 0 1-.104.412l-1.838 1.092a.3.3 0 0 1-.41-.104l-4.014-6.751a.3.3 0 0 1 .105-.412l1.838-1.092a.3.3 0 0 1 .41.105l.397.666a.7.7 0 0 0 1.203-.716l-.396-.665a1.7 1.7 0 0 0-2.33-.593l-1.837 1.092a1.7 1.7 0 0 0-.593 2.33l3.864 6.501c-.218.254-.425.498-.624.732v.001h-.002c-1.305 1.538-2.672 2.61-4.2 3.81-.229.18-.461.361-.697.549l-5.296 3.3a.357.357 0 0 1-.378-.606c.535-.334 1.067-.67 1.6-1.005.639-.403 1.278-.806 1.921-1.205a.7.7 0 1 0-.738-1.19l-5.048 3.131a.46.46 0 0 1-.63-.142c-.136-.254-.056-.47.161-.645l1.5-.937 3.741-2.334a.7.7 0 1 0-.74-1.188l-6.09 3.796a.46.46 0 1 1-.485-.78l5.296-3.302a.7.7 0 1 0-.74-1.188L9.34 23.17a.46.46 0 0 1-.49-.778l2.506-1.507a.7.7 0 1 0-.721-1.2Z"/><path fill-rule="evenodd" d="M16.24 2.494a4.017 4.017 0 1 0 0 8.034 4.017 4.017 0 0 0 0-8.034Zm0 1.4a2.617 2.617 0 0 0-2.203 4.029l3.616-3.616a2.604 2.604 0 0 0-1.412-.413Zm2.348 1.458-3.506 3.506a2.617 2.617 0 0 0 3.506-3.506Z" clip-rule="evenodd"/><path d="M8.354 9.598a1.7 1.7 0 0 0-2.335.574l-2.326 3.844a.7.7 0 0 0 1.197.724l2.327-3.843a.3.3 0 0 1 .412-.101l1.829 1.107a.3.3 0 0 1 .101.412l-4.066 6.719a.3.3 0 0 1-.412.1l-1.829-1.106a.3.3 0 0 1-.101-.412l.38-.65a.695.695 0 0 0-1.193-.71l-.385.635a1.7 1.7 0 0 0 .574 2.335l1.829 1.107a1.7 1.7 0 0 0 2.335-.574l3.807-6.292c.91.332 1.838.315 2.613.302h.014c1.075-.02 1.847-.018 2.5.415a598.97 598.97 0 0 1 5.022 3.418 1.163 1.163 0 0 1-.366.339.595.595 0 0 1-.566.017c-1.088-.501-2.524-1.512-3.113-1.963a.716.716 0 0 0-1.039.218c-.293.534-.858 1.167-1.682 1.473-.796.296-1.94.326-3.499-.522a.7.7 0 0 0-.669 1.23c1.85 1.006 3.416 1.065 4.655.605a4.592 4.592 0 0 0 1.982-1.453c.743.528 1.847 1.254 2.779 1.684.68.313 1.347.218 1.894-.113.542-.327.965-.884 1.189-1.505a.7.7 0 0 0-.263-.815 673.207 673.207 0 0 0-5.55-3.78c-.986-.653-2.156-.668-3.224-.65-.838.015-1.538.02-2.172-.205 0-.575-.292-1.137-.82-1.457l-1.83-1.107Z"/></svg><svg fill="currentColor" viewBox="0 0 32 32" id="menu" xmlns="http://www.w3.org/2000/svg"><path fill-rule="evenodd" clip-rule="evenodd" d="m3.06 29.013-.445-1.778a.516.516 0 0 1 .496-.635.444.444 0 0 0 .435-.406 9.406 9.406 0 0 1 7.4-8.275c.058-.012.098-.067.098-.141 0-.49.195-.958.54-1.304a1.865 1.865 0 0 1 2.61 0c.345.346.54.815.54 1.304 0 .074.04.129.098.141a9.406 9.406 0 0 1 7.4 8.275c.022.229.21.406.435.406.327 0 .575.318.495.635l-.444 1.778a.523.523 0 0 1-.496.387H3.556a.523.523 0 0 1-.496-.387Zm15.587-7.975a8.38 8.38 0 0 0-5.758-2.305 8.38 8.38 0 0 0-8.311 7.416.41.41 0 0 0 .416.451h15.79a.41.41 0 0 0 .416-.451 8.381 8.381 0 0 0-2.553-5.111Z"/><path fill-rule="evenodd" clip-rule="evenodd" d="M27.032 2.606a.516.516 0 0 1 .59.505V4.39c0 .24.194.433.434.433h.833c.271 0 .511.24.511.511V28.89a.511.511 0 0 1-.511.511H24a.511.511 0 1 1 0-1.022h3.945a.433.433 0 0 0 .433-.434V6.278a.433.433 0 0 0-.433-.434H13.833a.433.433 0 0 0-.433.434v8.389a.511.511 0 0 1-1.022 0V5.333a.528.528 0 0 1 .436-.505l14.218-2.222Zm-16.697 18.42a6.613 6.613 0 0 0-2.93 2.412.535.535 0 0 1-.709.175.491.491 0 0 1-.173-.694 7.634 7.634 0 0 1 7.834-3.289.491.491 0 0 1 .374.611.535.535 0 0 1-.62.383 6.614 6.614 0 0 0-3.776.402Zm-4.67 3.647a.494.494 0 0 1 .657-.29c.26.106.383.4.297.661a.532.532 0 0 1-.631.354c-.348-.09-.423-.426-.323-.725Z"/><path fill-rule="evenodd" clip-rule="evenodd" d="M26.348 9.618c.01-1.256-1.053-2.32-2.309-2.309-.999.009-1.6.672-2.254 1.327a2.31 2.31 0 0 0-.49 2.51c.185.435-.314.991-.713.593l-.646-.647c-.144-.144-.167-.374-.082-.575a2.31 2.31 0 0 0-.49-2.51l-.942-.943c-.466-.466-1.189.257-.723.723l.943.943c.723.728.4 1.465-.15.916l-1.327-1.327c-.466-.466-1.189.257-.723.723l1.328 1.328c.55.55-.194.776-.92.15l-.942-.942c-.466-.466-1.19.257-.723.723l.943.943a2.31 2.31 0 0 0 2.51.49c.2-.086.431-.063.575.08l.647.648a.433.433 0 0 1 0 .612l-3.418 3.418c-.466.466.257 1.189.723.723l3.418-3.418a.43.43 0 0 1 .612 0l3.418 3.418c.466.466 1.189-.257.723-.723l-3.418-3.418c-.398-.398.158-.897.593-.713a2.312 2.312 0 0 0 2.51-.489c.655-.655 1.318-1.255 1.327-2.254ZM20 18.6h4.889c.66 0 .66 1.022 0 1.022H20c-.66 0-.66-1.022 0-1.022Zm1.778 1.778h3.11c.66 0 .66 1.022 0 1.022h-3.11c-.66 0-.66-1.022 0-1.022Zm1.333 1.778h1.778c.66 0 .66 1.022 0 1.022H23.11c-.659 0-.659-1.022 0-1.022ZM11.622 6.666v7.112a.511.511 0 0 1-1.022 0V6.667a.511.511 0 0 1 1.022 0Zm15.045 16.512a.511.511 0 1 1 0-1.022.511.511 0 0 1 0 1.022Zm0-1.778a.511.511 0 1 1 0-1.022.511.511 0 0 1 0 1.022Zm.51-2.289a.511.511 0 1 1-1.021 0 .511.511 0 0 1 1.022 0Z"/></svg><svg fill="currentColor" viewBox="0 0 32 32" id="phone" xmlns="http://www.w3.org/2000/svg"><path d="M8.364 14.542a22.446 22.446 0 0 0 9.764 9.764l3.26-3.26c.4-.4.992-.533 1.51-.355 1.66.548 3.453.845 5.29.845.815 0 1.482.666 1.482 1.481v5.171c0 .815-.667 1.482-1.482 1.482C14.276 29.67 3 18.394 3 4.482 3 3.667 3.667 3 4.482 3h5.186c.814 0 1.481.667 1.481 1.482 0 1.852.296 3.63.845 5.29a1.487 1.487 0 0 1-.37 1.51l-3.26 3.26Z"/></svg><svg fill="currentColor" viewBox="0 0 32 32" id="support" xmlns="http://www.w3.org/2000/svg"><path d="M21.93 23.883a.528.528 0 1 0 0 1.055.528.528 0 0 0 0-1.055Z"/><path d="m23.228 22.177-2.506-.835-.9-1.8a5.775 5.775 0 0 0 1.563-3.055l.112-.672h.96c.872 0 1.582-.71 1.582-1.583V10.91c0-4.362-3.548-7.91-7.91-7.91a7.905 7.905 0 0 0-7.91 7.91v3.322c0 .688.44 1.274 1.054 1.492v.618c0 .872.71 1.582 1.582 1.582h.464c.275.6.652 1.15 1.116 1.62l-.899 1.798-2.506.836C6.115 23.149 4 26.218 4 29.473c0 .29.236.527.527.527H27.73a.527.527 0 0 0 .528-.527c0-3.256-2.115-6.324-5.03-7.296Zm-.244-7.945a.528.528 0 0 1-.527.528h-.805c.142-1.102.227-2.212.262-3.322h1.07v2.794Zm-13.183.528a.528.528 0 0 1-.528-.528v-2.794h1.07c.036 1.11.12 2.22.263 3.322H9.8Zm.527 1.055h.432c.06.351.107.707.19 1.054-.63 0-.622-.551-.622-1.054Zm.001-5.432H9.293a6.851 6.851 0 0 1 6.836-6.328c3.603 0 6.565 2.793 6.835 6.328H21.93c-.038-2.913-2.41-5.274-5.328-5.274h-.944c-2.918 0-5.29 2.361-5.328 5.274Zm5.328-4.219h.944c2.639 0 4.323 2.257 4.27 4.735v.005c-2.047-.292-3.929-.981-5.424-2.476a.527.527 0 0 0-.373-.155 4.771 4.771 0 0 0-3.668 1.736c.221-2.147 2.036-3.845 4.25-3.845ZM12.044 16.87c-.264-.878-.566-3.462-.633-5.118.903-1.203 1.813-2.323 3.455-2.417 1.674 1.593 3.735 2.311 5.973 2.631-.07 1.463-.255 2.906-.494 4.349-.28 1.675-1.53 3.19-3.18 3.602a4.29 4.29 0 0 1-2.072 0c-1.03-.258-1.976-.97-2.585-1.992h1.075a1.584 1.584 0 0 0 1.491 1.055h1.055a1.582 1.582 0 1 0 0-3.164h-1.055c-.703 0-1.28.453-1.492 1.054h-1.538Zm2.986 4.114c.644.136 1.31.151 1.961.044l-.931.986-1.03-1.03Zm.305 1.797-1.673 1.768a20.097 20.097 0 0 1-1.18-2.737l.627-1.257 2.226 2.226Zm3.724-2.404.717 1.434c-.325.941-.72 1.857-1.18 2.74l-1.79-1.791 2.253-2.383Zm-4.512-2.98c0-.29.236-.527.527-.527h1.055a.528.528 0 0 1 0 1.055h-1.055a.528.528 0 0 1-.527-.527Zm-9.471 11.55c.209-2.613 1.947-4.988 4.287-5.768l2.22-.74c.865 2.393 2.264 4.37 3.596 6.507H5.076Zm11.053-.47c-.622-1-1.328-1.952-1.93-2.962l1.882-1.988 1.981 1.981c-.603 1.015-1.308 1.966-1.933 2.968Zm.95.47c1.324-2.127 2.734-4.123 3.596-6.508l2.22.74c2.34.78 4.078 3.155 4.287 5.767H17.079Z"/><path d="M25.597 26.811A5.274 5.274 0 0 0 24.104 25a.527.527 0 1 0-.643.836c.499.383.911.884 1.193 1.447a.527.527 0 1 0 .943-.47Z"/></svg><svg fill="currentColor" viewBox="0 0 32 32" id="telegram" xmlns="http://www.w3.org/2000/svg"><path d="M28.134 5.043c-.133.04-.267.08-.4.134-7.978 3.125-15.942 6.263-23.906 9.4-.45.171-.846.446-.827.984.018.521.427.774.88.888 1.881.566 3.762 1.118 5.643 1.67a.549.549 0 0 1 .414.418c.707 2.29 1.427 4.579 2.134 6.855.347 1.104 1.214 1.32 2.015.498a281.84 281.84 0 0 0 2.788-2.882c.2-.216.32-.202.547-.04 1.934 1.44 3.869 2.868 5.803 4.309 1.04.768 2.054.377 2.308-.889 1.375-6.658 2.748-13.316 4.136-19.972.04-.97-.72-1.589-1.535-1.373ZM24.84 9.608c-3.725 3.28-7.408 6.61-11.112 9.912-.24.215-.347.458-.387.781-.12 1.131-.24 2.263-.374 3.394-.057.349-.21.442-.347.027-.578-1.878-1.248-3.75-1.72-5.657-.014-.404.186-.579.44-.727 4.32-2.712 8.597-5.376 12.9-8.08.42-.283 1.143-.098.6.35Z"/></svg><svg fill="currentColor" viewBox="0 0 32 32" id="theme" xmlns="http://www.w3.org/2000/svg"><path fill-rule="evenodd" clip-rule="evenodd" d="M27.178 3.862A5.644 5.644 0 0 1 28.5 7.5c0 5.225-.03 15.913-.03 15.913a5.667 5.667 0 0 1-5.637 5.087H7.5a5.644 5.644 0 0 1-3.638-1.322.468.468 0 0 1-.015-.691l22.64-22.64a.468.468 0 0 1 .69.015Zm-7.796 11.537c-.302-.367-.095-.97.37-.867 7.385 1.628 3.924 12.984-3.228 9.924-.279-.12-.195-.516.098-.594 3.499-.93 5.091-5.641 2.76-8.463Z"/><path d="M6.833 9.833a3 3 0 1 1 6 0 3 3 0 0 1-6 0ZM9.333 4c0-.645 1-.645 1 0v1.667c0 .645-1 .645-1 0V4Zm0 10c0-.645 1-.645 1 0v1.667c0 .644-1 .644-1 0V14Zm6.334-4.667c.644 0 .644 1 0 1H14c-.645 0-.645-1 0-1h1.667Zm-10 0c.645 0 .645 1 0 1H4c-.645 0-.645-1 0-1h1.667Zm7.937-3.978c.457-.456 1.164.251.708.707l-1.179 1.179c-.456.456-1.163-.252-.707-.707l1.178-1.179Zm-7.071 7.071c.456-.456 1.164.251.708.707l-1.179 1.179c-.456.456-1.163-.252-.707-.707l1.178-1.179Zm7.779 1.178c.456.457-.252 1.164-.707.708l-1.179-1.179c-.456-.456.251-1.163.707-.707l1.179 1.178ZM7.24 6.533c.457.456-.25 1.164-.707.708L5.355 6.062c-.456-.456.251-1.163.707-.707l1.179 1.178Z"/></svg><svg fill="currentColor" viewBox="0 0 32 32" id="time" xmlns="http://www.w3.org/2000/svg"><path d="m27.584 10.862.407-.406c.292.293.793.305 1.086.012l.628-.629a.766.766 0 0 0 0-1.073l-1.648-1.648a.799.799 0 0 0-1.073 0l-.628.628a.766.766 0 0 0-.165.828.847.847 0 0 0 .177.258l-.43.43a10.504 10.504 0 0 0-5.065-2.146v-1.25h.813a.925.925 0 0 0 .916-.915V3.915A.925.925 0 0 0 21.686 3h-4.492a.925.925 0 0 0-.915.915v1.036c0 .498.416.915.915.915h.814v1.25a10.5 10.5 0 0 0-1.65.357.497.497 0 0 0-.32.602.497.497 0 0 0 .602.321 9.594 9.594 0 1 1-3.982 15.96.487.487 0 0 0-.689-.006.487.487 0 0 0 .006.688 10.554 10.554 0 0 0 15.61-14.176Zm-.064-2.915 1.357 1.356-.337.337-1.357-1.357.337-.336Zm-.47 1.568.258.258-.373.373a8.947 8.947 0 0 0-.263-.253l.378-.378ZM17.244 4.9v-.936h4.392V4.9h-4.392Zm1.729 2.132V5.866h.935v1.162a10.27 10.27 0 0 0-.935.005Z"/><path d="M25.71 23.806a8.828 8.828 0 0 0 2.577-6.233c0-2.337-.964-4.615-2.613-6.27.013.012-.013-.014 0 0a8.817 8.817 0 0 0-6.234-2.577 8.87 8.87 0 0 0-1.584.142.487.487 0 0 0-.393.561c.047.26.305.438.565.389.308-.053.618-.088.93-.105v.755c0 .256.226.483.482.483a.497.497 0 0 0 .483-.483v-.752a7.838 7.838 0 0 1 4.73 1.962l-.53.53a.488.488 0 0 0-.006.689.488.488 0 0 0 .688-.006l.53-.53a7.837 7.837 0 0 1 1.962 4.73h-.752a.497.497 0 0 0-.483.482c0 .256.227.483.483.483h.752a7.837 7.837 0 0 1-1.961 4.73l-.53-.531a.497.497 0 0 0-.684 0 .497.497 0 0 0 0 .683l.531.53a7.838 7.838 0 0 1-4.73 1.962v-.752a.497.497 0 0 0-.483-.483.497.497 0 0 0-.483.483v.757a7.788 7.788 0 0 1-4.405-1.678.488.488 0 0 0-.689.07.488.488 0 0 0 .091.687 8.838 8.838 0 0 0 5.986 1.891c2.16-.123 4.238-1.073 5.77-2.6-.012.015.015-.012 0 0Z"/><path d="M23.56 13.453a.497.497 0 0 0-.683 0l-2.705 2.706a1.605 1.605 0 0 0-1.62.084c-.816.545-.945 1.759-.243 2.46.702.703 1.915.575 2.46-.241a1.604 1.604 0 0 0 .085-1.62l2.706-2.706a.488.488 0 0 0 0-.683Zm-4.647 4.473a.64.64 0 0 1 .124-.843.64.64 0 0 1 .85.042.64.64 0 0 1-.095.975.64.64 0 0 1-.88-.174Zm-5.01-8.234h-3.046a.497.497 0 0 1-.483-.483c0-.256.226-.483.482-.483h3.048c.256 0 .482.227.482.483a.497.497 0 0 1-.482.483Zm-4.605 0H8.32a.497.497 0 0 1-.482-.483c0-.256.226-.483.482-.483h.977c.256 0 .483.227.483.483a.497.497 0 0 1-.483.483Zm6.094 3.178H7.321a.497.497 0 0 1-.483-.483c0-.256.227-.483.483-.483h8.071c.257 0 .483.227.483.483a.497.497 0 0 1-.483.483Zm-3.475 3.178H3.483A.497.497 0 0 1 3 15.565c0-.256.227-.482.483-.482h8.434c.256 0 .483.226.483.482a.497.497 0 0 1-.483.483Zm2.498 0h-.907a.497.497 0 0 1-.483-.483c0-.256.227-.482.483-.482h.907c.257 0 .483.226.483.482a.497.497 0 0 1-.483.483Zm1.862 3.178H9.123a.497.497 0 0 1-.483-.483c0-.256.227-.482.483-.482h7.154c.256 0 .482.226.482.482a.497.497 0 0 1-.482.483Zm-9.189 3.178h-.861a.497.497 0 0 1-.483-.482c0-.257.227-.483.483-.483h.86c.257 0 .483.226.483.483a.496.496 0 0 1-.482.482Zm7.327 0H8.624a.497.497 0 0 1-.483-.482c0-.257.227-.483.483-.483h5.791c.257 0 .483.226.483.483a.497.497 0 0 1-.483.482Z"/></svg><svg fill="currentColor" viewBox="0 0 32 32" id="tools" xmlns="http://www.w3.org/2000/svg"><path fill-rule="evenodd" clip-rule="evenodd" d="M5.394 6.865c0 .317.257.574.574.574H19.05a.575.575 0 0 0 0-1.149H5.968a.574.574 0 0 0-.574.575Zm19.237.001a1.369 1.369 0 1 0 2.738 0 1.369 1.369 0 0 0-2.738 0Zm1.37.534a.533.533 0 1 1 0-1.067.533.533 0 0 1 0 1.067Zm-5.184-.534a1.369 1.369 0 1 0 2.738 0 1.369 1.369 0 0 0-2.738 0Zm1.369.534a.533.533 0 1 1 0-1.067.533.533 0 0 1 0 1.067Zm-9.941 5.705a5.41 5.41 0 0 1 1.496.62c.186.113.291.34.256.555-.062.374.032.661.206.836.176.175.463.268.837.207a.554.554 0 0 1 .555.256c.28.464.49.969.62 1.496a.554.554 0 0 1-.21.573c-.31.221-.447.49-.447.738s.137.516.446.738a.554.554 0 0 1 .211.573 5.41 5.41 0 0 1-.62 1.496.554.554 0 0 1-.555.255c-.375-.061-.66.032-.836.207-.175.175-.269.462-.207.837a.554.554 0 0 1-.255.555c-.466.28-.97.49-1.498.62a.554.554 0 0 1-.572-.211c-.221-.31-.49-.446-.738-.446s-.517.137-.738.446a.554.554 0 0 1-.573.21 5.41 5.41 0 0 1-1.497-.62.554.554 0 0 1-.255-.554c.062-.375-.031-.661-.207-.836-.175-.175-.461-.27-.836-.207a.554.554 0 0 1-.555-.256c-.28-.465-.49-.97-.62-1.497a.554.554 0 0 1 .211-.573c.309-.22.446-.49.446-.737 0-.248-.137-.517-.446-.738a.555.555 0 0 1-.21-.573c.13-.527.339-1.031.62-1.496a.554.554 0 0 1 .554-.256c.375.061.661-.032.836-.207.176-.175.269-.462.207-.836a.554.554 0 0 1 .256-.555c.465-.28.969-.49 1.496-.62a.554.554 0 0 1 .573.211c.222.308.49.446.738.446s.517-.138.738-.446a.554.554 0 0 1 .573-.211Zm.056 1.148c-.358.357-.827.597-1.367.597s-1.01-.24-1.367-.598a4.32 4.32 0 0 0-.59.245c.001.506-.162 1.007-.543 1.388-.382.382-.883.545-1.389.544-.095.19-.177.387-.244.59.358.358.597.827.597 1.367s-.239 1.009-.597 1.366c.067.204.15.401.244.59.506 0 1.007.163 1.389.544.381.381.544.882.544 1.388.188.096.386.177.59.245.357-.358.826-.597 1.366-.597.54 0 1.01.239 1.367.597.202-.067.4-.149.59-.245-.001-.506.162-1.006.544-1.388.38-.381.882-.544 1.387-.544a4.3 4.3 0 0 0 .245-.59c-.358-.357-.597-.827-.597-1.366 0-.54.24-1.01.597-1.367a4.323 4.323 0 0 0-.245-.59c-.505 0-1.006-.162-1.388-.544-.381-.381-.544-.882-.544-1.388a4.333 4.333 0 0 0-.59-.244Zm-1.367 1.957c1.185 0 2.176.99 2.176 2.176 0 1.185-.99 2.176-2.176 2.176a2.198 2.198 0 0 1-2.176-2.176c0-1.186.99-2.176 2.176-2.176Zm0 1.088c-.593 0-1.088.495-1.088 1.088 0 .592.495 1.088 1.088 1.088.593 0 1.088-.496 1.088-1.088 0-.593-.495-1.088-1.088-1.088Zm9.785 3.372c.633 0 1.154.475 1.227 1.088h5.208c.673 0 .673 1.045 0 1.045h-5.209a1.236 1.236 0 0 1-2.452 0h-.643c-.673 0-.673-1.045 0-1.045h.642a1.236 1.236 0 0 1 1.227-1.088Zm-.296 1.98v-.745c0-.381.592-.381.592 0v.745c0 .382-.592.382-.592 0Zm4.862-5.98c-.633 0-1.154.475-1.227 1.088H18.85c-.673 0-.673 1.045 0 1.045h5.209a1.236 1.236 0 0 0 2.452 0h.643c.673 0 .673-1.045 0-1.045h-.642a1.236 1.236 0 0 0-1.227-1.089Zm.296 1.98v-.745c0-.381-.592-.381-.592 0v.745c0 .382.592.382.592 0Zm-4.862-6.037c.633 0 1.154.475 1.227 1.088h5.208c.673 0 .673 1.045 0 1.045h-5.209a1.236 1.236 0 0 1-2.452 0h-.643c-.673 0-.673-1.045 0-1.045h.642a1.236 1.236 0 0 1 1.227-1.088Zm-.296 1.98v-.745c0-.38.592-.38.592 0v.746c0 .38-.592.38-.592 0Z"/><path d="M4.625 28.027A1.625 1.625 0 0 1 3 26.402V5.625C3 4.728 3.728 4 4.625 4h23.75C29.272 4 30 4.728 30 5.625v13.783c0 .674-1.044.674-1.044 0V9.73H6.774a.522.522 0 1 1 0-1.044h22.181v-3.06a.58.58 0 0 0-.58-.58H4.625a.58.58 0 0 0-.58.58v3.06h.898a.522.522 0 0 1 0 1.044h-.899v16.673c0 .32.26.58.581.58h23.75c.32 0 .58-.26.58-.58V21.24c0-.673 1.045-.673 1.045 0v5.163c0 .897-.728 1.625-1.625 1.625H4.625Z"/></svg><svg fill="currentColor" viewBox="0 0 32 32" id="update" xmlns="http://www.w3.org/2000/svg"><path d="M26.953 26.787 28.35 21.2a.64.64 0 0 0-.768-.768l-5.59 1.397a.639.639 0 0 0-.294 1.062l1.038 1.038a10.423 10.423 0 0 1-6.813 2.516.646.646 0 0 0-.633.634c0 .34.293.633.633.633a11.69 11.69 0 0 0 8.151-3.288.59.59 0 0 0 .177-.551c-.077-.427-.584-.804-.866-1.087l3.47-.867-.86 3.476-.606-.606-.002-.002c-.302-.292-.765-.193-1.013.057a12.205 12.205 0 0 1-8.45 3.38c-7.013 0-12.688-6.136-12.23-13.103.024-.354-.275-.655-.61-.678-.328.002-.63.259-.654.592-.519 7.688 5.762 14.455 13.493 14.455a13.464 13.464 0 0 0 8.972-3.403l.996.997a.64.64 0 0 0 1.062-.296ZM5.166 5.112l-1.397 5.59a.64.64 0 0 0 .769.767l5.588-1.397a.639.639 0 0 0 .295-1.063L9.383 7.972a10.423 10.423 0 0 1 6.813-2.516c.34 0 .633-.294.633-.634a.646.646 0 0 0-.633-.633 11.689 11.689 0 0 0-8.151 3.288.59.59 0 0 0-.177.55c.077.428.584.805.866 1.087l-3.469.867.86-3.475.605.606.003.002c.301.292.764.192 1.012-.057a12.205 12.205 0 0 1 8.451-3.38c7.013 0 12.688 6.136 12.229 13.103-.024.354.275.654.61.678.328-.002.63-.26.654-.592.519-7.689-5.762-14.455-13.493-14.455a13.464 13.464 0 0 0-8.971 3.403l-.997-.997a.64.64 0 0 0-1.062.295Z"/><path fill-rule="evenodd" d="M17.855 5.556a.633.633 0 1 0 0-1.267.633.633 0 0 0 0 1.267ZM14.13 27.531a.633.633 0 1 0 0-1.267.633.633 0 0 0 0 1.267Zm-1.127-12.695a.65.65 0 0 0-.08.893l2.222 2.667a.64.64 0 0 0 .955.022l5.867-6.479.004-.004a.646.646 0 0 0-.053-.878.646.646 0 0 0-.88.022l-5.385 5.948-1.757-2.11a.65.65 0 0 0-.893-.08Z" clip-rule="evenodd"/><path fill-rule="evenodd" d="M19.726 11.512a.646.646 0 0 0-.17-.864l-.004-.002-.001-.001a6.387 6.387 0 0 0-3.474-1.022 6.42 6.42 0 0 0-6.412 6.412 6.42 6.42 0 0 0 6.412 6.413c4.307 0 7.418-4.386 6.093-8.414a.638.638 0 0 0-.807-.427.638.638 0 0 0-.396.822c1.07 3.27-1.506 6.748-4.89 6.752a5.15 5.15 0 0 1-5.145-5.146 5.15 5.15 0 0 1 5.145-5.145 5.125 5.125 0 0 1 2.786.818l.006.003c.285.171.676.08.857-.199Z" clip-rule="evenodd"/></svg><svg fill="currentColor" viewBox="0 0 32 32" id="whatsapp" xmlns="http://www.w3.org/2000/svg"><path fill-rule="evenodd" clip-rule="evenodd" d="M16.056 2.667C8.737 2.667 2.78 8.594 2.778 15.88a13.142 13.142 0 0 0 1.772 6.606l-1.883 6.847 7.038-1.837a13.313 13.313 0 0 0 6.345 1.608h.006c7.318 0 13.275-5.928 13.277-13.214.003-7.234-6.062-13.22-13.277-13.223Zm0 24.205h-.005c-2.17 0-4.17-.675-6.02-1.769l-4.176 1.09 1.114-4.052c-1.203-1.905-1.95-3.982-1.95-6.26C5.023 9.825 9.974 4.897 16.06 4.897 22.056 4.9 27.094 9.88 27.092 15.89c-.003 6.056-4.953 10.983-11.036 10.983Zm6.053-8.225c-.332-.166-1.963-.964-2.267-1.074-.304-.11-.525-.166-.746.165-.221.33-.857 1.074-1.05 1.294-.194.22-.388.248-.72.083-.331-.165-1.4-.514-2.668-1.639-.986-.875-1.651-1.956-1.845-2.287-.193-.33-.002-.492.145-.674.36-.444.72-.909.83-1.13.11-.22.055-.412-.028-.578-.083-.165-.746-1.79-1.023-2.451-.342-.817-1.71-.771-2.267-.165-.304.33-1.16 1.129-1.16 2.754s1.188 3.195 1.354 3.416c.165.22 2.34 3.555 5.667 4.985 1.274.548 2.575 1.035 3.981.826.638-.095 1.963-.798 2.24-1.57.34-.949.44-1.515-.443-1.955Z"/></svg></svg>