<svg width="1097" height="176" fill="none" xmlns="http://www.w3.org/2000/svg"><path fill-rule="evenodd" clip-rule="evenodd" d="M51.706 20c-11.045 0-20 8.954-20 20v68.808c0 11.046 8.955 20 20 20h71.803c11.046 0 20-8.954 20-20V40c0-11.046-8.954-20-20-20H51.706Z" fill="#F43F5E"/><path fill-rule="evenodd" clip-rule="evenodd" d="M51.706 20c-11.045 0-20 8.954-20 20v68.808c0 11.046 8.955 20 20 20h71.803c11.046 0 20-8.954 20-20V40c0-11.046-8.954-20-20-20H51.706Z" fill="#F43F5E"/><path fill-rule="evenodd" clip-rule="evenodd" d="M44.856 34.652a3 3 0 0 1 3-3h27.95a3 3 0 0 1 3 3v29.221a3 3 0 0 1-3 3h-27.95a3 3 0 0 1-3-3v-29.22Zm6 3v23.221h21.95v-23.22h-21.95Zm36.28-6a3 3 0 0 1 3 3V74.5a3 3 0 0 1-3 3h-39.28a3 3 0 0 1 0-6h36.28V34.652a3 3 0 0 1 3-3Zm9.275 3a3 3 0 0 1 3-3h27.949a3 3 0 0 1 3 3v29.221a3 3 0 0 1-3 3H99.41a3 3 0 0 1-3-3v-29.22Zm6 3v23.221h21.949v-23.22h-21.949Zm-3 33.847a3 3 0 0 1 3 3v14.99a3 3 0 0 1-3 3h-9.275v21.667a3 3 0 1 1-6 0V89.489a3 3 0 0 1 3-3h9.275V74.5a3 3 0 0 1 3-3Zm8.519 3a3 3 0 0 1 3-3h16.43a3 3 0 1 1 0 6h-13.43v8.99h13.43a3 3 0 1 1 0 6h-16.43a3 3 0 0 1-3-3V74.5ZM44.856 84.935a3 3 0 0 1 3-3h27.95a3 3 0 0 1 3 3v29.221a3 3 0 0 1-3 3h-27.95a3 3 0 0 1-3-3v-29.22Zm6 3v23.221h21.95v-23.22h-21.95Zm43.477 12.56a3 3 0 0 1 3-3h25.117a3 3 0 0 1 3 3v13.661a3 3 0 1 1-6 0v-10.661h-8.73v10.661a3 3 0 1 1-6 0v-10.661h-7.386a3 3 0 0 1-3-3Z" fill="#fff"/><path d="M88 139.637c-20.967 0-51.128-2.541-62.963-3.618-2.709-.246-5.037 1.935-5.037 4.716 0 2.439 1.818 4.473 4.195 4.675 5.148.439 14.523 1.201 25.24 1.895a10.164 10.164 0 0 1 7.67 4.344C59.01 154.38 62.09 156 65.37 156h45.258c3.281 0 6.36-1.62 8.267-4.351a10.164 10.164 0 0 1 7.67-4.344 1276.875 1276.875 0 0 0 25.239-1.895c2.377-.202 4.195-2.236 4.195-4.675 0-2.781-2.328-4.962-5.037-4.716-11.835 1.077-41.996 3.618-62.963 3.618Z" fill="#F43F5E"/><path d="M255.94 62.528c-1.014-1.182-2.366-2.323-4.055-3.421-1.69-1.098-3.591-2.07-5.703-2.915-2.112-.929-4.435-1.647-6.97-2.154-2.45-.591-5.026-.887-7.73-.887-6.927 0-12.038 1.31-15.333 3.928-3.295 2.62-4.942 6.21-4.942 10.772 0 3.21.844 5.745 2.534 7.603 1.69 1.859 4.266 3.38 7.73 4.562 3.548 1.183 8.026 2.408 13.433 3.675 6.251 1.352 11.658 3 16.22 4.942 4.562 1.943 8.068 4.562 10.518 7.857 2.45 3.21 3.675 7.519 3.675 12.926 0 4.308-.845 8.068-2.534 11.278-1.605 3.126-3.886 5.745-6.843 7.857-2.957 2.027-6.421 3.548-10.392 4.562-3.97.929-8.279 1.394-12.925 1.394a64.75 64.75 0 0 1-13.433-1.394 60.527 60.527 0 0 1-12.292-4.309 52.99 52.99 0 0 1-10.898-6.97l5.449-9.63c1.352 1.436 3.084 2.872 5.196 4.308 2.196 1.352 4.646 2.619 7.35 3.802 2.787 1.183 5.787 2.154 8.997 2.914a47.838 47.838 0 0 0 9.884 1.014c6.421 0 11.405-1.14 14.953-3.421 3.549-2.366 5.323-5.787 5.323-10.265 0-3.379-1.014-6.083-3.042-8.11-1.943-2.028-4.857-3.717-8.743-5.069-3.887-1.352-8.618-2.703-14.193-4.055-6.083-1.52-11.194-3.168-15.334-4.942-4.139-1.859-7.265-4.267-9.377-7.223-2.028-2.957-3.041-6.801-3.041-11.532 0-5.745 1.393-10.603 4.181-14.573 2.788-3.97 6.632-6.97 11.532-8.998 4.9-2.027 10.434-3.04 16.601-3.04 4.055 0 7.814.421 11.278 1.266 3.548.845 6.843 2.028 9.884 3.549a43.123 43.123 0 0 1 8.364 5.449l-5.322 9.25Zm80.009 71.092h-11.152V96.617c0-6.759-1.225-11.828-3.675-15.207-2.365-3.38-5.787-5.069-10.264-5.069-2.872 0-5.787.76-8.744 2.281-2.872 1.52-5.407 3.59-7.603 6.21-2.197 2.534-3.802 5.49-4.816 8.87v39.918h-11.151V41.112h11.151v40.551c2.619-4.73 6.167-8.448 10.645-11.151 4.562-2.788 9.462-4.182 14.7-4.182 3.97 0 7.265.718 9.884 2.154 2.704 1.352 4.858 3.295 6.463 5.83 1.605 2.534 2.746 5.49 3.422 8.87.76 3.295 1.14 6.928 1.14 10.898v39.538Zm173.85-66.15h10.772l-28.133 66.15h-9.757l-12.799-31.174-12.673 31.174h-9.757l-28.133-66.15h10.645l22.81 55.125 10.645-27.119-11.152-27.879h9.758l7.857 21.036 7.856-21.036h9.758l-11.025 27.88 10.645 27.118 22.683-55.124Zm120.93 66.15h-11.152V96.617c0-6.928-1.14-12.039-3.421-15.334-2.197-3.294-5.491-4.942-9.884-4.942-4.478 0-8.533 1.648-12.166 4.942-3.633 3.21-6.209 7.392-7.73 12.546v39.791h-11.151V96.617c0-7.012-1.099-12.123-3.295-15.334-2.197-3.294-5.492-4.942-9.885-4.942s-8.448 1.605-12.165 4.816c-3.633 3.125-6.209 7.307-7.73 12.545v39.918h-11.152V67.47h10.138v14.194c2.704-4.9 6.21-8.66 10.518-11.279 4.309-2.703 9.166-4.055 14.573-4.055 5.492 0 9.885 1.52 13.179 4.562 3.295 2.957 5.323 6.8 6.083 11.532 2.957-5.238 6.547-9.209 10.771-11.912 4.225-2.788 9.04-4.182 14.447-4.182 3.801 0 6.97.718 9.504 2.154 2.619 1.352 4.689 3.295 6.209 5.83 1.521 2.45 2.619 5.364 3.295 8.743.676 3.38 1.014 7.055 1.014 11.025v39.538Zm46.612 1.267c-4.984 0-9.546-.887-13.686-2.661-4.055-1.859-7.603-4.351-10.645-7.477-2.957-3.21-5.28-6.885-6.969-11.025-1.606-4.139-2.408-8.532-2.408-13.179 0-6.252 1.436-11.954 4.308-17.107 2.873-5.154 6.843-9.293 11.912-12.42 5.154-3.125 11.025-4.688 17.615-4.688 6.674 0 12.461 1.605 17.361 4.816 4.984 3.125 8.828 7.265 11.531 12.418 2.788 5.07 4.182 10.56 4.182 16.474 0 .845-.042 1.69-.126 2.535 0 .76-.043 1.351-.127 1.774h-54.871c.338 4.308 1.521 8.152 3.548 11.531 2.112 3.295 4.816 5.914 8.11 7.857 3.295 1.859 6.843 2.788 10.645 2.788 4.055 0 7.857-1.014 11.405-3.041 3.633-2.028 6.125-4.689 7.477-7.984l9.631 2.661c-1.436 3.211-3.591 6.083-6.463 8.618-2.788 2.534-6.125 4.519-10.011 5.956-3.802 1.436-7.941 2.154-12.419 2.154Zm-22.303-38.27h45.113c-.338-4.309-1.563-8.11-3.675-11.405s-4.815-5.872-8.11-7.73c-3.295-1.859-6.928-2.788-10.898-2.788-3.886 0-7.477.929-10.772 2.788-3.294 1.858-5.998 4.435-8.11 7.73-2.027 3.294-3.21 7.096-3.548 11.405Zm193.248 37.003h-11.152V96.617c0-6.928-1.141-12.039-3.422-15.334-2.196-3.294-5.491-4.942-9.884-4.942-4.477 0-8.533 1.648-12.165 4.942-3.633 3.21-6.21 7.392-7.73 12.546v39.791h-11.152V96.617c0-7.012-1.098-12.123-3.295-15.334-2.196-3.294-5.491-4.942-9.884-4.942-4.393 0-8.448 1.605-12.165 4.816-3.633 3.125-6.21 7.307-7.73 12.545v39.918h-11.152V67.47h10.138v14.194c2.703-4.9 6.209-8.66 10.518-11.279 4.308-2.703 9.166-4.055 14.573-4.055 5.491 0 9.884 1.52 13.179 4.562 3.295 2.957 5.322 6.8 6.083 11.532 2.956-5.238 6.547-9.209 10.771-11.912 4.224-2.788 9.04-4.182 14.446-4.182 3.802 0 6.97.718 9.505 2.154 2.618 1.352 4.688 3.295 6.209 5.83 1.521 2.45 2.619 5.364 3.295 8.743.676 3.38 1.014 7.055 1.014 11.025v39.538Zm46.612 1.267c-4.985 0-9.547-.887-13.687-2.661-4.055-1.859-7.603-4.351-10.644-7.477-2.957-3.21-5.28-6.885-6.97-11.025-1.605-4.139-2.408-8.532-2.408-13.179 0-6.252 1.437-11.954 4.309-17.107 2.872-5.154 6.843-9.293 11.912-12.42 5.153-3.125 11.025-4.688 17.614-4.688 6.674 0 12.461 1.605 17.361 4.816 4.985 3.125 8.829 7.265 11.532 12.418 2.788 5.07 4.182 10.56 4.182 16.474 0 .845-.042 1.69-.127 2.535 0 .76-.042 1.351-.127 1.774h-54.87c.337 4.308 1.52 8.152 3.548 11.531 2.112 3.295 4.815 5.914 8.11 7.857 3.295 1.859 6.843 2.788 10.645 2.788 4.055 0 7.856-1.014 11.405-3.041 3.632-2.028 6.125-4.689 7.476-7.984l9.631 2.661c-1.436 3.211-3.59 6.083-6.463 8.618-2.788 2.534-6.125 4.519-10.011 5.956-3.801 1.436-7.941 2.154-12.418 2.154Zm-22.304-38.27h45.114c-.338-4.309-1.563-8.11-3.675-11.405s-4.816-5.872-8.111-7.73c-3.294-1.859-6.927-2.788-10.898-2.788-3.886 0-7.476.929-10.771 2.788-3.295 1.858-5.998 4.435-8.11 7.73-2.028 3.294-3.211 7.096-3.549 11.405ZM997.9 133.62h-11.152V96.617c0-7.012-1.098-12.123-3.294-15.334-2.112-3.294-5.365-4.942-9.758-4.942-3.041 0-6.083.76-9.124 2.281-2.957 1.52-5.618 3.59-7.983 6.21-2.281 2.534-3.929 5.49-4.943 8.87v39.918h-11.151V67.47h10.138v14.194a28.686 28.686 0 0 1 6.843-8.11c2.788-2.282 5.956-4.056 9.504-5.323 3.548-1.267 7.265-1.9 11.151-1.9 3.802 0 6.97.717 9.505 2.153 2.618 1.352 4.646 3.295 6.082 5.83 1.521 2.45 2.577 5.364 3.168 8.743.676 3.38 1.014 7.055 1.014 11.025v39.538Zm16.71-26.485V67.471h11.15v37.509c0 6.759 1.18 11.828 3.55 15.207 2.36 3.379 5.87 5.069 10.52 5.069 3.04 0 5.95-.634 8.74-1.901 2.87-1.352 5.45-3.252 7.73-5.702 2.28-2.45 4.05-5.365 5.32-8.744V67.471h11.15v53.476c0 1.352.26 2.366.76 3.042.59.591 1.52.929 2.79 1.014v8.617c-1.27.169-2.28.253-3.04.253-.68.085-1.35.127-2.03.127-2.11 0-3.93-.634-5.45-1.901-1.52-1.352-2.32-2.999-2.4-4.942l-.26-7.73c-2.87 4.9-6.76 8.701-11.66 11.405-4.81 2.703-10.09 4.055-15.84 4.055-6.92 0-12.16-2.323-15.71-6.97-3.55-4.731-5.32-11.658-5.32-20.782Z" fill="#2F3C33"/><path fill-rule="evenodd" clip-rule="evenodd" d="M411.18 71.038v58.823a4 4 0 0 1-4 4h-56.157a4 4 0 0 1-4-4V71.038a4 4 0 0 1 4-4h56.157a4 4 0 0 1 4 4Zm-7.389 7.696v43.43a4 4 0 0 1-4 4h-41.378a4 4 0 0 1-4-4v-43.43a4 4 0 0 1 4-4h41.378a4 4 0 0 1 4 4Zm-9.214 33.834V88.331a4 4 0 0 0-4-4h-22.951a4 4 0 0 0-4 4v24.237a4 4 0 0 0 4 4h22.951a4 4 0 0 0 4-4Z" fill="#F43F5E"/><path d="M735.822 120.302v9.431a4 4 0 0 1-4 4h-8.735a4 4 0 0 1-4-4v-9.431a4 4 0 0 1 4-4h8.735a4 4 0 0 1 4 4Z" fill="#F43F5E"/></svg>