<svg width="585" height="176" fill="none" xmlns="http://www.w3.org/2000/svg"><path fill-rule="evenodd" clip-rule="evenodd" d="M51.706 20c-11.045 0-20 8.954-20 20v68.808c0 11.046 8.955 20 20 20h71.803c11.046 0 20-8.954 20-20V40c0-11.046-8.954-20-20-20H51.706Z" fill="#84CC16"/><path fill-rule="evenodd" clip-rule="evenodd" d="M51.706 20c-11.045 0-20 8.954-20 20v68.808c0 11.046 8.955 20 20 20h71.803c11.046 0 20-8.954 20-20V40c0-11.046-8.954-20-20-20H51.706Z" fill="#84CC16"/><path fill-rule="evenodd" clip-rule="evenodd" d="M44.856 34.652a3 3 0 0 1 3-3h27.95a3 3 0 0 1 3 3v29.221a3 3 0 0 1-3 3h-27.95a3 3 0 0 1-3-3v-29.22Zm6 3v23.221h21.95v-23.22h-21.95Zm36.28-6a3 3 0 0 1 3 3V74.5a3 3 0 0 1-3 3h-39.28a3 3 0 0 1 0-6h36.28V34.652a3 3 0 0 1 3-3Zm9.275 3a3 3 0 0 1 3-3h27.949a3 3 0 0 1 3 3v29.221a3 3 0 0 1-3 3H99.41a3 3 0 0 1-3-3v-29.22Zm6 3v23.221h21.949v-23.22h-21.949Zm-3 33.847a3 3 0 0 1 3 3v14.99a3 3 0 0 1-3 3h-9.275v21.667a3 3 0 1 1-6 0V89.489a3 3 0 0 1 3-3h9.275V74.5a3 3 0 0 1 3-3Zm8.519 3a3 3 0 0 1 3-3h16.43a3 3 0 1 1 0 6h-13.43v8.99h13.43a3 3 0 1 1 0 6h-16.43a3 3 0 0 1-3-3V74.5ZM44.856 84.935a3 3 0 0 1 3-3h27.95a3 3 0 0 1 3 3v29.221a3 3 0 0 1-3 3h-27.95a3 3 0 0 1-3-3v-29.22Zm6 3v23.221h21.95v-23.22h-21.95Zm43.477 12.56a3 3 0 0 1 3-3h25.117a3 3 0 0 1 3 3v13.661a3 3 0 1 1-6 0v-10.661h-8.73v10.661a3 3 0 1 1-6 0v-10.661h-7.386a3 3 0 0 1-3-3Z" fill="#fff"/><path d="M88 139.637c-20.967 0-51.128-2.541-62.963-3.618-2.709-.246-5.037 1.935-5.037 4.716 0 2.439 1.818 4.473 4.195 4.675 5.148.439 14.523 1.201 25.24 1.895a10.164 10.164 0 0 1 7.67 4.344C59.01 154.38 62.09 156 65.37 156h45.258c3.281 0 6.36-1.62 8.267-4.351a10.164 10.164 0 0 1 7.67-4.344 1276.875 1276.875 0 0 0 25.239-1.895c2.377-.202 4.195-2.236 4.195-4.675 0-2.781-2.328-4.962-5.037-4.716-11.835 1.077-41.996 3.618-62.963 3.618Z" fill="#84CC16"/><path d="M228.332 43.619c-.75-.875-1.749-1.718-2.999-2.53-1.25-.813-2.656-1.532-4.218-2.156-1.562-.688-3.28-1.219-5.155-1.594a24.285 24.285 0 0 0-5.717-.656c-5.123 0-8.904.969-11.341 2.906-2.436 1.937-3.655 4.592-3.655 7.966 0 2.375.625 4.25 1.875 5.624 1.249 1.375 3.155 2.5 5.717 3.374 2.624.875 5.936 1.78 9.935 2.718 4.624 1 8.623 2.218 11.997 3.655 3.374 1.438 5.967 3.374 7.779 5.811 1.812 2.375 2.718 5.561 2.718 9.56 0 3.187-.625 5.968-1.875 8.342-1.187 2.312-2.874 4.249-5.061 5.811-2.187 1.5-4.749 2.624-7.685 3.374-2.937.687-6.124 1.031-9.56 1.031-3.374 0-6.686-.344-9.935-1.03a44.779 44.779 0 0 1-9.092-3.188 39.207 39.207 0 0 1-8.06-5.154l4.03-7.124c1 1.063 2.281 2.125 3.843 3.187 1.625 1 3.437 1.937 5.436 2.812a41.492 41.492 0 0 0 6.655 2.155c2.374.5 4.811.75 7.31.75 4.749 0 8.435-.843 11.06-2.53 2.624-1.75 3.936-4.28 3.936-7.592 0-2.5-.75-4.499-2.249-5.999-1.437-1.5-3.593-2.749-6.467-3.748-2.874-1-6.374-2-10.498-3-4.498-1.125-8.279-2.343-11.34-3.655-3.062-1.375-5.374-3.155-6.936-5.342-1.5-2.187-2.249-5.03-2.249-8.53 0-4.248 1.031-7.841 3.093-10.778 2.061-2.937 4.905-5.155 8.529-6.654 3.624-1.5 7.716-2.25 12.278-2.25 2.999 0 5.779.313 8.341.937 2.625.625 5.061 1.5 7.311 2.625a31.946 31.946 0 0 1 6.186 4.03l-3.937 6.842Zm59.176 52.58h-8.248V68.831c0-4.999-.906-8.748-2.718-11.247-1.749-2.5-4.28-3.749-7.591-3.749-2.125 0-4.281.562-6.468 1.687-2.124 1.125-3.998 2.656-5.623 4.593-1.625 1.874-2.812 4.061-3.562 6.56V96.2h-8.247V27.78h8.247v29.993c1.937-3.5 4.562-6.249 7.873-8.248 3.374-2.062 6.998-3.093 10.872-3.093 2.937 0 5.374.53 7.311 1.593 2 1 3.593 2.437 4.78 4.311 1.187 1.875 2.031 4.062 2.531 6.561.562 2.437.843 5.124.843 8.06V96.2ZM416.09 47.274h7.967L403.25 96.2h-7.217l-9.466-23.056-9.373 23.056h-7.217L349.17 47.274h7.873l16.871 40.77 7.873-20.056-8.248-20.62h7.217l5.811 15.558 5.811-15.558h7.216l-8.154 20.62 7.873 20.057 16.777-40.77Zm89.441 48.925h-8.247V68.831c0-5.124-.844-8.904-2.531-11.34-1.625-2.438-4.061-3.656-7.311-3.656-3.311 0-6.31 1.218-8.997 3.655-2.687 2.375-4.593 5.468-5.717 9.28v29.429h-8.248V68.831c0-5.186-.813-8.966-2.437-11.34-1.625-2.438-4.062-3.656-7.311-3.656-3.249 0-6.248 1.187-8.997 3.562-2.687 2.312-4.593 5.404-5.718 9.278V96.2h-8.248V47.274h7.498v10.498c2-3.625 4.593-6.405 7.78-8.342 3.186-2 6.779-3 10.778-3 4.062 0 7.311 1.125 9.748 3.375 2.436 2.187 3.936 5.03 4.498 8.529 2.187-3.874 4.843-6.81 7.967-8.81 3.124-2.062 6.686-3.093 10.685-3.093 2.812 0 5.155.53 7.029 1.593a11.31 11.31 0 0 1 4.593 4.311c1.125 1.812 1.937 3.968 2.437 6.468.5 2.499.749 5.217.749 8.154v29.242Zm34.475.937c-3.686 0-7.06-.656-10.122-1.968-2.999-1.375-5.623-3.218-7.873-5.53-2.187-2.374-3.905-5.092-5.155-8.154-1.187-3.062-1.781-6.31-1.781-9.747 0-4.624 1.063-8.842 3.187-12.653 2.125-3.812 5.061-6.874 8.81-9.186 3.812-2.311 8.154-3.467 13.028-3.467 4.936 0 9.216 1.187 12.841 3.561 3.686 2.312 6.529 5.374 8.529 9.185 2.062 3.75 3.092 7.81 3.092 12.185 0 .625-.031 1.25-.093 1.874 0 .563-.031 1-.094 1.312h-40.583c.25 3.187 1.125 6.03 2.624 8.53 1.562 2.436 3.562 4.373 5.999 5.81a15.76 15.76 0 0 0 7.873 2.062c2.999 0 5.811-.75 8.435-2.25 2.687-1.499 4.53-3.467 5.53-5.904l7.123 1.968c-1.062 2.375-2.656 4.5-4.78 6.374-2.062 1.874-4.53 3.343-7.404 4.405-2.812 1.062-5.874 1.593-9.186 1.593Zm-16.495-28.305h33.366c-.25-3.187-1.156-5.998-2.718-8.435-1.562-2.437-3.562-4.343-5.998-5.718-2.437-1.374-5.124-2.061-8.061-2.061-2.874 0-5.53.687-7.967 2.062-2.436 1.374-4.436 3.28-5.998 5.717-1.5 2.437-2.374 5.248-2.624 8.435Z" fill="#2F3C33"/><path fill-rule="evenodd" clip-rule="evenodd" d="M343.15 49.913V93.42a2.958 2.958 0 0 1-2.958 2.958h-41.535a2.959 2.959 0 0 1-2.958-2.959V49.914a2.959 2.959 0 0 1 2.958-2.959h41.535a2.958 2.958 0 0 1 2.958 2.959Zm-5.465 5.693v32.121a2.959 2.959 0 0 1-2.959 2.959h-30.604a2.958 2.958 0 0 1-2.958-2.959V55.606a2.958 2.958 0 0 1 2.958-2.959h30.604a2.959 2.959 0 0 1 2.959 2.959ZM330.87 80.63V62.704a2.958 2.958 0 0 0-2.958-2.959h-16.975a2.959 2.959 0 0 0-2.959 2.959V80.63a2.959 2.959 0 0 0 2.959 2.958h16.975a2.958 2.958 0 0 0 2.958-2.958Z" fill="#84CC16"/><path d="M232.128 147.609h-5.382v-17.857c0-3.343-.55-5.809-1.651-7.399-1.06-1.59-2.65-2.385-4.77-2.385-2.161 0-4.117.795-5.871 2.385-1.753 1.549-2.996 3.567-3.73 6.054v19.202h-5.381v-17.857c0-3.383-.53-5.85-1.59-7.399-1.06-1.59-2.65-2.385-4.77-2.385-2.12 0-4.077.774-5.871 2.324-1.753 1.508-2.997 3.526-3.73 6.054v19.263H184v-31.922h4.892v6.849c1.305-2.364 2.997-4.179 5.076-5.442 2.079-1.305 4.423-1.957 7.033-1.957 2.65 0 4.77.734 6.36 2.201 1.59 1.427 2.568 3.282 2.935 5.565 1.427-2.527 3.16-4.444 5.198-5.748 2.039-1.346 4.362-2.018 6.972-2.018 1.834 0 3.363.346 4.586 1.039a7.382 7.382 0 0 1 2.997 2.813c.734 1.183 1.264 2.589 1.59 4.22.326 1.631.489 3.404.489 5.32v19.08Zm22.494.612c-2.405 0-4.607-.428-6.605-1.284a16.964 16.964 0 0 1-5.137-3.608 17.615 17.615 0 0 1-3.363-5.321c-.775-1.998-1.162-4.118-1.162-6.36 0-3.017.693-5.769 2.079-8.256 1.386-2.486 3.303-4.484 5.749-5.993 2.487-1.508 5.32-2.262 8.5-2.262 3.221 0 6.013.774 8.378 2.324 2.405 1.508 4.26 3.506 5.565 5.993 1.345 2.446 2.018 5.096 2.018 7.95 0 .407-.02.815-.061 1.223 0 .367-.02.652-.061.856h-26.48c.163 2.079.734 3.934 1.713 5.565a11.583 11.583 0 0 0 3.913 3.791 10.287 10.287 0 0 0 5.137 1.346c1.957 0 3.792-.49 5.504-1.468 1.753-.978 2.956-2.263 3.608-3.853l4.648 1.285c-.693 1.549-1.733 2.935-3.119 4.158-1.345 1.223-2.956 2.181-4.831 2.874-1.835.693-3.832 1.04-5.993 1.04Zm-10.763-18.469h21.771c-.164-2.079-.755-3.913-1.774-5.503-1.019-1.59-2.324-2.834-3.914-3.731-1.59-.897-3.343-1.345-5.259-1.345-1.875 0-3.608.448-5.198 1.345-1.59.897-2.895 2.141-3.914 3.731-.978 1.59-1.549 3.424-1.712 5.503Zm60.47 17.857h-5.382v-17.857c0-3.383-.53-5.85-1.59-7.399-1.019-1.59-2.589-2.385-4.709-2.385-1.467 0-2.935.367-4.403 1.101-1.426.733-2.711 1.732-3.852 2.996a11.055 11.055 0 0 0-2.385 4.281v19.263h-5.382v-31.922h4.893v6.849a13.842 13.842 0 0 1 3.302-3.914 15.33 15.33 0 0 1 4.586-2.568 15.871 15.871 0 0 1 5.382-.917c1.834 0 3.363.346 4.586 1.039a6.983 6.983 0 0 1 2.936 2.813c.734 1.183 1.243 2.589 1.529 4.22.326 1.631.489 3.404.489 5.32v19.08Zm8.063-12.781v-19.141h5.381v18.102c0 3.261.571 5.707 1.712 7.338 1.142 1.631 2.834 2.446 5.076 2.446 1.468 0 2.874-.306 4.22-.917 1.386-.652 2.629-1.57 3.73-2.752 1.101-1.182 1.957-2.589 2.569-4.22v-19.997h5.381v25.807c0 .652.122 1.141.367 1.468.285.285.734.448 1.345.489v4.158a11.6 11.6 0 0 1-1.467.123c-.326.04-.653.061-.979.061-1.019 0-1.896-.306-2.629-.918-.734-.652-1.122-1.447-1.162-2.385l-.123-3.73c-1.386 2.365-3.261 4.199-5.626 5.504-2.324 1.305-4.872 1.957-7.644 1.957-3.343 0-5.871-1.121-7.583-3.364-1.712-2.283-2.568-5.626-2.568-10.029Z" fill="#647067"/></svg>