<svg width="167" height="40" fill="none" xmlns="http://www.w3.org/2000/svg"><path fill-rule="evenodd" clip-rule="evenodd" d="M35.843 16.367a19.69 19.69 0 0 1-.971 9.057c-.724 2.038-3.153 2.575-4.933 1.388-1.59-1.06-2.106-3.155-1.725-5.052.187-.932.286-1.905.286-2.906C28.5 11.959 23.799 6.37 18 6.37S7.5 11.959 7.5 18.854 12.201 31.338 18 31.338c.114 0 .229-.002.342-.007 1.81-.069 3.754.772 4.298 2.532.502 1.624-.368 3.39-2.02 3.644a17.25 17.25 0 0 1-9.395-1.186c-3.926-1.67-7.163-4.738-9.142-8.663A19.648 19.648 0 0 1 .407 14.865c.897-4.338 3.226-8.206 6.577-10.922 3.351-2.716 7.51-4.107 11.744-3.927C22.962.196 27 1.933 30.13 4.925c3.131 2.99 5.154 7.043 5.713 11.442Z" fill="#2F3C33"/><path d="M18.592 26.536c-1.98-2.295-.382-5.899 2.618-5.899a3.46 3.46 0 0 1 2.617 1.206l10.581 12.258c1.981 2.295.382 5.9-2.617 5.9a3.458 3.458 0 0 1-2.618-1.207l-10.58-12.258Z" fill="#F43F5E"/><path d="M147.38 22.369V10.507h4.846V21.32c0 1.447.265 2.543.795 3.29.531.724 1.314 1.086 2.351 1.086a4.93 4.93 0 0 0 1.845-.362 5.328 5.328 0 0 0 1.699-1.157c.531-.506.977-1.145 1.338-1.917V10.507h4.846v13.525c0 .506.085.868.253 1.085.193.217.495.35.905.398v3.942c-.483.072-.893.12-1.23.145a5.738 5.738 0 0 1-.868.072c-.868 0-1.579-.193-2.134-.579-.53-.41-.843-.964-.94-1.663l-.108-1.52c-.844 1.279-1.929 2.255-3.255 2.93-1.326.651-2.785.977-4.376.977-1.953 0-3.436-.627-4.448-1.881-1.013-1.278-1.519-3.134-1.519-5.57Zm-4.033 7.088h-4.846V18.825c0-1.52-.265-2.628-.795-3.327-.531-.7-1.266-1.05-2.206-1.05-.651 0-1.314.17-1.989.507a6.093 6.093 0 0 0-1.772 1.41 5.285 5.285 0 0 0-1.158 2.026v11.066h-4.846v-18.95h4.376v3.508a6.873 6.873 0 0 1 1.845-2.062 7.818 7.818 0 0 1 2.567-1.301 10.23 10.23 0 0 1 3.11-.47c1.182 0 2.146.216 2.893.65.772.41 1.351.977 1.736 1.7.41.7.687 1.495.832 2.387.169.892.253 1.796.253 2.712v11.826Zm-30.473.362c-1.519 0-2.893-.254-4.123-.76-1.229-.53-2.278-1.242-3.146-2.134a10.176 10.176 0 0 1-2.025-3.11 10.214 10.214 0 0 1-.687-3.725c0-1.808.397-3.46 1.193-4.954.82-1.495 1.977-2.688 3.472-3.58 1.519-.916 3.303-1.375 5.352-1.375 2.073 0 3.845.459 5.316 1.375 1.471.892 2.592 2.085 3.363 3.58a9.871 9.871 0 0 1 1.194 4.774c0 .289-.012.59-.036.904-.024.289-.049.53-.073.723h-14.646c.096.964.374 1.808.832 2.531a4.965 4.965 0 0 0 1.808 1.664 5.409 5.409 0 0 0 2.387.542 5.6 5.6 0 0 0 2.712-.687c.868-.482 1.459-1.109 1.772-1.88l4.159 1.157c-.458.964-1.121 1.82-1.989 2.568-.844.747-1.844 1.338-3.002 1.772-1.157.41-2.435.614-3.833.614Zm-4.955-11.356h9.909c-.096-.964-.373-1.796-.831-2.495a4.427 4.427 0 0 0-1.736-1.664c-.724-.41-1.531-.615-2.423-.615-.868 0-1.664.205-2.387.615-.699.386-1.278.94-1.736 1.664-.434.699-.699 1.53-.796 2.495Zm-8.052 10.994h-4.846V18.825c0-1.495-.265-2.592-.795-3.291-.507-.724-1.218-1.085-2.134-1.085-.94 0-1.844.373-2.712 1.12-.844.724-1.447 1.676-1.808 2.858v11.03h-4.847V18.825c0-1.52-.265-2.628-.795-3.327-.506-.7-1.218-1.05-2.134-1.05-.94 0-1.844.362-2.712 1.086-.844.723-1.447 1.675-1.808 2.857v11.066H70.43v-18.95h4.375v3.508c.724-1.23 1.688-2.17 2.894-2.821 1.205-.675 2.591-1.013 4.159-1.013 1.567 0 2.784.386 3.652 1.158a5.088 5.088 0 0 1 1.7 2.857c.771-1.302 1.748-2.29 2.93-2.966 1.205-.699 2.555-1.049 4.05-1.049 1.18 0 2.133.217 2.856.651.748.41 1.326.977 1.736 1.7.41.7.687 1.495.832 2.387.169.892.253 1.796.253 2.712v11.826Zm-44.661-7.739v-4.376h10.958v4.376H55.206Zm-1.923-7.016c-1.47 0-2.784.29-3.942.868-1.157.554-1.989 1.362-2.495 2.423v11.464H42v-18.95h4.448v4.05c.675-1.302 1.531-2.326 2.568-3.074 1.037-.747 2.134-1.157 3.29-1.23h.616c.144 0 .265.013.361.037v4.412Z" fill="#2F3C33"/></svg>