<svg xmlns="http://www.w3.org/2000/svg" width="32" height="32" fill="currentColor" viewBox="0 0 32 32">
  <path fill-rule="evenodd" d="M9.598 6.26a2.996 2.996 0 0 1 2.995-2.995h13.539a2.996 2.996 0 0 1 2.996 2.996v19.478a2.996 2.996 0 0 1-2.996 2.996H12.593a2.996 2.996 0 0 1-2.995-2.996v-1.544a7.25 7.25 0 0 1-4.62-2.093 7.2 7.2 0 0 1-1.971-3.687c-.842-4.23 2.372-8.274 6.59-8.63V6.262Zm-.008 4.654c-3.523.358-6.188 3.736-5.483 7.282a6.081 6.081 0 0 0 1.285 2.697l4.118-4.118.08-5.861Zm.71 6.658-4.114 4.114a6.116 6.116 0 0 0 3.965 1.402c3.068-.042 5.688-2.481 5.97-5.517H10.3Zm.337-1.123h6.07c.31 0 .561.252.561.561 0 3.66-2.885 6.838-6.548 7.17v1.56c0 1.034.839 1.873 1.873 1.873h13.539a1.874 1.874 0 0 0 1.874-1.874V6.261a1.874 1.874 0 0 0-1.874-1.874H12.593a1.874 1.874 0 0 0-1.873 1.874v4.07l-.083 6.118Zm1.526-8.733a.56.56 0 0 1 .56-.561c3.878 0 7.2 3.285 7.2 7.2a.56.56 0 0 1-.56.561h-6.64a.561.561 0 0 1-.56-.561V7.716Zm7.069.85c0-.31.251-.56.561-.56h5.875a.561.561 0 1 1 0 1.121h-5.875a.561.561 0 0 1-.561-.56Zm1.244 2.924c0-.31.25-.56.56-.56h4.632a.561.561 0 1 1 0 1.122h-4.631a.561.561 0 0 1-.561-.562Zm.641 2.865c0-.31.252-.561.561-.561h3.99a.561.561 0 1 1 0 1.122h-3.99a.561.561 0 0 1-.56-.561Zm-1.754 3.216a.561.561 0 1 1 0-1.122h3.762a.561.561 0 1 1 0 1.122h-3.762Zm4.842-.56c0-.31.251-.562.561-.562h.902a.561.561 0 1 1 0 1.122h-.902a.561.561 0 0 1-.561-.56Zm1.847 3.805a.561.561 0 0 1 .025.793l-3.607 3.84a.561.561 0 0 1-.734.073l-2.699-1.921a.561.561 0 1 1 .651-.914l2.3 1.637 3.27-3.483a.561.561 0 0 1 .794-.025Z" clip-rule="evenodd"/>
</svg>
