<svg xmlns="http://www.w3.org/2000/svg" width="32" height="32" fill="currentColor" viewBox="0 0 32 32">
  <path fill-rule="evenodd" d="M6.512 16.5c0-.256.209-.463.466-.463h17.6c.257 0 .465.207.465.463a.464.464 0 0 1-.466.463h-17.6a.464.464 0 0 1-.465-.463Z" clip-rule="evenodd"/>
  <path fill-rule="evenodd" d="M25.168 15.802a.923.923 0 0 1 0 1.396l-4.843 4.198a.386.386 0 0 1-.476.023.381.381 0 0 1-.033-.597l4.098-3.63a.923.923 0 0 0 0-1.384l-4.098-3.63a.381.381 0 0 1 .033-.597.386.386 0 0 1 .476.023l4.843 4.198Z" clip-rule="evenodd"/>
  <path fill-rule="evenodd" d="m22.826 15.527-3.35-2.968a.89.89 0 0 1 .075-1.393.9.9 0 0 1 1.11.053l4.844 4.198a1.43 1.43 0 0 1 0 2.166L20.66 21.78a.9.9 0 0 1-1.11.053.89.89 0 0 1-.076-1.392l3.351-2.97H6.978A.975.975 0 0 1 6 16.5c0-.537.438-.973.978-.973h15.848Z" clip-rule="evenodd"/>
</svg>
