<svg xmlns="http://www.w3.org/2000/svg" width="32" height="32" fill="currentColor" viewBox="0 0 32 32">
  <path fill-rule="evenodd" d="M3.683 16.334a.62.62 0 0 1 .62-.617h23.47a.62.62 0 0 1 .62.617.62.62 0 0 1-.62.618H4.303a.62.62 0 0 1-.62-.618Z" clip-rule="evenodd"/>
  <path fill-rule="evenodd" d="M28.561 15.403a1.23 1.23 0 0 1 0 1.863l-6.46 5.598a.515.515 0 0 1-.634.03.509.509 0 0 1-.043-.796l5.464-4.841a1.231 1.231 0 0 0 0-1.845l-5.464-4.841a.509.509 0 0 1 .043-.797.515.515 0 0 1 .635.031l6.459 5.598Z" clip-rule="evenodd"/>
  <path fill-rule="evenodd" d="m25.438 15.037-4.469-3.959a1.186 1.186 0 0 1 .102-1.857 1.2 1.2 0 0 1 1.48.072l6.459 5.598c.88.763.88 2.124 0 2.887l-6.46 5.598a1.2 1.2 0 0 1-1.48.072 1.186 1.186 0 0 1-.1-1.858l4.468-3.959H4.304A1.3 1.3 0 0 1 3 16.334a1.3 1.3 0 0 1 1.304-1.297h21.134Z" clip-rule="evenodd"/>
</svg>
