<svg xmlns="http://www.w3.org/2000/svg" fill="currentColor" viewBox="0 0 32 32">
  <path d="M28.404 6.158c.595.635.93 1.496.93 2.394v14.896c0 .898-.335 1.759-.93 2.394a3.078 3.078 0 0 1-2.245.991H10a.667.667 0 0 1-.667-.666v-.021c0-.368.299-.667.667-.667h16.159a1.85 1.85 0 0 0 1.346-.596c.357-.38.558-.897.559-1.435V8.552a2.106 2.106 0 0 0-.56-1.435 1.85 1.85 0 0 0-1.345-.596H5.84a1.85 1.85 0 0 0-1.345.596 2.11 2.11 0 0 0-.56 1.435v14.896c.002.538.203 1.054.56 1.435.356.38.84.595 1.345.596h1.826c.368 0 .666.299.666.667v.02a.667.667 0 0 1-.666.667H5.84c-.842 0-1.65-.356-2.245-.991a3.503 3.503 0 0 1-.93-2.394V8.552c0-.898.335-1.759.93-2.394a3.078 3.078 0 0 1 2.245-.991h20.32c.842 0 1.65.356 2.245.991Z"/>
  <path fill-rule="evenodd" d="M25.524 11.26c0-.538-.2-1.055-.558-1.436a1.847 1.847 0 0 0-1.347-.595H8.381c-.505 0-.99.214-1.347.595a2.102 2.102 0 0 0-.558 1.436v9.48c0 .538.2 1.055.558 1.436.357.38.842.595 1.347.595h15.238c.505 0 .99-.214 1.347-.595s.558-.898.558-1.436v-9.48Zm-1.27 9.2v-9.2a.7.7 0 0 0-.186-.478.616.616 0 0 0-.449-.199H8.381a.615.615 0 0 0-.449.199.7.7 0 0 0-.186.478v9.2l1.827-1.95a1.85 1.85 0 0 1 1.293-.594c.486-.015.96.17 1.322.515l3.734-3.983a1.89 1.89 0 0 1 .619-.44 1.802 1.802 0 0 1 1.458 0c.231.102.441.251.618.44l5.637 6.011ZM12.19 11.936c-.505 0-.99.215-1.347.596a2.102 2.102 0 0 0-.557 1.437c0 .539.2 1.056.558 1.437.358.38.842.595 1.348.594.25 0 .498-.052.729-.155.231-.102.441-.252.618-.44a2.05 2.05 0 0 0 .413-.66 2.149 2.149 0 0 0 0-1.555 2.044 2.044 0 0 0-.414-.659 1.904 1.904 0 0 0-.618-.44 1.803 1.803 0 0 0-.73-.155Z" clip-rule="evenodd"/>
</svg>
