<svg xmlns="http://www.w3.org/2000/svg" width="32" height="32" fill="currentColor" viewBox="0 0 32 32">
  <path d="M21.125 18.946a.5.5 0 0 1 .074.41l-1.571 6.154a.5.5 0 0 1-.485.376H12.63a.5.5 0 0 1-.485-.378l-.452-1.796a.5.5 0 1 0-.97.244l.642 2.552a.5.5 0 0 0 .485.378h8.07a.5.5 0 0 0 .485-.376l1.876-7.35a.5.5 0 0 0-.074-.41l-5.897-8.48a.5.5 0 0 0-.82 0l-5.899 8.48a.5.5 0 0 0-.075.408l.716 2.848a.5.5 0 0 0 .97-.244l-.605-2.407a.5.5 0 0 1 .074-.407l4.817-6.929a.5.5 0 0 1 .821 0l4.815 6.926Z"/>
  <path fill-rule="evenodd" d="M15.295 21.765a.648.648 0 1 0 1.295 0 .648.648 0 0 0-1.295 0Zm.648-1.648a1.648 1.648 0 1 0 0 3.296 1.648 1.648 0 0 0 0-3.296Z" clip-rule="evenodd"/>
  <path d="M15.943 22.413a.648.648 0 1 1 0-1.295.648.648 0 0 1 0 1.295Z"/>
  <path fill-rule="evenodd" d="M20.819 28.905h-9.667a1.5 1.5 0 0 1 0-3h9.667a1.5 1.5 0 0 1 0 3Zm0-1a.5.5 0 1 0 0-1h-9.667a.5.5 0 0 0 0 1h9.667Zm-4.917-6.621a.417.417 0 0 1-.416-.416v-9a.417.417 0 0 1 .833 0v9c0 .23-.187.416-.417.416Zm1.314-17.199h-2.6a.793.793 0 0 0-.792.793v2.6c0 .438.355.793.793.793h2.6a.793.793 0 0 0 .792-.793v-2.6a.793.793 0 0 0-.793-.793Zm-2.6-.99c-.984 0-1.783.798-1.783 1.783v2.6c0 .985.799 1.783 1.784 1.783h2.6c.985 0 1.783-.798 1.783-1.783v-2.6c0-.985-.799-1.783-1.784-1.783h-2.6ZM5.5 6.314a.648.648 0 1 0 1.295 0 .648.648 0 0 0-1.295 0Zm.648-1.647a1.648 1.648 0 1 0 0 3.295 1.648 1.648 0 0 0 0-3.295ZM25 6.314a.648.648 0 1 0 1.295 0 .648.648 0 0 0-1.295 0Zm.648-1.647a1.648 1.648 0 1 0 0 3.295 1.648 1.648 0 0 0 0-3.295Z" clip-rule="evenodd"/>
  <path fill-rule="evenodd" d="M12.833 6.833H7.167v-1h5.666v1Zm11.5 0H19v-1h5.333v1Z" clip-rule="evenodd"/>
  <path d="M18.167 6.328c0 .241.172.45.408.502a11.874 11.874 0 0 1 8.946 8.762.517.517 0 0 0 .594.392.485.485 0 0 0 .388-.587 12.875 12.875 0 0 0-9.755-9.553.486.486 0 0 0-.581.484ZM28.82 17.413a.486.486 0 0 0-.581-.434.518.518 0 0 0-.414.55c.01.125.016.251.022.378.011.276.234.5.51.5a.486.486 0 0 0 .49-.5c-.006-.166-.015-.33-.028-.494ZM13.08 5.883c.303-.07.587.17.587.483a.519.519 0 0 1-.401.5c-5.074 1.198-8.89 5.656-9.113 11.04a.517.517 0 0 1-.51.5.486.486 0 0 1-.49-.5c.224-5.873 4.39-10.737 9.926-12.023Z"/>
</svg>
