<svg width="32" height="32" viewBox="0 0 32 32" fill="currentColor" xmlns="http://www.w3.org/2000/svg">
<path d="M28.8192 17.4135C28.797 17.1235 28.5243 16.9243 28.2387 16.9786C27.981 17.0276 27.8058 17.2667 27.8249 17.5283C27.8341 17.654 27.8414 17.7801 27.8466 17.9068C27.8581 18.1827 28.0808 18.4069 28.357 18.4069C28.6331 18.4069 28.858 18.1826 28.8474 17.9066C28.8411 17.7414 28.8317 17.577 28.8192 17.4135Z"/>
<path fill-rule="evenodd" clip-rule="evenodd" d="M12.8333 4.87822C12.8333 3.89322 13.6318 3.09473 14.6168 3.09473H17.2165C18.2015 3.09473 19 3.89323 19 4.87822L19 5.83333H24.0713C24.2771 5.158 24.905 4.66667 25.6476 4.66667C26.5576 4.66667 27.2952 5.40432 27.2952 6.31427C27.2952 7.22421 26.5576 7.96186 25.6476 7.96186C24.9191 7.96186 24.3009 7.48895 24.0835 6.83333H21.6062C25.0243 8.49212 27.597 11.6205 28.5028 15.3973C28.5676 15.6675 28.3882 15.9323 28.1152 15.9842C27.8455 16.0354 27.5859 15.8593 27.5209 15.5925C26.4922 11.3668 23.1993 8.02763 19 6.93275L19 7.4779C19 8.4629 18.2015 9.26139 17.2165 9.26139H14.6168C13.6318 9.26139 12.8333 8.46289 12.8333 7.4779V6.97753C7.97632 8.32029 4.3704 12.676 4.15338 17.9069C4.14193 18.1828 3.91917 18.4069 3.64302 18.4069C3.36688 18.4069 3.14202 18.1826 3.15258 17.9066C3.33921 13.0289 6.24317 8.84761 10.3938 6.83333H7.7118C7.49435 7.48895 6.87622 7.96186 6.14764 7.96186C5.23769 7.96186 4.50004 7.22421 4.50004 6.31427C4.50004 5.40432 5.23769 4.66667 6.14764 4.66667C6.89027 4.66667 7.51815 5.158 7.72394 5.83333H12.8334L12.8333 4.87822ZM17.2165 4.08547H14.6168C14.179 4.08547 13.824 4.4404 13.824 4.87822V7.4779C13.824 7.91572 14.179 8.27065 14.6168 8.27065H17.2165C17.6543 8.27065 18.0092 7.91572 18.0092 7.4779V4.87822C18.0092 4.4404 17.6543 4.08547 17.2165 4.08547ZM5.50004 6.31427C5.50004 6.67192 5.78998 6.96186 6.14764 6.96186C6.50529 6.96186 6.79523 6.67192 6.79523 6.31427C6.79523 5.95661 6.50529 5.66667 6.14764 5.66667C5.78998 5.66667 5.50004 5.95661 5.50004 6.31427ZM25 6.31427C25 6.67192 25.29 6.96186 25.6476 6.96186C26.0053 6.96186 26.2952 6.67192 26.2952 6.31427C26.2952 5.95661 26.0053 5.66667 25.6476 5.66667C25.29 5.66667 25 5.95661 25 6.31427Z"/>
<path fill-rule="evenodd" clip-rule="evenodd" d="M21.199 19.3552C21.2349 19.2146 21.2079 19.0653 21.1251 18.9461L16.3102 12.0205L16.3189 20.1606C17.0476 20.3308 17.5904 20.9846 17.5904 21.7651C17.5904 22.6751 16.8527 23.4127 15.9428 23.4127C15.0328 23.4127 14.2952 22.6751 14.2952 21.7651C14.2952 21.0138 14.798 20.38 15.4855 20.1818L15.4891 12.0205L10.6724 18.9488C10.5899 19.0675 10.5628 19.216 10.598 19.3562L11.2031 21.7627C11.2658 22.0118 11.1295 22.2678 10.8878 22.355C10.6096 22.4553 10.3055 22.2934 10.2333 22.0065L9.5173 19.1588C9.48206 19.0187 9.50918 18.8701 9.59167 18.7515L15.4891 10.2687C15.688 9.98254 16.1113 9.98254 16.3102 10.2687L22.207 18.7506C22.2899 18.8698 22.3169 19.0191 22.281 19.1597L20.559 25.9052C21.4582 25.9052 22.3189 26.3918 22.3189 27.4052C22.3189 28.2336 21.6473 28.9052 20.8189 28.9052H11.1522C10.3238 28.9052 9.6522 28.2336 9.6522 27.4052C9.6522 26.5397 10.3743 25.9052 11.2136 25.9052L10.7235 23.9559C10.6608 23.7067 10.7971 23.4507 11.0388 23.3636C11.317 23.2632 11.6211 23.4251 11.6933 23.712L12.1449 25.5083C12.2008 25.7306 12.388 25.9052 12.6172 25.9052H19.1445C19.373 25.9052 19.5713 25.7315 19.6278 25.5101L21.199 19.3552ZM20.8189 27.9052C21.095 27.9052 21.3189 27.6814 21.3189 27.4052C21.3189 27.1291 21.095 26.9052 20.8189 26.9052H11.1522C10.8761 26.9052 10.6522 27.1291 10.6522 27.4052C10.6522 27.6814 10.8761 27.9052 11.1522 27.9052H20.8189Z"/>
</svg>
