<svg width="24" height="24" viewBox="0 0 24 24" fill="currentColor" xmlns="http://www.w3.org/2000/svg">
<path fill-rule="evenodd" clip-rule="evenodd" d="M21.2071 6.12286C21.5976 6.51339 21.5976 7.14655 21.2071 7.53708L13.7023 15.0419C12.642 16.1022 11.5205 17.449 10.0451 17.9284C8.30974 18.4922 6.58149 18.0388 5.22358 16.886C4.36505 16.1572 3.58867 15.3329 2.79289 14.5371C2.40237 14.1466 2.40237 13.5134 2.79289 13.1229C3.18342 12.7323 3.81658 12.7323 4.20711 13.1229C4.96432 13.8801 5.70105 14.6678 6.51794 15.3613C7.35274 16.07 8.34419 16.3781 9.42705 16.0263C10.5677 15.6557 11.5084 14.4073 12.3184 13.5974L19.7929 6.12286C20.1834 5.73234 20.8166 5.73234 21.2071 6.12286Z"/>
</svg>
