<svg xmlns="http://www.w3.org/2000/svg" width="24" height="24" fill="currentColor" viewBox="0 0 24 24">
  <path fill-rule="evenodd" d="M21.207 6.121a1 1 0 0 1 0 1.415l-7.505 7.504c-.766.767-1.384 1.385-1.926 1.845-.557.473-1.099.836-1.73 1.042a5.001 5.001 0 0 1-3.091 0c-.632-.206-1.174-.57-1.731-1.043-.542-.46-1.16-1.077-1.926-1.844l-.505-.504a1 1 0 1 1 1.414-1.415l.475.475c.803.803 1.364 1.363 1.836 1.764.463.393.774.573 1.055.665a3 3 0 0 0 1.854 0c.281-.092.592-.272 1.055-.665.472-.4 1.033-.96 1.836-1.764l7.475-7.475a1 1 0 0 1 1.414 0Z" clip-rule="evenodd"/>
</svg>
