<svg xmlns="http://www.w3.org/2000/svg" fill="currentColor" viewBox="0 0 32 32">
  <path d="M11.167 22A1.833 1.833 0 1 1 7.5 22a1.833 1.833 0 0 1 3.667 0Zm5.166 3.042a1.833 1.833 0 1 1-3.666 0 1.833 1.833 0 0 1 3.666 0Zm6.334-1.166a1.833 1.833 0 1 1-3.667 0 1.833 1.833 0 0 1 3.667 0Zm-8.834-16a1.833 1.833 0 1 1-3.666 0 1.833 1.833 0 0 1 3.666 0Zm13 11a1.833 1.833 0 1 1-3.666 0 1.833 1.833 0 0 1 3.666 0Zm-5.806-5.408a.5.5 0 1 0-.884.468l.037.07c.123.244.403.377.66.286a.467.467 0 0 0 .28-.639 5.531 5.531 0 0 0-.093-.185Zm.628 2.219c-.02-.314-.342-.502-.639-.397a.552.552 0 0 0-.354.552 4.497 4.497 0 0 1-2.245 4.097 4.5 4.5 0 0 1-6.062-1.505.5.5 0 1 0-.847.531 5.5 5.5 0 0 0 10.147-3.278Z"/>
  <path d="M13.407 2.785C8.743 3.845 5.26 6.889 3.352 11.537c-.939 2.287-.908 6.133.06 8.996 1.5 4.436 5.77 8.01 10.525 8.798.97.166 3.56.166 4.543.015.954-.151 2.68-.621 2.878-.772a2.42 2.42 0 0 1 .514-.228c.53-.166 2.12-1.12 2.878-1.726 2.074-1.666 3.377-3.634 4.164-6.239.53-1.756.56-4.058.076-5.466-.773-2.242-2.18-3.605-4.437-4.286-.666-.197-.742-.09.969-1.378 2.18-1.636 3.786-3.453 3.786-4.27 0-.152-.152-.44-.318-.621-.303-.333-.424-.349-1.56-.288-1.136.076-2.998.56-3.331.893a.631.631 0 0 1-.364.137c-.394 0-4.452 1.999-6.178 3.043-.258.152-.515.243-.56.182-.182-.182-.107-1.332.12-1.711.788-1.393 1-1.984.91-2.453-.122-.515-.455-.94-1.091-1.363-.53-.333-2.09-.348-3.529-.015Zm3.15 1.045c.47.318.424.817-.151 1.847-.454.788-.5.97-.5 2.166V9.16l-1.211.878c-.667.5-1.379 1.015-1.59 1.151-.213.136-.697.56-1.106.924-.666.636-.757.666-1.378.606-1.075-.121-1.893.348-2.71 1.59-1.424 2.135-1.909 3.316-1.47 3.589.091.06 1.06.09 2.166.09 1.696 0 2.12-.045 2.74-.317.803-.334 1.046-.576 1.379-1.303.151-.348.394-.53.939-.727 2.06-.742 2.892-1.09 4.755-2.044 2.105-1.075 2.922-1.514 3.558-1.938.5-.318 2.105-.167 3.15.318.818.378 1.832 1.257 2.272 1.953.893 1.439 1.135 4.165.545 6.012-.167.515-.303 1-.303 1.06 0 .212-1.272 2.332-1.62 2.726-.197.212-.5.59-.667.833-.757 1.09-3.528 2.786-5.588 3.422-.984.303-1.468.348-3.558.348-2.241.015-2.514-.015-3.559-.393-1.71-.606-2.256-.848-3.331-1.56-3.513-2.287-5.603-6.179-5.603-10.449 0-3.513 1.302-6.45 3.998-8.95 1.817-1.71 3.8-2.71 6.526-3.286.757-.166 2-.09 2.317.137ZM27.93 5.586c-.47.651-.863 1.03-1.878 1.863-.485.394-.984.802-1.09.893a7.45 7.45 0 0 1-.833.621 170.86 170.86 0 0 0-2.771 1.848c-.076.075-.318.212-.53.318a44.45 44.45 0 0 0-1.59.863c-.667.363-1.273.666-1.333.666-.06.015-.227-.242-.364-.56-.12-.303-.439-.863-.681-1.227l-.454-.681.363-.273c.455-.348 2.075-1.302 3.15-1.847.454-.227 1.136-.59 1.514-.803a27.25 27.25 0 0 1 1.59-.742c.5-.197 1.03-.439 1.166-.515.5-.272 2.18-.787 2.923-.893 1.075-.152 1.196-.076.818.47Zm-11.963 5.86c.257.319.469.652.469.712 0 .076.106.334.227.576.136.242.212.454.197.47-.045.03-1.136.53-1.863.847-.166.06-.575.227-.908.333-.333.122-.727.273-.863.334-.212.075-.303 0-.44-.318a3.125 3.125 0 0 0-.393-.712c-.227-.242-.227-.288.106-.606.53-.485 2.786-2.226 2.907-2.226.046 0 .303.273.56.59ZM11.06 13.96c1.106.53 1.106 2.166-.015 2.696-.379.182-.939.257-1.953.257-.788 0-1.439-.045-1.439-.09 0-.243 1.272-2.227 1.696-2.666.227-.227.56-.363 1-.409.12 0 .439.091.711.212Z"/>
  <path d="M11.06 13.96c1.106.53 1.106 2.166-.015 2.696-.379.182-.939.257-1.953.257-.788 0-1.439-.045-1.439-.09 0-.243 1.272-2.227 1.696-2.666.227-.227.56-.363 1-.409.12 0 .439.091.711.212Z"/>
</svg>
