<svg xmlns="http://www.w3.org/2000/svg" width="32" height="32" fill="currentColor" viewBox="0 0 32 32">
  <path fill-rule="evenodd" d="m11.614 17.028 2.603.047c.344.003.62.284.617.628l-.047 2.603a.622.622 0 1 1-1.245-.01l.035-1.1L2.439 30.148a.623.623 0 0 1-.873-.887l11.138-10.953-1.1-.035a.623.623 0 1 1 .01-1.245Zm4.526 4.444h2.604c.344 0 .622.279.622.623v2.603a.623.623 0 1 1-1.245 0v-1.1l-6.547 6.547a.623.623 0 0 1-.88-.88l6.547-6.548h-1.1a.623.623 0 0 1 0-1.245ZM7.009 12.61h2.603c.344 0 .623.28.623.623v2.604a.623.623 0 1 1-1.246 0v-1.1l-6.547 6.546a.622.622 0 1 1-.88-.88l6.547-6.547h-1.1a.623.623 0 1 1 0-1.245ZM5.144 7.195h2.603c.344 0 .623.28.623.623v2.603a.623.623 0 1 1-1.245 0v-1.1l-4.687 4.36a.623.623 0 0 1-.88-.881l4.686-4.36h-1.1a.623.623 0 1 1 0-1.245Zm16.391 16.78h2.603c.344 0 .623.28.623.623V27.2a.623.623 0 0 1-1.245 0v-1.1l-4.66 4.432a.623.623 0 1 1-.88-.88l4.66-4.432h-1.1a.623.623 0 1 1 0-1.246ZM21.72 3.51a.623.623 0 0 1-.622-.623v-.98a.623.623 0 0 1 1.245 0v.98a.623.623 0 0 1-.623.622Zm4.724 1.956a.623.623 0 0 1 0-.88l.692-.693a.622.622 0 1 1 .88.88l-.692.693a.623.623 0 0 1-.88 0ZM28.4 10.19c0-.344.28-.623.623-.623h.98a.623.623 0 1 1 0 1.245h-.98a.623.623 0 0 1-.623-.623Zm-1.956 4.723a.623.623 0 0 1 .88 0l.693.692a.622.622 0 1 1-.88.88l-.693-.691a.623.623 0 0 1 0-.881Zm-4.724 4.181a.623.623 0 0 1-.622-.623v-.979a.623.623 0 0 1 1.245 0v.98a.623.623 0 0 1-.623.622Zm-6.296-2.608a.623.623 0 0 1 0-.88l.692-.693a.623.623 0 0 1 .88.88l-.692.693a.623.623 0 0 1-.88 0Zm-2.608-6.296c0-.344.278-.623.622-.623h.98a.623.623 0 1 1 0 1.245h-.98a.623.623 0 0 1-.623-.623Zm2.608-6.297a.623.623 0 0 1 .88 0l.693.692a.623.623 0 0 1-.881.88l-.692-.692a.622.622 0 0 1 0-.88Z" clip-rule="evenodd"/>
  <path fill-rule="evenodd" d="M21.72 5.198a4.992 4.992 0 1 0 0 9.983 4.992 4.992 0 0 0 0-9.983Zm-6.237 4.992a6.237 6.237 0 1 1 12.474 0 6.237 6.237 0 0 1-12.474 0Z" clip-rule="evenodd"/>
  <path fill-rule="evenodd" d="M20.758 7.148a1.096 1.096 0 0 1 1.924 0l.595 1.09 1.221.23a1.096 1.096 0 0 1 .595 1.83l-.854.902.16 1.232a1.096 1.096 0 0 1-1.556 1.131l-1.123-.532-1.122.532a1.096 1.096 0 0 1-1.557-1.13l.16-1.233-.854-.903a1.096 1.096 0 0 1 .595-1.83l1.221-.229.595-1.09Zm.962.836-.498.913a1.093 1.093 0 0 1-.76.552l-1.022.192.714.755c.226.24.333.568.29.894l-.133 1.031.94-.446c.296-.14.642-.14.94 0l.938.446-.133-1.03a1.096 1.096 0 0 1 .29-.895L24 9.641l-1.022-.192a1.096 1.096 0 0 1-.76-.552l-.498-.913Z" clip-rule="evenodd"/>
</svg>
