<svg xmlns="http://www.w3.org/2000/svg" width="32" height="32" fill="currentColor" viewBox="0 0 32 32">
  <path d="M9.713 1.994c2.97 3.438 6.135 5.996 9.419 7.608.663.327.164 1.341-.507 1.021-3.034-1.49-5.976-3.755-8.75-6.733-.089-.097-.223.02-.175.13 1.215 2.027 2.63 3.811 4.212 5.31 2.696 2.557 5.84 4.242 9.35 5.02.304.07.489.367.435.668l-.112.582c-.014.082.078.17.157.115l2.776-1.56c.171-.096.21-.323.095-.486l-1.973-2.5c-.054-.07-.17-.04-.194.043l-.112.582a.578.578 0 0 1-.592.461c-.055-.005-1.407-.088-3.58-.949-.675-.264-.282-1.343.42-1.06 1.195.471 2.121.693 2.687.795.032.004.06-.014.063-.046l.285-1.445c.077-.475.726-.614 1.013-.243 0 0 3.333 4.205 3.532 4.477.2.272.154.684-.164.854l-4.965 2.798c-.408.25-.936-.152-.844-.602l.282-1.438c.001-.03-.009-.06-.04-.066-3.472-.877-6.601-2.61-9.295-5.162C11.098 8.235 9.35 5.898 7.94 3.21c-.492-1.122.922-2.185 1.772-1.215Zm19.714 26.459c.738 0 .745-1.14-.016-1.14h-.825a.327.327 0 0 1-.325-.325v-4.031c0-.613-.5-1.113-1.112-1.113h-2.903c-.613 0-1.113.5-1.113 1.113v4.031c0 .456-1.003.487-1.003 0v-1.801c0-.757-1.14-.742-1.14.016v1.785c0 .18-.146.326-.325.326h-2.198a.327.327 0 0 1-.326-.326v-6.646c0-.18.147-.326.326-.326h2.198c.179 0 .325.146.325.326v3.212c0 .757 1.14.741 1.14-.017V19.99c0-.613-.5-1.113-1.113-1.113h-2.903c-.613 0-1.112.5-1.112 1.113v7c0 .455-1.004.486-1.004 0v-9.97c0-.613-.499-1.113-1.112-1.113h-2.903c-.613 0-1.112.5-1.112 1.113v9.967c0 .487-1.004.456-1.004 0V14.053c0-.613-.5-1.113-1.113-1.113H5.852c-.614 0-1.113.5-1.113 1.113v4.162c0 .734 1.14.734 1.14 0v-3.81c0-.179.146-.325.325-.325h2.198c.179 0 .325.146.325.325v12.583c0 .18-.146.326-.325.326H6.204a.327.327 0 0 1-.325-.326v-7.146c0-.756-1.14-.741-1.14.017v7.124a.327.327 0 0 1-.325.325h-.825c-.76 0-.754 1.14-.016 1.14h25.854v.005Zm-14.91-11.405c.179 0 .325.146.325.326v9.614c0 .18-.146.326-.325.326h-2.198a.327.327 0 0 1-.325-.326v-9.614c0-.18.146-.326.325-.326h2.198Zm12.274 5.936c.178 0 .325.146.325.325v3.68a.326.326 0 0 1-.325.325h-2.198a.327.327 0 0 1-.326-.326V23.31c0-.18.147-.326.326-.326h2.198Z"/>
</svg>
