<svg xmlns="http://www.w3.org/2000/svg" fill="currentColor" viewBox="0 0 32 32">
  <path d="M8.208 20.325H6.27a.527.527 0 0 0-.527.528v1.937c0 .292.236.528.527.528h1.938a.527.527 0 0 0 .527-.528v-1.937a.527.527 0 0 0-.527-.528Zm-.527 1.938h-.883v-.883h.883v.883Zm4.823-1.938h-1.938a.527.527 0 0 0-.527.528v1.937c0 .292.236.528.527.528h1.938a.527.527 0 0 0 .527-.528v-1.937a.527.527 0 0 0-.527-.528Zm-.528 1.938h-.883v-.883h.883v.883Zm-3.768 2.132H6.27a.527.527 0 0 0-.527.527v1.938c0 .291.236.527.527.527h1.938a.527.527 0 0 0 .527-.527v-1.938a.527.527 0 0 0-.527-.527Zm-.527 1.938h-.883v-.883h.883v.883Zm4.823-1.938h-1.938a.527.527 0 0 0-.527.527v1.938c0 .291.236.527.527.527h1.938a.527.527 0 0 0 .527-.527v-1.938a.527.527 0 0 0-.527-.527Zm-.528 1.938h-.883v-.883h.883v.883Zm-1.46-10.205a.53.53 0 0 0-.9.373.53.53 0 0 0 .527.527.531.531 0 0 0 .373-.9Z"/>
  <path d="M28.973 28.445h-.528V15.047a.527.527 0 0 0-.527-.527h-2.525V7.727a.527.527 0 0 0-.28-.466l-8.86-4.7a.527.527 0 0 0-.774.466v5.38h-5.336a.527.527 0 0 0-.528.527v5.47a.527.527 0 0 0 1.055 0V9.46h7.172v2.106h-1.835a.527.527 0 0 0 0 1.055h1.835v1.898h-1.835a.527.527 0 0 0 0 1.055h1.835v1.898h-1.835a.527.527 0 0 0 0 1.055h1.835v1.898h-1.835a.527.527 0 0 0 0 1.055h1.835v1.898h-1.835a.527.527 0 0 0 0 1.055h1.835v1.899h-1.835a.527.527 0 0 0 0 1.054h1.835v1.058h-2.686v-9.703a.527.527 0 0 0-.527-.527H4.082a.527.527 0 0 0-.527.527v9.703h-.528a.527.527 0 0 0 0 1.055h25.946a.527.527 0 0 0 0-1.055Zm-14.871 0H4.609V19.27h9.493v9.175Zm6.539-13.398v13.398h-1.744V8.934a.527.527 0 0 0-.528-.528h-1.835V3.904l7.805 4.14v6.476h-3.171a.527.527 0 0 0-.527.527Zm6.75 2.426h-2.848a.527.527 0 0 0 0 1.055h2.848v1.898h-2.848a.527.527 0 0 0 0 1.055h2.848v1.898h-2.848a.527.527 0 0 0 0 1.055h2.848v1.899h-1.6a.527.527 0 0 0 0 1.054h1.6v1.058h-5.696v-12.87h5.696v1.898Z"/>
  <path d="M23.773 26.487a.53.53 0 0 0-.746 0 .531.531 0 0 0 0 .746.53.53 0 0 0 .9-.373.528.528 0 0 0-.154-.373ZM20.641 8.46a.527.527 0 0 0-.528.527v.985a.527.527 0 1 0 1.055 0v-.985a.527.527 0 0 0-.527-.527Zm0 3.108a.527.527 0 0 0-.528.527v1.086a.527.527 0 1 0 1.055 0v-1.086a.527.527 0 0 0-.527-.527ZM22.75 8.46a.527.527 0 0 0-.527.527v.985a.527.527 0 1 0 1.054 0v-.985a.527.527 0 0 0-.527-.527Zm0 3.108a.527.527 0 0 0-.527.527v1.086a.527.527 0 1 0 1.054 0v-1.086a.527.527 0 0 0-.527-.527Z"/>
</svg>
