<svg width="32" height="32" viewBox="0 0 32 32" fill="currentColor" xmlns="http://www.w3.org/2000/svg">
<path fill-rule="evenodd" clip-rule="evenodd" d="M6.42573 6.82848C7.77018 5.6358 9.44737 5.04499 11.123 5.04499C11.7784 5.04499 12.4332 5.1355 13.0675 5.31595C13.3449 5.39487 13.6338 5.23397 13.7127 4.95655C13.7916 4.67913 13.6307 4.39026 13.3533 4.31133C12.6255 4.10427 11.8745 4.00051 11.123 4.00051C9.20138 4.00051 7.27504 4.6788 5.73253 6.04719C2.34669 9.05173 2.08575 14.215 5.07041 17.5426C4.36354 18.4336 4.42192 19.7327 5.24555 20.5564C5.74271 21.0535 6.4131 21.2719 7.06241 21.2114C7.01625 21.7079 7.13246 22.2169 7.4148 22.6531C7.57152 22.8952 7.89486 22.9645 8.13699 22.8078C8.37912 22.651 8.44836 22.3277 8.29163 22.0856C7.98732 21.6154 8.03879 20.9733 8.45573 20.5564C8.93372 20.078 9.70993 20.0775 10.1886 20.5562C10.6685 21.036 10.6665 21.8123 10.1889 22.2891C9.96756 22.5101 9.68464 22.6286 9.39581 22.6454C9.10788 22.6622 8.88807 22.9093 8.90485 23.1972C8.92446 23.5335 9.22516 23.7109 9.53387 23.6823C9.47328 24.3318 9.69157 25.0024 10.1888 25.4996C10.7099 26.0207 11.4214 26.2355 12.0995 26.1439C12.1065 26.6248 12.2934 27.1036 12.6603 27.4705C13.3425 28.1527 14.4111 28.2129 15.1614 27.6512C15.6034 28.0932 16.1383 28.3853 16.7789 28.3855C17.3393 28.3861 17.8919 28.1572 18.288 27.7606C18.7213 27.3272 18.929 26.7525 18.9112 26.1855C19.7081 26.319 20.5412 26.0546 21.1128 25.4821C21.5766 25.0182 21.8217 24.4183 21.8481 23.8107C22.7621 24.1509 23.8194 23.9213 24.5087 23.2305C25.1867 22.5525 25.3976 21.5839 25.1409 20.7252C25.7983 20.7232 26.4563 20.4648 26.9501 19.9501C27.5044 19.3734 27.719 18.6042 27.6181 17.8712L27.6205 17.8689C30.9278 14.5615 30.7664 9.15159 27.2678 6.04728C24.1794 3.30702 19.5542 3.33305 16.5001 6.03251C16.0771 5.65854 15.6235 5.33601 15.1477 5.06453C14.8971 4.92161 14.5782 5.00883 14.4353 5.25935C14.2923 5.50987 14.3795 5.82882 14.6301 5.97175C15.0221 6.1954 15.3968 6.45882 15.7483 6.76253L12.396 10.1141C11.4693 11.039 11.4691 12.5883 12.3956 13.5134C13.3337 14.4515 14.8556 14.4515 15.7938 13.5134L19.1598 10.1473L26.1474 17.1349C26.7295 17.717 26.748 18.6531 26.1967 19.2268C25.6221 19.8258 24.6743 19.8325 24.0896 19.2485L21.8598 17.0189C21.6559 16.815 21.3252 16.815 21.1212 17.0189C20.9173 17.2229 20.9173 17.5535 21.1212 17.7575L23.3515 19.9876L23.3524 19.9885C24.0392 20.6752 24.6334 21.6286 23.7696 22.4924C23.2035 23.0601 22.2554 23.0619 21.6841 22.4917L21.114 21.921L21.1125 21.9195L15.4972 16.3043C15.2932 16.1004 14.9626 16.1004 14.7586 16.3043C14.5547 16.5083 14.5547 16.8389 14.7586 17.0429L20.374 22.6581L20.3751 22.6592C20.9502 23.2355 20.9492 24.1686 20.3737 24.7441C19.8081 25.3106 18.8582 25.3148 18.2877 24.7443L12.1002 18.5566C11.8962 18.3527 11.5656 18.3527 11.3616 18.5566C11.1577 18.7606 11.1577 19.0913 11.3616 19.2952L17.5492 25.4829C17.7616 25.6953 17.8678 25.9732 17.8678 26.2526C17.8678 26.8485 17.3706 27.3416 16.7794 27.341C16.3557 27.341 16.0793 27.0919 15.8002 26.8129C16.068 26.126 15.9246 25.3158 15.3699 24.761C15.0029 24.3941 14.5242 24.2071 14.0433 24.2001C14.1349 23.522 13.9201 22.8106 13.399 22.2894C12.9018 21.7923 12.2314 21.5738 11.5821 21.6342C11.6425 20.9855 11.4247 20.3151 10.9272 19.8176C10.4302 19.3206 9.75995 19.1023 9.11078 19.1626C9.17113 18.5134 8.95278 17.8432 8.45573 17.3462C7.76226 16.6527 6.73172 16.5017 5.89148 16.8933C3.24545 13.9954 3.45894 9.46116 6.42573 6.82848ZM18.7905 9.03946C18.9945 8.83551 19.3251 8.83551 19.5291 9.03946C20.864 10.3744 23.0283 10.3744 24.3632 9.03946C24.5672 8.83551 24.8978 8.83551 25.1018 9.03946C25.3057 9.24341 25.3057 9.57408 25.1018 9.77802C24.1316 10.7483 22.8257 11.1783 21.5579 11.0683L26.8859 16.3963C27.0066 16.5169 27.1131 16.6473 27.2053 16.785C29.7486 13.8835 29.5045 9.42827 26.5746 6.82856C23.7754 4.34487 19.5274 4.46898 16.8779 7.10984C15.6602 8.38498 14.3807 9.60669 13.1338 10.8534C12.6104 11.3758 12.6159 12.2576 13.1342 12.7748C13.6644 13.305 14.525 13.305 15.0552 12.7748L18.7905 9.03946ZM7.71717 18.0848C7.2386 17.6062 6.46269 17.6062 5.98412 18.0848C5.50555 18.5633 5.50555 19.3392 5.98412 19.8178C6.46269 20.2964 7.2386 20.2964 7.71717 19.8178C8.19574 19.3392 8.19574 18.5633 7.71717 18.0848ZM12.6604 23.028C12.1818 22.5494 11.4055 22.5497 10.9269 23.0282C10.4483 23.5068 10.4488 24.2825 10.9273 24.761C11.4059 25.2396 12.1818 25.2396 12.6604 24.761C13.139 24.2825 13.139 23.5066 12.6604 23.028ZM13.399 25.4996C13.0587 25.8399 13.0586 26.3917 13.3989 26.732C13.7392 27.0723 14.2909 27.0723 14.6313 26.732C14.9716 26.3917 14.9716 25.8399 14.6313 25.4996C14.291 25.1593 13.7393 25.1593 13.399 25.4996Z"/>
<path fill-rule="evenodd" clip-rule="evenodd" d="M17.8741 13.0332C17.6701 12.8292 17.3394 12.8292 17.1355 13.0332C16.9315 13.2371 16.9315 13.5678 17.1355 13.7717L19.8287 16.4649C20.0326 16.6689 20.3633 16.6689 20.5673 16.4649C20.7712 16.261 20.7712 15.9303 20.5673 15.7264L17.8741 13.0332Z"/>
</svg>
