<svg xmlns="http://www.w3.org/2000/svg" width="32" height="32" fill="currentColor" viewBox="0 0 32 32">
  <path fill-rule="evenodd" d="M11.123 5.045a7.08 7.08 0 0 0-5.005 12.086l.054.053a.522.522 0 0 1-.739.738l-.053-.053c-3.308-3.307-3.146-8.717.353-11.822a8.1 8.1 0 0 1 5.39-2.046c.752 0 1.503.103 2.23.31a.522.522 0 0 1-.285 1.005 7.108 7.108 0 0 0-1.945-.271Zm3.312.214a.522.522 0 0 1 .713-.194 8.103 8.103 0 0 1 1.721 1.315.522.522 0 0 1-.738.738 7.132 7.132 0 0 0-1.5-1.146.522.522 0 0 1-.196-.713Zm4.356 3.78a.522.522 0 0 1 .738 0 3.418 3.418 0 0 0 4.834 0 .522.522 0 0 1 .739.739c-.97.97-2.276 1.4-3.544 1.29l5.328 5.328a2.572 2.572 0 0 1 .732 1.475 2.496 2.496 0 0 1-.668 2.08 2.51 2.51 0 0 1-1.81.774 2.519 2.519 0 0 1-3.292 3.086 2.51 2.51 0 0 1-1.553 2.218 2.515 2.515 0 0 1-1.384.157l.001.067a2.13 2.13 0 0 1-3.641 1.508l-.48-.481a.522.522 0 1 1 .738-.739l.48.481c.213.213.491.319.77.319h.001a1.087 1.087 0 0 0 .769-.318c.213-.213.319-.491.319-.77 0-.28-.106-.558-.319-.77a.522.522 0 1 1 .739-.739 1.471 1.471 0 0 0 2.086 0 1.475 1.475 0 0 0 .001-2.085h-.001v-.001a.522.522 0 0 1 .739-.739l.001.002.57.57a1.47 1.47 0 0 0 2.085 0h.001a1.475 1.475 0 0 0 0-2.085l-.418-.418a.522.522 0 0 1 .738-.74 1.47 1.47 0 0 0 1.043.433c.388 0 .773-.151 1.064-.454.551-.574.533-1.51-.05-2.092l-6.987-6.988-.37-.369a.522.522 0 0 1 0-.739Z" clip-rule="evenodd"/>
  <path fill-rule="evenodd" d="M5.246 17.346a2.27 2.27 0 1 1 3.21 3.21 2.27 2.27 0 0 1-3.21-3.21Zm2.471.739a1.225 1.225 0 1 0-1.733 1.733 1.225 1.225 0 0 0 1.733-1.733Z" clip-rule="evenodd"/>
  <path fill-rule="evenodd" d="M7.717 19.818a2.27 2.27 0 1 1 1.74 3.87.522.522 0 0 1-.061-1.043c.289-.016.572-.135.793-.356m-2.472-2.471a2.264 2.264 0 0 0-.664 1.604c0 .428.12.857.362 1.231a.522.522 0 0 0 .877-.567 1.22 1.22 0 0 1 .164-1.53 1.225 1.225 0 1 1 1.733 1.733m-2.472-2.471Z" clip-rule="evenodd"/>
  <path fill-rule="evenodd" d="M10.189 22.29a2.27 2.27 0 1 1 3.21 3.21 2.27 2.27 0 0 1-3.21-3.21Zm2.471.738a1.225 1.225 0 1 0-1.733 1.733 1.225 1.225 0 0 0 1.733-1.733Z" clip-rule="evenodd"/>
  <path fill-rule="evenodd" d="M17.136 13.033a.522.522 0 0 1 .738 0l2.693 2.693a.522.522 0 0 1-.738.739l-2.694-2.693a.522.522 0 0 1 0-.739Zm-2.377 3.271a.522.522 0 0 1 .738 0l5.615 5.616a.522.522 0 1 1-.738.738l-5.615-5.615a.522.522 0 0 1 0-.739Zm6.362.715a.522.522 0 0 1 .739 0l2.23 2.23a.522.522 0 0 1-.739.738l-2.23-2.23a.522.522 0 0 1 0-.738Zm-9.76 1.538a.522.522 0 0 1 .74 0l6.187 6.187a.522.522 0 0 1-.739.739l-6.187-6.188a.522.522 0 0 1 0-.738Zm1.3 6.204a1.916 1.916 0 1 1 2.709 2.71 1.916 1.916 0 0 1-2.71-2.71Zm.738.739a.871.871 0 1 0 1.232 1.232A.871.871 0 0 0 13.4 25.5Z" clip-rule="evenodd"/>
  <path d="M16.5 6.033c.126.11.25.227.37.347a.522.522 0 0 1-.74.738 7.132 7.132 0 0 0-.382-.355l-3.352 3.351a2.402 2.402 0 1 0 3.398 3.4l3.366-3.367-.37-.369a.522.522 0 0 1 0-.739l-3.735 3.736c-.53.53-1.39.53-1.92 0h-.001a1.356 1.356 0 0 1-.398-.96v-.001a1.356 1.356 0 0 1 .398-.96l3.735-3.736.009-.008a7.08 7.08 0 0 1 10.327 9.675c.222.33.36.703.413 1.086l.003-.002A8.125 8.125 0 0 0 16.5 6.033Z"/>
</svg>
