<svg width="32" height="32" viewBox="0 0 32 32" fill="currentColor" xmlns="http://www.w3.org/2000/svg">
<path d="M23.4376 24.9048H6.09529C5.35833 24.9048 5.35832 26.0477 6.09529 26.0477H23.4376C24.1745 26.0477 24.1747 24.9048 23.4376 24.9048Z"/>
<path fill-rule="evenodd" clip-rule="evenodd" d="M18.2857 8.70339C23.817 9.81887 27.5 14.7749 27.5 20.3096C29.843 20.3096 29.873 23.9286 27.5238 23.9286H4.47619C2.12701 23.9286 2.15696 20.3096 4.5 20.3096C4.5 14.7748 8.18298 9.81882 13.7143 8.70338C13.7143 5.19546 18.2857 5.19548 18.2857 8.70339ZM14.8572 8.42858H17.1429C17.1429 6.72537 14.8572 6.72537 14.8572 8.42858ZM26.3571 20.3096H5.64285C5.64285 14.5451 10.0939 9.61909 16 9.61909C21.9061 9.61909 26.3571 14.5451 26.3571 20.3096Z"/>
<path d="M15.3554 11.8845C16.0635 11.8259 15.9567 10.6874 15.2561 10.7458C14.552 10.8046 14.6568 11.9424 15.3554 11.8845Z"/>
<path d="M13.6603 11.6417C13.5812 11.3273 13.2564 11.1395 12.9516 11.2499C12.3961 11.4511 11.8597 11.7075 11.3507 12.0169C10.1623 12.7391 9.16076 13.7268 8.4229 14.8995C8.25483 15.1666 8.35899 15.5147 8.63627 15.6654C8.91355 15.8161 9.25874 15.7121 9.4293 15.4466C9.8785 14.7473 10.4376 14.1224 11.0869 13.5969C11.7448 13.0644 12.4832 12.6438 13.2724 12.3497C13.5606 12.2422 13.7354 11.94 13.6603 11.6417Z"/>
<path d="M26.4762 25.4762C26.4762 26.2456 25.1482 26.2436 25.152 25.4735C25.1556 24.7076 26.4762 24.7097 26.4762 25.4762Z"/>
</svg>
