<svg xmlns="http://www.w3.org/2000/svg" fill="currentColor" viewBox="0 0 32 32">
  <path d="M25.152 25.474a.572.572 0 0 0 .571.574h.182a.571.571 0 0 0 0-1.143h-.182a.572.572 0 0 0-.571.569Zm-1.142.005a.571.571 0 0 0-.572-.574H6.095a.571.571 0 1 0 0 1.143h17.343c.314 0 .57-.254.571-.569Z"/>
  <path fill-rule="evenodd" d="M13.714 8.238a2.286 2.286 0 0 1 4.572 0v.465c5.256 1.06 9.214 5.705 9.214 11.273v.334h.024a1.81 1.81 0 1 1 0 3.619H4.476a1.81 1.81 0 1 1 0-3.62H4.5v-.333c0-5.568 3.958-10.213 9.214-11.273v-.465Zm3.429 0v.19h-2.286v-.19a1.143 1.143 0 1 1 2.286 0Zm9.214 11.738v.334H5.643v-.334C5.643 14.256 10.28 9.62 16 9.62s10.357 4.637 10.357 10.357Z" clip-rule="evenodd"/>
  <path d="M14.804 11.502a.52.52 0 0 0 .551.382.521.521 0 0 0 .486-.52l-.002-.076a.545.545 0 0 0-.583-.542.543.543 0 0 0-.47.684l.018.072Zm-1.144.14a.545.545 0 0 0-.708-.392 8.949 8.949 0 0 0-4.53 3.65.544.544 0 0 0 .214.765.605.605 0 0 0 .793-.218 7.81 7.81 0 0 1 3.843-3.097.606.606 0 0 0 .388-.708Z"/>
</svg>
