<svg width="32" height="32" viewBox="0 0 32 32" fill="currentColor" xmlns="http://www.w3.org/2000/svg">
<path fill-rule="evenodd" clip-rule="evenodd" d="M4.68068 16.9908C4.68068 18.4578 5.86993 19.6471 7.33692 19.6471C8.80398 19.6471 9.99317 18.4578 9.99317 16.9908C9.99317 15.5238 8.80398 14.3346 7.33692 14.3346C5.86993 14.3346 4.68068 15.5238 4.68068 16.9908Z"/>
<path fill-rule="evenodd" clip-rule="evenodd" d="M29.4375 19.1151C29.4375 20.1046 28.6353 20.9068 27.6458 20.9068H25.8952V22.7631C25.8952 23.7526 25.0931 24.5548 24.1036 24.5548H22.3529V25.8444C22.3529 26.834 21.5508 27.6361 20.5613 27.6361H4.35423C3.36472 27.6361 2.56256 26.834 2.56256 25.8444V12.8848C2.56256 11.8953 3.36472 11.0931 4.35423 11.0931H6.10487V9.80346C6.10487 8.81395 6.90702 8.0118 7.89653 8.0118H9.64712V6.1555C9.64712 5.16599 10.4493 4.36383 11.4388 4.36383H27.6458C28.6353 4.36383 29.4375 5.16599 29.4375 6.1555V19.1151ZM10.8971 6.1555C10.8971 5.85634 11.1396 5.61383 11.4388 5.61383H27.6458C27.945 5.61383 28.1875 5.85634 28.1875 6.1555V19.1151C28.1875 19.4143 27.945 19.6568 27.6458 19.6568H25.8952V9.80346C25.8952 8.81395 25.0931 8.0118 24.1036 8.0118H10.8971V6.1555ZM7.35487 9.80346C7.35487 9.50431 7.59738 9.2618 7.89653 9.2618H24.1036C24.4027 9.2618 24.6452 9.50431 24.6452 9.80346V22.7631C24.6452 23.0623 24.4027 23.3048 24.1036 23.3048H22.3529V22.5198C22.3529 22.1746 22.0731 21.8948 21.7279 21.8948C21.3827 21.8948 21.1029 22.1746 21.1029 22.5198V25.8444C21.1029 26.2376 20.8203 26.4062 20.4288 26.3861C20.5891 25.8869 20.5354 25.314 20.189 24.8183L16.494 19.5297C15.7809 18.509 14.2697 18.509 13.5566 19.5297L11.686 22.2071L11.4294 21.8398C10.7163 20.8192 9.20513 20.8192 8.49199 21.8398L5.3156 26.3861H4.35423C4.05507 26.3861 3.81256 26.1436 3.81256 25.8444V12.8848C3.81256 12.5856 4.05507 12.3431 4.35423 12.3431H20.5613C20.8604 12.3431 21.1029 12.5856 21.1029 12.8848V20.4166C21.1029 20.7618 21.3827 21.0416 21.7279 21.0416C22.0731 21.0416 22.3529 20.7618 22.3529 20.4166V12.8848C22.3529 11.8953 21.5508 11.0931 20.5613 11.0931H7.35487V9.80346Z"/>
</svg>
