<svg xmlns="http://www.w3.org/2000/svg" width="32" height="32" fill="currentColor" viewBox="0 0 32 32">
  <path fill-rule="evenodd" d="M24.802 20.282c0 .345.28.625.625.625h2.219a1.79 1.79 0 0 0 1.791-1.792V6.155c0-.989-.802-1.791-1.791-1.791H11.439c-.99 0-1.792.802-1.792 1.792v2.318a.625.625 0 0 0 1.25 0V6.155c0-.299.243-.541.542-.541h16.207a.54.54 0 0 1 .541.542v12.96a.54.54 0 0 1-.541.54h-2.219a.625.625 0 0 0-.625.626Z" clip-rule="evenodd"/>
  <path fill-rule="evenodd" d="M21.287 23.93c0 .345.28.625.625.625h2.192c.989 0 1.791-.802 1.791-1.792V9.803a1.79 1.79 0 0 0-1.791-1.791H7.896c-.99 0-1.792.802-1.792 1.791v1.77a.625.625 0 1 0 1.25 0v-1.77a.54.54 0 0 1 .541-.541h16.207c.3 0 .542.242.542.541v12.96a.54.54 0 0 1-.541.542h-2.192a.625.625 0 0 0-.625.625Z" clip-rule="evenodd"/>
  <path fill-rule="evenodd" d="M2.563 25.844c0 .99.802 1.792 1.791 1.792h16.207c.99 0 1.792-.802 1.792-1.792V22.52a.625.625 0 1 0-1.25 0v3.324c0 .3-.243.542-.542.542H4.354a.542.542 0 0 1-.541-.542v-12.96a.54.54 0 0 1 .541-.54h16.207c.3 0 .542.242.542.54v7.533a.625.625 0 1 0 1.25 0v-7.532c0-.99-.802-1.792-1.792-1.792H4.354a1.79 1.79 0 0 0-1.791 1.792v12.96Z" clip-rule="evenodd"/>
  <path d="m5.641 27.011 3.363-4.813a1.167 1.167 0 0 1 1.913 0l2.081 2.978a1.167 1.167 0 0 1-.956 1.835h-6.4Z"/>
  <path fill-rule="evenodd" d="M5.087 27.3a.625.625 0 0 0 .554.336h6.4c1.45 0 2.3-1.63 1.47-2.818l-2.082-2.978a1.792 1.792 0 0 0-2.937 0l-3.363 4.813a.625.625 0 0 0-.042.647Zm1.753-.914 2.677-3.83a.542.542 0 0 1 .888 0l2.08 2.978a.542.542 0 0 1-.443.852H6.84Z" clip-rule="evenodd"/>
  <path d="M15.982 19.888a1.167 1.167 0 0 0-1.913 0l-1.916 2.742c-.28.402-.28.935 0 1.337l1.779 2.546c.218.312.575.498.956.498h3.832c.944 0 1.497-1.061.957-1.835l-3.695-5.288Z"/>
  <path fill-rule="evenodd" d="M14.888 26.386a.542.542 0 0 1-.444-.231l-1.779-2.547a.542.542 0 0 1 0-.62l1.916-2.742a.542.542 0 0 1 .888 0l3.695 5.288a.542.542 0 0 1-.444.852h-3.832Zm-1.469.485c.335.48.884.765 1.47.765h3.831c1.45 0 2.299-1.63 1.469-2.818l-3.695-5.288a1.792 1.792 0 0 0-2.938 0l-1.916 2.742a1.792 1.792 0 0 0 0 2.053l1.78 2.546Z" clip-rule="evenodd"/>
  <path d="M9.368 16.99a2.031 2.031 0 1 1-4.062 0 2.031 2.031 0 0 1 4.062 0Z"/>
  <path fill-rule="evenodd" d="M4.68 16.99a2.656 2.656 0 1 0 5.313 0 2.656 2.656 0 0 0-5.312 0Zm2.657 1.407a1.406 1.406 0 1 1 0-2.812 1.406 1.406 0 0 1 0 2.812Z" clip-rule="evenodd"/>
</svg>
