<svg xmlns="http://www.w3.org/2000/svg" width="32" height="32" fill="currentColor" viewBox="0 0 32 32">
  <path d="M3.573 28.453a.566.566 0 0 1-.57-.624.584.584 0 0 1 .586-.515h.825a.326.326 0 0 0 .325-.326v-4.031c0-.613.5-1.113 1.112-1.113h2.903c.614 0 1.113.5 1.113 1.113v4.031c0 .18.146.326.325.326h.353a.327.327 0 0 0 .325-.326v-1.801a.57.57 0 0 1 .57-.57h.055a.584.584 0 0 1 .515.586v1.785c0 .18.146.326.326.326h2.197a.327.327 0 0 0 .326-.326v-6.646a.327.327 0 0 0-.326-.326h-2.197a.327.327 0 0 0-.326.326v3.212a.57.57 0 0 1-.57.57h-.054a.584.584 0 0 1-.515-.587V19.99c0-.613.499-1.113 1.112-1.113h2.903c.613 0 1.112.5 1.112 1.113v7c0 .178.147.325.326.325h.352c.18 0 .326-.147.326-.326v-9.967c0-.613.5-1.113 1.112-1.113h2.903c.613 0 1.113.5 1.113 1.113v9.967c0 .18.146.326.325.326h.353a.326.326 0 0 0 .325-.326V14.053c0-.613.5-1.113 1.113-1.113h2.902c.614 0 1.113.5 1.113 1.113v4.162a.57.57 0 1 1-1.14 0v-3.81a.327.327 0 0 0-.325-.325h-2.198a.327.327 0 0 0-.325.325v12.583c0 .18.146.326.325.326h2.198a.326.326 0 0 0 .325-.326v-7.146a.57.57 0 0 1 .57-.57h.054a.584.584 0 0 1 .516.587v7.124c0 .179.146.325.325.325h.825c.304 0 .559.228.586.516a.566.566 0 0 1-.57.624H3.573v.005Zm14.91-11.405a.327.327 0 0 0-.325.326v9.614c0 .18.146.326.325.326h2.198a.326.326 0 0 0 .325-.326v-9.614a.327.327 0 0 0-.325-.326h-2.198ZM6.21 22.984a.327.327 0 0 0-.326.325v3.68c0 .178.147.325.326.325h2.197c.18 0 .326-.147.326-.326V23.31a.327.327 0 0 0-.326-.326H6.21Zm.765-5.687c-.527 0-.96-.363-1.058-.878a1.071 1.071 0 0 1 .743-1.232c4.34-1.34 7.954-3.212 10.749-5.573a.573.573 0 0 1 .608-.081.554.554 0 0 1 .325.564.564.564 0 0 1-.2.39c-2.583 2.182-5.839 3.967-9.68 5.313a.104.104 0 0 0-.071.12c.01.053.054.092.103.092h.016c2.344-.299 4.547-.88 6.555-1.726 3.424-1.443 6.229-3.646 8.35-6.55a.57.57 0 0 1 .787-.13l.488.337c.017.01.038.022.06.022.033 0 .06-.011.082-.038a.094.094 0 0 0 .027-.082l-.315-3.168a.325.325 0 0 0-.407-.283l-3.082.804c-.043.01-.07.043-.081.086a.118.118 0 0 0 .043.109l.489.336a.578.578 0 0 1 .184.727c-.027.05-.646 1.254-2.306 2.898a.562.562 0 0 1-.402.168.568.568 0 0 1-.401-.977c.911-.906 1.487-1.665 1.807-2.143.016-.027.01-.06-.017-.076l-1.21-.84a.549.549 0 0 1-.233-.57.558.558 0 0 1 .418-.456l5.518-1.438c.049-.011.098-.022.147-.022.293 0 .548.233.57.515l.57 5.67a.537.537 0 0 1-.131.43.595.595 0 0 1-.445.205.545.545 0 0 1-.315-.103l-1.204-.835a.072.072 0 0 0-.033-.011.05.05 0 0 0-.043.022c-2.198 2.827-5.041 4.997-8.46 6.44-2.588 1.09-5.43 1.753-8.459 1.964h-.086Z"/>
</svg>
