<svg xmlns="http://www.w3.org/2000/svg" width="32" height="32" fill="currentColor" viewBox="0 0 32 32">
  <path d="M25.9 8.264a.71.71 0 0 0 .117-1.032C23.567 4.44 19.977 2.667 16 2.667 8.677 2.667 2.667 8.677 2.667 16S8.677 29.333 16 29.333c2.35 0 4.635-.662 6.652-1.835a.685.685 0 0 1 .546-.065l4.974 1.54a.667.667 0 0 0 .84-.813l-1.438-5.244a.684.684 0 0 1 .064-.511c1.08-1.955 1.695-4.156 1.695-6.405 0-2.441-.667-4.736-1.829-6.711a.712.712 0 0 0-1.05-.19.78.78 0 0 0-.189 1.01A11.78 11.78 0 0 1 27.834 16c0 6.535-5.298 11.833-11.833 11.833S4.167 22.535 4.167 16 9.465 4.167 16 4.167c3.521 0 6.684 1.538 8.851 3.979a.777.777 0 0 0 1.048.118Z"/>
  <path d="M7.57 20.67c-.497 0-.815.523-.548.941a10.573 10.573 0 0 0 3.533 3.412c.528.312 1.09-.27.881-.847a19.882 19.882 0 0 1-.8-2.952.68.68 0 0 0-.663-.553H7.57Zm-.549-10.28c-.267.418.05.94.547.94h2.404a.68.68 0 0 0 .664-.553 19.81 19.81 0 0 1 .8-2.952c.208-.576-.354-1.159-.882-.847a10.573 10.573 0 0 0-3.533 3.412Zm9.052-4.882c-.025 0-.048-.007-.073-.007-.966.031-2.207 1.894-2.921 5.043a.648.648 0 0 0 .64.787h4.614c.417 0 .732-.38.64-.787-.71-3.125-1.936-4.979-2.9-5.036ZM16.001 26.5c.025 0 .048-.007.073-.007.963-.057 2.19-1.91 2.9-5.036a.648.648 0 0 0-.64-.787H13.72a.648.648 0 0 0-.64.787c.714 3.15 1.955 5.012 2.921 5.043ZM10.148 16c0-.536.016-1.076.046-1.613a.68.68 0 0 0-.674-.722H6.15a.644.644 0 0 0-.64.52A9.888 9.888 0 0 0 5.333 16c0 .622.066 1.226.176 1.816.057.305.329.52.64.52h3.37a.68.68 0 0 0 .674-.723A28.461 28.461 0 0 1 10.147 16Zm11.415-8.872c-.522-.332-1.1.245-.896.829.306.87.557 1.822.751 2.82a.68.68 0 0 0 .663.553h2.184c.497 0 .815-.523.548-.942a10.62 10.62 0 0 0-3.25-3.26ZM21.907 16c0 .536-.016 1.076-.046 1.613a.68.68 0 0 0 .673.722h3.151c.31 0 .582-.214.64-.519A9.89 9.89 0 0 0 26.5 16a9.89 9.89 0 0 0-.176-1.816.644.644 0 0 0-.639-.52h-3.15a.68.68 0 0 0-.674.723c.03.537.046 1.077.046 1.613Zm-8.697-2.335a.655.655 0 0 0-.658.611 27.864 27.864 0 0 0 0 3.448.655.655 0 0 0 .658.611h5.634a.655.655 0 0 0 .658-.611 27.942 27.942 0 0 0 0-3.448.655.655 0 0 0-.658-.611H13.21Zm7.456 10.378c-.205.584.374 1.161.896.829a10.62 10.62 0 0 0 3.25-3.26c.267-.42-.051-.941-.548-.941h-2.183a.68.68 0 0 0-.664.553 20.154 20.154 0 0 1-.75 2.82Z"/>
</svg>
