<svg xmlns="http://www.w3.org/2000/svg" width="32" height="32" fill="currentColor" viewBox="0 0 32 32">
  <path d="m10.635 19.687-2.512 1.51-.01.006a1.86 1.86 0 0 0-.21 3.005 1.86 1.86 0 0 0 1.72 2.973c.043.204.123.403.239.59.597.957 1.695 1.03 2.619.566a1.757 1.757 0 0 0 2.586.903l5.345-3.332c2.053-1.28 3.644-2.802 5.194-4.63.178-.21.36-.425.55-.646a1.697 1.697 0 0 0 1.468-.13l1.837-1.092a1.7 1.7 0 0 0 .593-2.33l-2.277-3.83a.7.7 0 0 0-1.203.715l2.276 3.83a.3.3 0 0 1-.104.412l-1.838 1.092a.3.3 0 0 1-.41-.104l-4.014-6.751a.3.3 0 0 1 .105-.412l1.838-1.092a.3.3 0 0 1 .41.105l.397.666a.7.7 0 0 0 1.203-.716l-.396-.665a1.7 1.7 0 0 0-2.33-.593l-1.837 1.092a1.7 1.7 0 0 0-.593 2.33l3.864 6.501c-.218.254-.425.498-.624.732v.001h-.002c-1.305 1.538-2.672 2.61-4.2 3.81-.229.18-.461.361-.697.549l-5.296 3.3a.357.357 0 0 1-.378-.606c.535-.334 1.067-.67 1.6-1.005.639-.403 1.278-.806 1.921-1.205a.7.7 0 1 0-.738-1.19l-5.048 3.131a.46.46 0 0 1-.63-.142c-.136-.254-.056-.47.161-.645l1.5-.937 3.741-2.334a.7.7 0 1 0-.74-1.188l-6.09 3.796a.46.46 0 1 1-.485-.78l5.296-3.302a.7.7 0 1 0-.74-1.188L9.34 23.17a.46.46 0 0 1-.49-.778l2.506-1.507a.7.7 0 1 0-.721-1.2Z"/>
  <path fill-rule="evenodd" d="M16.24 2.494a4.017 4.017 0 1 0 0 8.034 4.017 4.017 0 0 0 0-8.034Zm0 1.4a2.617 2.617 0 0 0-2.203 4.029l3.616-3.616a2.604 2.604 0 0 0-1.412-.413Zm2.348 1.458-3.506 3.506a2.617 2.617 0 0 0 3.506-3.506Z" clip-rule="evenodd"/>
  <path d="M8.354 9.598a1.7 1.7 0 0 0-2.335.574l-2.326 3.844a.7.7 0 0 0 1.197.724l2.327-3.843a.3.3 0 0 1 .412-.101l1.829 1.107a.3.3 0 0 1 .101.412l-4.066 6.719a.3.3 0 0 1-.412.1l-1.829-1.106a.3.3 0 0 1-.101-.412l.38-.65a.695.695 0 0 0-1.193-.71l-.385.635a1.7 1.7 0 0 0 .574 2.335l1.829 1.107a1.7 1.7 0 0 0 2.335-.574l3.807-6.292c.91.332 1.838.315 2.613.302h.014c1.075-.02 1.847-.018 2.5.415a598.97 598.97 0 0 1 5.022 3.418 1.163 1.163 0 0 1-.366.339.595.595 0 0 1-.566.017c-1.088-.501-2.524-1.512-3.113-1.963a.716.716 0 0 0-1.039.218c-.293.534-.858 1.167-1.682 1.473-.796.296-1.94.326-3.499-.522a.7.7 0 0 0-.669 1.23c1.85 1.006 3.416 1.065 4.655.605a4.592 4.592 0 0 0 1.982-1.453c.743.528 1.847 1.254 2.779 1.684.68.313 1.347.218 1.894-.113.542-.327.965-.884 1.189-1.505a.7.7 0 0 0-.263-.815 673.207 673.207 0 0 0-5.55-3.78c-.986-.653-2.156-.668-3.224-.65-.838.015-1.538.02-2.172-.205 0-.575-.292-1.137-.82-1.457l-1.83-1.107Z"/>
</svg>
