<svg xmlns="http://www.w3.org/2000/svg" width="32" height="32" fill="currentColor" viewBox="0 0 32 32">
  <path d="M3.124 28.997a.444.444 0 0 0 .432.336h18.666a.444.444 0 0 0 .431-.336l.445-1.778a.445.445 0 0 0-.431-.552.51.51 0 0 1-.502-.466 9.338 9.338 0 0 0-7.346-8.217c-.097-.02-.152-.108-.152-.206a1.778 1.778 0 1 0-3.556 0c0 .098-.056.186-.152.206a9.34 9.34 0 0 0-7.347 8.217.51.51 0 0 1-.5.466.444.444 0 0 0-.432.552l.444 1.778Zm18.835-.89a.445.445 0 0 1-.43.338H4.248a.444.444 0 0 1 0-.89h17.28c.288 0 .5.272.43.553ZM12 17.778a.889.889 0 1 1 1.778 0c0 .025-.025.043-.05.041a9.29 9.29 0 0 0-.84-.04c-.283 0-.562.015-.839.04-.024.002-.049-.016-.049-.04Zm.889.89a8.448 8.448 0 0 1 8.377 7.474.477.477 0 0 1-.483.526H4.994a.477.477 0 0 1-.483-.526 8.448 8.448 0 0 1 8.378-7.474Z"/>
  <path d="M21.96 28.108a.445.445 0 0 1-.432.337H4.25a.444.444 0 0 1 0-.89h17.278c.29 0 .501.272.431.553ZM12 17.778a.889.889 0 1 1 1.778 0c0 .024-.025.042-.05.04a9.29 9.29 0 0 0-.84-.04c-.283 0-.562.015-.839.04-.024.002-.049-.016-.049-.04Z"/>
  <path fill-rule="evenodd" d="m3.06 29.013-.445-1.778a.512.512 0 0 1 .496-.635.444.444 0 0 0 .435-.406 9.406 9.406 0 0 1 7.4-8.275c.058-.012.098-.067.098-.141a1.844 1.844 0 0 1 3.69 0c0 .075.04.129.098.141a9.406 9.406 0 0 1 7.4 8.275c.022.229.21.406.435.406a.512.512 0 0 1 .495.635l-.444 1.778a.512.512 0 0 1-.496.387H3.556a.511.511 0 0 1-.496-.387Zm20.038-1.794a.445.445 0 0 0-.431-.552.51.51 0 0 1-.502-.466 9.338 9.338 0 0 0-7.346-8.217c-.097-.02-.152-.108-.152-.206a1.778 1.778 0 1 0-3.556 0c0 .098-.056.186-.152.206a9.34 9.34 0 0 0-7.347 8.217.51.51 0 0 1-.5.466.444.444 0 0 0-.432.552l.444 1.778a.444.444 0 0 0 .432.336h18.666a.444.444 0 0 0 .431-.336l.445-1.778Zm-4.451-6.181a8.38 8.38 0 0 0-5.758-2.305 8.38 8.38 0 0 0-8.311 7.416.41.41 0 0 0 .416.451h15.79a.41.41 0 0 0 .416-.451 8.38 8.38 0 0 0-2.553-5.111Zm-5.758-2.371a8.448 8.448 0 0 1 8.377 7.474.477.477 0 0 1-.483.526H4.994a.477.477 0 0 1-.483-.526 8.448 8.448 0 0 1 8.378-7.474Z" clip-rule="evenodd"/>
  <path d="M6.578 22.955a.425.425 0 0 0 .151.6c.213.123.483.05.62-.154a6.68 6.68 0 0 1 6.773-2.843.468.468 0 0 0 .544-.333.425.425 0 0 0-.322-.53 7.567 7.567 0 0 0-7.766 3.26Zm-.883 1.84a.427.427 0 0 0 .31.539c.234.06.475-.08.55-.31a.465.465 0 0 0-.258-.579.427.427 0 0 0-.569.25 7.284 7.284 0 0 0-.033.1ZM28.889 4.89h-.834a.5.5 0 0 1-.5-.5V3.11a.445.445 0 0 0-.512-.439L12.825 4.894a.005.005 0 0 0-.005.004.005.005 0 0 1-.004.005.438.438 0 0 0-.372.43v9.334a.444.444 0 0 0 .89 0v-8.39a.5.5 0 0 1 .5-.5h14.11a.5.5 0 0 1 .5.5v21.668a.5.5 0 0 1-.5.5H24a.444.444 0 1 0 0 .888h4.889a.444.444 0 0 0 .444-.444V5.333a.444.444 0 0 0-.444-.444Zm-2.222-.5a.5.5 0 0 1-.5.5H25.05c-.617 0-.687-.899-.077-.994l1.117-.175a.5.5 0 0 1 .577.494v.175Z"/>
  <path d="M26.667 4.389a.5.5 0 0 1-.5.5H25.05c-.617 0-.687-.899-.077-.994l1.117-.175a.5.5 0 0 1 .577.494v.175Z"/>
  <path fill-rule="evenodd" d="M27.032 2.606a.51.51 0 0 1 .59.505V4.39c0 .24.194.433.433.433h.834a.511.511 0 0 1 .511.511V28.89a.511.511 0 0 1-.511.511H24a.511.511 0 1 1 0-1.022h3.944c.24 0 .434-.194.434-.433V6.277a.433.433 0 0 0-.434-.434h-14.11a.433.433 0 0 0-.434.434v8.389a.511.511 0 1 1-1.022 0V5.333a.505.505 0 0 1 .404-.491.07.07 0 0 1 .032-.014l14.218-2.222Zm-16.697 18.42a6.612 6.612 0 0 0-2.93 2.412.535.535 0 0 1-.709.175.491.491 0 0 1-.173-.694 7.633 7.633 0 0 1 7.834-3.289.492.492 0 0 1 .374.611.535.535 0 0 1-.62.383 6.612 6.612 0 0 0-3.776.402Zm-4.703 3.75c.01-.035.022-.069.033-.103a.493.493 0 0 1 .657-.29c.26.106.383.4.297.661a.532.532 0 0 1-.631.354.493.493 0 0 1-.356-.623Zm21.41-22.104a.444.444 0 0 1 .513.44v1.277a.5.5 0 0 0 .5.5h.834a.444.444 0 0 1 .444.444V28.89a.444.444 0 0 1-.444.444H24a.444.444 0 1 1 0-.888h3.944a.5.5 0 0 0 .5-.5V6.277a.5.5 0 0 0-.5-.5h-14.11a.5.5 0 0 0-.5.5v8.389a.444.444 0 0 1-.89 0V5.333a.438.438 0 0 1 .372-.43.005.005 0 0 0 .004-.005c0-.002.002-.004.005-.004l14.218-2.222ZM6.73 23.556a.425.425 0 0 1-.15-.6 7.567 7.567 0 0 1 7.765-3.26c.24.047.384.29.322.529a.468.468 0 0 1-.544.333 6.68 6.68 0 0 0-6.773 2.843.468.468 0 0 1-.62.155Zm-.725 1.778a.427.427 0 0 1-.309-.538c.01-.034.022-.068.033-.101a.427.427 0 0 1 .57-.25.467.467 0 0 1 .258.578.465.465 0 0 1-.552.311Z" clip-rule="evenodd"/>
  <path d="m16.803 10.568-.943-.943a.444.444 0 0 0-.628.629l.943.943a2.223 2.223 0 0 0 2.437.475c.22-.093.48-.072.648.096l.647.646a.5.5 0 0 1 0 .708l-3.418 3.417a.445.445 0 0 0 .629.629l3.417-3.418a.5.5 0 0 1 .707 0l3.418 3.418a.444.444 0 0 0 .628-.629l-3.417-3.417a.5.5 0 0 1 0-.707l.018-.019c.168-.168.43-.189.648-.096a2.225 2.225 0 0 0 2.437-.475l.629-.628a2.224 2.224 0 0 0-1.564-3.821 2.222 2.222 0 0 0-1.579.678l-.628.629a2.222 2.222 0 0 0-.475 2.437c.092.219.072.48-.096.648l-.019.018a.5.5 0 0 1-.707 0l-.646-.647c-.168-.168-.189-.429-.096-.648a2.221 2.221 0 0 0-.476-2.437l-.942-.943a.444.444 0 0 0-.629.629l.943.943a1.333 1.333 0 0 1 .38.822c.03.344-.38.432-.624.188l-1.327-1.327a.444.444 0 0 0-.629.629l1.328 1.328c.244.244.157.654-.187.625a1.334 1.334 0 0 1-.827-.38Zm5.657-1.257.629-.628a1.333 1.333 0 0 1 1.885 1.885l-.628.629a1.335 1.335 0 0 1-2.193-.422 1.333 1.333 0 0 1 .307-1.464Zm3.762 9.8a.444.444 0 1 1 .89 0 .444.444 0 0 1-.89 0Zm0 1.778a.444.444 0 1 1 .89 0 .444.444 0 0 1-.89 0Zm0 1.778a.444.444 0 1 1 .889 0 .444.444 0 0 1-.889 0Zm-6.667-3.556c0-.245.2-.444.445-.444h4.889a.444.444 0 0 1 0 .889H20a.444.444 0 0 1-.445-.445Zm1.778 1.778c0-.245.2-.444.445-.444h3.11a.444.444 0 0 1 0 .888h-3.11a.444.444 0 0 1-.445-.444Zm1.334 1.778c0-.246.199-.445.444-.445h1.778a.444.444 0 1 1 0 .89H23.11a.444.444 0 0 1-.444-.445Zm-12-16a.444.444 0 1 1 .889 0v7.11a.444.444 0 1 1-.89 0v-7.11Z"/>
  <path d="m22.46 9.311.629-.628a1.333 1.333 0 0 1 1.885 1.885l-.628.629a1.335 1.335 0 0 1-2.193-.422 1.333 1.333 0 0 1 .307-1.464Z"/>
  <path fill-rule="evenodd" d="M24.974 11.825a2.225 2.225 0 0 1-2.437.475c-.219-.093-.48-.072-.648.096l-.018.018a.5.5 0 0 0 0 .708l3.417 3.417a.444.444 0 1 1-.628.629l-3.418-3.418a.5.5 0 0 0-.707 0l-3.417 3.418a.445.445 0 0 1-.629-.629l3.418-3.417a.5.5 0 0 0 0-.707l-.647-.647c-.168-.168-.429-.189-.648-.096a2.223 2.223 0 0 1-2.437-.476l-.943-.942a.444.444 0 0 1 .628-.629l.944.943a1.334 1.334 0 0 0 .826.38c.344.03.431-.381.188-.625l-1.329-1.328a.444.444 0 0 1 .629-.629l1.327 1.327c.244.244.655.156.625-.188a1.333 1.333 0 0 0-.38-.822l-.944-.943a.444.444 0 1 1 .629-.629l.942.943a2.222 2.222 0 0 1 .476 2.437c-.093.22-.072.48.096.648l.646.647a.5.5 0 0 0 .707 0l.019-.018c.168-.168.188-.43.096-.648a2.223 2.223 0 0 1 .475-2.437l.628-.629a2.222 2.222 0 1 1 3.143 3.143l-.629.628Zm.675-.581a2.29 2.29 0 1 0-3.236-3.236l-.628.628a2.288 2.288 0 0 0-.49 2.51c.085.2.063.43-.082.575l-.018.018a.433.433 0 0 1-.613 0l-.646-.647c-.144-.144-.167-.374-.082-.575a2.29 2.29 0 0 0-.49-2.51l-.942-.943a.511.511 0 1 0-.723.723l.942.943a1.267 1.267 0 0 1 .362.78.237.237 0 0 1-.038.165.216.216 0 0 1-.122.08.374.374 0 0 1-.351-.11L17.165 8.32a.511.511 0 1 0-.723.723l1.328 1.328a.374.374 0 0 1 .11.35.217.217 0 0 1-.08.123.238.238 0 0 1-.164.04 1.267 1.267 0 0 1-.785-.361v-.001l-.943-.943a.511.511 0 0 0-.723.723l.943.943a2.289 2.289 0 0 0 2.51.49c.2-.086.43-.063.575.08l.647.648a.433.433 0 0 1 0 .612l-3.418 3.418a.511.511 0 1 0 .723.723l3.418-3.418a.43.43 0 0 1 .612 0l3.418 3.418a.511.511 0 1 0 .723-.723l-3.418-3.418a.433.433 0 0 1 0-.612l.018-.019c.145-.144.375-.166.575-.082a2.29 2.29 0 0 0 2.51-.489l.628-.628ZM20 18.6h4.889a.511.511 0 0 1 0 1.022H20a.511.511 0 0 1 0-1.022Zm1.778 1.778h3.11a.511.511 0 1 1 0 1.022h-3.11a.511.511 0 1 1 0-1.022Zm1.333 1.778h1.778a.511.511 0 1 1 0 1.022H23.11a.511.511 0 1 1 0-1.022ZM11.622 6.666v7.112a.511.511 0 1 1-1.022 0V6.667a.511.511 0 1 1 1.022 0Zm15.045 16.512a.511.511 0 1 1 0-1.023.511.511 0 0 1 0 1.023Zm0-1.778a.511.511 0 1 1 0-1.022.511.511 0 0 1 0 1.022Zm.51-2.289a.511.511 0 1 1-1.022 0 .511.511 0 0 1 1.023 0Zm-.51-.444a.444.444 0 1 0 0 .889.444.444 0 0 0 0-.89Zm0 1.777a.444.444 0 1 0 0 .89.444.444 0 0 0 0-.89Zm0 1.778a.444.444 0 1 0 0 .89.444.444 0 0 0 0-.89ZM20 18.667a.444.444 0 1 0 0 .889h4.889a.444.444 0 0 0 0-.89H20Zm1.778 1.777a.444.444 0 1 0 0 .89h3.11a.444.444 0 0 0 0-.89h-3.11Zm1.333 1.778a.444.444 0 1 0 0 .89h1.778a.444.444 0 1 0 0-.89H23.11Zm-12-16a.444.444 0 0 0-.444.445v7.11a.444.444 0 1 0 .889 0v-7.11a.444.444 0 0 0-.445-.445Z" clip-rule="evenodd"/>
</svg>
