<svg width="32" height="32" viewBox="0 0 32 32" fill="currentColor" xmlns="http://www.w3.org/2000/svg">
<path d="M8.36363 14.5422C10.4972 18.7353 13.9347 22.1579 18.1278 24.3064L21.3875 21.0467C21.7875 20.6467 22.3802 20.5133 22.8988 20.6911C24.5583 21.2393 26.3511 21.5357 28.1883 21.5357C29.0033 21.5357 29.67 22.2024 29.67 23.0173V28.1883C29.67 29.0033 29.0033 29.67 28.1883 29.67C14.2755 29.67 3 18.3945 3 4.48167C3 3.66675 3.66675 3 4.48167 3H9.6675C10.4824 3 11.1492 3.66675 11.1492 4.48167C11.1492 6.33375 11.4455 8.11175 11.9937 9.77122C12.1567 10.2898 12.0382 10.8677 11.6233 11.2825L8.36363 14.5422Z"/>
</svg>
