<svg xmlns="http://www.w3.org/2000/svg" width="32" height="32" fill="currentColor" viewBox="0 0 32 32">
  <path d="M28.134 5.043c-.133.04-.267.08-.4.134-7.978 3.125-15.942 6.263-23.906 9.4-.107.04-.227.095-.32.149-.347.161-.52.444-.507.835.013.39.227.646.573.794.094.04.2.067.307.094 1.881.566 3.762 1.118 5.643 1.67a.549.549 0 0 1 .414.418c.707 2.29 1.427 4.579 2.134 6.855.347 1.104 1.214 1.32 2.015.498a281.84 281.84 0 0 0 2.788-2.882c.2-.216.32-.202.547-.04 1.934 1.44 3.869 2.868 5.803 4.309 1.04.768 2.054.377 2.308-.889 1.64-7.946 2.975-14.356 3.615-17.426.187-.89.36-1.778.52-2.546.04-.97-.72-1.589-1.534-1.373ZM24.84 9.608c-.627.552-1.24 1.118-1.867 1.67l-9.246 8.242c-.24.215-.346.458-.386.781-.12 1.131-.24 2.263-.374 3.394a1.64 1.64 0 0 1-.053.242.227.227 0 0 1-.08.108c-.067.027-.107-.027-.134-.081l-.08-.242c-.547-1.778-1.094-3.542-1.64-5.32-.04-.135-.067-.283-.08-.337-.014-.404.186-.579.44-.727 1.587-.996 3.175-1.98 4.749-2.976a2694.51 2694.51 0 0 0 8.15-5.104c.08-.054.161-.094.241-.148.16-.108.347-.162.48.027.134.202.027.35-.12.471Z"/>
</svg>
