<svg xmlns="http://www.w3.org/2000/svg" width="32" height="32" fill="currentColor" viewBox="0 0 32 32">
  <path d="M24.848 8.032c-.1.03-.2.06-.3.101a8900.95 8900.95 0 0 0-17.927 7.05c-.08.03-.17.07-.24.11a.619.619 0 0 0-.38.627c.01.292.17.484.43.595.07.03.15.05.23.071 1.41.424 2.821.838 4.232 1.252.17.05.26.142.31.313.53 1.717 1.07 3.434 1.6 5.14.26.829.91.99 1.511.375.7-.718 1.4-1.435 2.09-2.162.15-.161.241-.151.411-.03 1.45 1.08 2.901 2.151 4.352 3.232.78.575 1.54.282 1.73-.667a7707.8 7707.8 0 0 1 2.712-13.068c.14-.667.27-1.333.39-1.909.03-.727-.54-1.191-1.15-1.03Zm-2.47 3.424c-.47.414-.931.838-1.401 1.252l-6.933 6.18a.868.868 0 0 0-.29.586c-.09.849-.18 1.697-.28 2.545-.01.06-.02.122-.04.182a.17.17 0 0 1-.06.08c-.05.021-.08-.02-.1-.06l-.06-.181c-.41-1.334-.82-2.656-1.231-3.99-.03-.1-.05-.212-.06-.252-.01-.303.14-.434.33-.545 1.19-.748 2.381-1.485 3.562-2.232 2.04-1.273 4.071-2.545 6.112-3.828.06-.04.12-.07.18-.11.12-.082.26-.122.36.02.1.15.02.262-.09.353Z"/>
</svg>
