<svg xmlns="http://www.w3.org/2000/svg" fill="currentColor" viewBox="0 0 32 32">
  <path fill-rule="evenodd" d="M27.178 3.862A5.644 5.644 0 0 1 28.5 7.5v15.333a5.667 5.667 0 0 1-5.667 5.667H7.5a5.644 5.644 0 0 1-3.638-1.322.468.468 0 0 1-.015-.691l22.64-22.64a.468.468 0 0 1 .69.015Zm-7.796 11.537c-.302-.367-.095-.97.37-.867.301.066.6.162.895.287l.442.19a5 5 0 0 1 2.63 6.564l-.189.442a5 5 0 0 1-6.564 2.63l-.442-.19c-.279-.118-.195-.515.098-.593a4.992 4.992 0 0 0 3.315-2.866l.189-.443a5 5 0 0 0-.744-5.154Z" clip-rule="evenodd"/>
  <path d="M6.833 9.833a3 3 0 1 1 6 0 3 3 0 0 1-6 0ZM9.333 4a.5.5 0 0 1 1 0v1.667a.5.5 0 1 1-1 0V4Zm0 10a.5.5 0 0 1 1 0v1.667a.5.5 0 1 1-1 0V14Zm6.334-4.667a.5.5 0 0 1 0 1H14a.5.5 0 1 1 0-1h1.667Zm-10 0a.5.5 0 1 1 0 1H4a.5.5 0 1 1 0-1h1.667Zm7.937-3.978a.5.5 0 0 1 .708.707l-1.179 1.179a.5.5 0 1 1-.707-.707l1.178-1.179Zm-7.07 7.071a.5.5 0 1 1 .707.707l-1.179 1.179a.5.5 0 0 1-.707-.707l1.178-1.179Zm7.778 1.178a.5.5 0 0 1-.707.708l-1.179-1.179a.5.5 0 0 1 .707-.707l1.179 1.178ZM7.24 6.533a.5.5 0 0 1-.707.708L5.356 6.062a.5.5 0 0 1 .707-.707l1.179 1.178Z"/>
</svg>
