<svg xmlns="http://www.w3.org/2000/svg" fill="currentColor" viewBox="0 0 32 32">
  <path d="m27.584 10.862.407-.406.012.012a.759.759 0 0 0 1.074 0l.628-.629a.76.76 0 0 0 0-1.073l-1.648-1.648a.777.777 0 0 0-1.073 0l-.628.628a.758.758 0 0 0 0 1.074l.012.012-.43.43a10.504 10.504 0 0 0-5.065-2.146v-1.25h.813a.916.916 0 0 0 .916-.915V3.915A.917.917 0 0 0 21.686 3h-4.492a.916.916 0 0 0-.915.915v1.036a.916.916 0 0 0 .915.915h.814v1.25a10.5 10.5 0 0 0-1.65.357.483.483 0 0 0 .282.923 9.594 9.594 0 1 1-3.982 15.96.482.482 0 1 0-.683.682 10.554 10.554 0 0 0 15.61-14.176Zm-.064-2.915 1.357 1.356-.337.337-1.357-1.357.337-.336Zm-.47 1.568.258.258-.373.373a8.947 8.947 0 0 0-.263-.253l.378-.378ZM17.244 4.9v-.936h4.392V4.9h-4.392Zm1.729 2.132V5.866h.935v1.162a10.657 10.657 0 0 0-.468-.012c-.156 0-.312.01-.467.017Z"/>
  <path d="M25.71 23.806a8.828 8.828 0 0 0 0-12.466c-.006-.007-.008-.016-.014-.022-.007-.007-.016-.01-.023-.015a8.817 8.817 0 0 0-6.233-2.577 8.87 8.87 0 0 0-1.584.142.483.483 0 1 0 .172.95c.308-.053.618-.088.93-.105v.755a.482.482 0 1 0 .965 0v-.752a7.838 7.838 0 0 1 4.73 1.962l-.53.53a.484.484 0 1 0 .682.683l.53-.53a7.837 7.837 0 0 1 1.962 4.73h-.752a.482.482 0 1 0 0 .965h.752a7.837 7.837 0 0 1-1.961 4.73l-.53-.531a.483.483 0 0 0-.683.683l.53.53a7.838 7.838 0 0 1-4.73 1.962v-.752a.483.483 0 0 0-.966 0v.757a7.788 7.788 0 0 1-4.405-1.678.483.483 0 1 0-.598.757 8.838 8.838 0 0 0 11.719-.67c.007-.006.016-.009.023-.015.006-.007.008-.016.015-.023Z"/>
  <path d="M23.56 13.453a.483.483 0 0 0-.683 0l-2.705 2.706a1.58 1.58 0 0 0-.732-.185 1.599 1.599 0 1 0 1.6 1.6 1.579 1.579 0 0 0-.186-.732l2.706-2.706a.483.483 0 0 0 0-.683Zm-4.12 4.754a.634.634 0 1 1-.002-1.269.634.634 0 0 1 .002 1.269Zm-5.536-8.515h-3.047a.483.483 0 0 1 0-.966h3.047a.483.483 0 0 1 0 .966Zm-4.606 0H8.32a.483.483 0 0 1 0-.966h.977a.483.483 0 0 1 0 .966Zm6.094 3.178H7.321a.482.482 0 1 1 0-.966h8.071a.483.483 0 0 1 0 .966Zm-3.475 3.178H3.483a.483.483 0 1 1 0-.965h8.434a.483.483 0 0 1 0 .965Zm2.498 0h-.907a.483.483 0 1 1 0-.965h.907a.483.483 0 0 1 0 .965Zm1.862 3.178H9.123a.483.483 0 0 1 0-.965h7.154a.483.483 0 0 1 0 .965Zm-9.189 3.178h-.861a.483.483 0 0 1 0-.965h.86a.483.483 0 0 1 .001.965Zm7.327 0H8.624a.483.483 0 0 1 0-.965h5.791a.483.483 0 1 1 0 .965Z"/>
</svg>
