<svg xmlns="http://www.w3.org/2000/svg" fill="currentColor" viewBox="0 0 32 32">
  <path fill-rule="evenodd" d="M19.05 6.29H5.968v1.15H19.05V6.29Z" clip-rule="evenodd"/>
  <path fill-rule="evenodd" d="M5.394 6.865c0 .317.257.574.574.574H19.05a.575.575 0 0 0 0-1.149H5.968a.574.574 0 0 0-.574.575Z" clip-rule="evenodd"/>
  <path fill-rule="evenodd" d="M3 26.402c0 .897.728 1.625 1.625 1.625h23.75c.897 0 1.625-.728 1.625-1.625v-5.163a.522.522 0 0 0-1.044 0v5.163c0 .32-.26.58-.581.58H4.625a.58.58 0 0 1-.58-.58V5.625c0-.32.26-.58.58-.58h23.75c.32 0 .58.26.58.58v13.783a.522.522 0 0 0 1.045 0V5.625C30 4.728 29.272 4 28.375 4H4.625C3.728 4 3 4.728 3 5.625v20.777Z" clip-rule="evenodd"/>
  <path fill-rule="evenodd" d="M6.252 9.207c0 .288.234.522.522.522h22.704a.522.522 0 0 0 0-1.044H6.774a.522.522 0 0 0-.522.522ZM3 9.207c0 .288.234.522.522.522h1.421a.522.522 0 1 0 0-1.044h-1.42A.522.522 0 0 0 3 9.207Zm21.631-2.341a1.369 1.369 0 1 0 2.738 0 1.369 1.369 0 0 0-2.738 0Zm1.37.534a.533.533 0 1 1 0-1.067.533.533 0 0 1 0 1.067Zm-5.184-.534a1.369 1.369 0 1 0 2.738 0 1.369 1.369 0 0 0-2.738 0Zm1.369.534a.533.533 0 1 1 0-1.067.533.533 0 0 1 0 1.067Z" clip-rule="evenodd"/>
  <path d="M21.67 14.238h5.484-5.484Z"/>
  <path fill-rule="evenodd" d="M21.148 14.238c0-.289.234-.522.522-.522h5.484a.522.522 0 1 1 0 1.044H21.67a.522.522 0 0 1-.522-.522Z" clip-rule="evenodd"/>
  <path d="M18.85 14.238h.94-.94Z"/>
  <path fill-rule="evenodd" d="M18.328 14.238c0-.289.234-.522.522-.522h.94a.522.522 0 0 1 0 1.044h-.94a.522.522 0 0 1-.522-.522Z" clip-rule="evenodd"/>
  <path d="M26.318 18.26h.836-.836Z"/>
  <path fill-rule="evenodd" d="M25.796 18.26c0-.29.234-.523.522-.523h.836a.522.522 0 1 1 0 1.044h-.836a.522.522 0 0 1-.522-.522Z" clip-rule="evenodd"/>
  <path d="M18.85 18.26h5.536-5.536Z"/>
  <path fill-rule="evenodd" d="M18.328 18.26c0-.29.234-.523.522-.523h5.536a.522.522 0 1 1 0 1.044H18.85a.522.522 0 0 1-.522-.522Z" clip-rule="evenodd"/>
  <path d="M21.723 22.28h5.43-5.43Z"/>
  <path fill-rule="evenodd" d="M21.2 22.28c0-.288.234-.522.523-.522h5.43a.522.522 0 1 1 0 1.045h-5.43a.522.522 0 0 1-.523-.523Z" clip-rule="evenodd"/>
  <path d="M18.85 22.28h.836-.836Z"/>
  <path fill-rule="evenodd" d="M18.328 22.28c0-.288.234-.522.522-.522h.836a.522.522 0 1 1 0 1.045h-.836a.522.522 0 0 1-.522-.523Zm1.155-7.667a1.236 1.236 0 0 0 2.472 0v-.745a1.236 1.236 0 0 0-2.472 0v.745Zm1.236.296a.296.296 0 0 1-.296-.296v-.745a.296.296 0 0 1 .592 0v.745a.296.296 0 0 1-.296.296Zm3.322 3.734a1.236 1.236 0 0 0 2.472 0v-.746a1.236 1.236 0 0 0-2.472 0v.746Zm1.236.295a.296.296 0 0 1-.295-.295v-.746a.296.296 0 1 1 .59 0v.746a.296.296 0 0 1-.295.295Z" clip-rule="evenodd"/>
  <path fill-rule="evenodd" d="M19.483 22.65a1.236 1.236 0 0 0 2.472 0v-.745a1.236 1.236 0 0 0-2.472 0v.745Zm1.236.296a.296.296 0 0 1-.296-.296v-.745a.296.296 0 0 1 .592 0v.745a.296.296 0 0 1-.296.296Zm-8.474-9.841a5.41 5.41 0 0 1 1.496.62.544.544 0 0 1 .256.555c-.062.374.032.661.206.836.176.175.463.268.837.207a.544.544 0 0 1 .555.256c.28.464.49.969.62 1.496a.544.544 0 0 1-.21.573c-.31.221-.447.49-.447.738s.137.516.446.738a.544.544 0 0 1 .211.573 5.41 5.41 0 0 1-.62 1.496.544.544 0 0 1-.555.255c-.375-.061-.66.032-.836.207-.175.175-.269.462-.207.837a.543.543 0 0 1-.255.555c-.466.28-.97.49-1.498.62a.543.543 0 0 1-.572-.211c-.221-.31-.49-.446-.738-.446s-.517.137-.738.446a.544.544 0 0 1-.573.21 5.41 5.41 0 0 1-1.497-.62.544.544 0 0 1-.255-.554c.062-.375-.031-.661-.207-.836-.175-.175-.461-.27-.836-.207a.543.543 0 0 1-.555-.256c-.28-.465-.49-.97-.62-1.497a.544.544 0 0 1 .211-.573c.309-.22.446-.49.446-.737 0-.248-.137-.517-.446-.738a.544.544 0 0 1-.21-.573c.13-.527.339-1.031.62-1.496a.544.544 0 0 1 .554-.256c.375.061.661-.032.836-.207.176-.175.269-.462.207-.836a.544.544 0 0 1 .256-.555c.465-.28.969-.49 1.496-.62a.544.544 0 0 1 .573.211c.222.308.49.446.738.446s.517-.138.738-.446a.544.544 0 0 1 .573-.211Zm.056 1.148c-.358.357-.827.597-1.367.597s-1.01-.24-1.367-.598a4.32 4.32 0 0 0-.59.245c.001.506-.162 1.007-.543 1.388-.382.382-.883.545-1.389.544-.095.19-.177.387-.244.59.358.358.597.827.597 1.367s-.239 1.009-.597 1.366c.067.204.15.401.244.59.506 0 1.007.163 1.389.544.381.381.544.882.544 1.388.188.096.386.177.59.245.357-.358.826-.597 1.366-.597.54 0 1.01.239 1.367.597.202-.067.4-.149.59-.245-.001-.506.162-1.006.544-1.388.38-.381.882-.544 1.387-.544a4.3 4.3 0 0 0 .245-.59c-.358-.357-.597-.827-.597-1.366 0-.54.24-1.01.597-1.367a4.323 4.323 0 0 0-.245-.59c-.505 0-1.006-.162-1.388-.544-.381-.381-.544-.882-.544-1.388a4.333 4.333 0 0 0-.59-.244Zm-1.367 1.957a2.176 2.176 0 1 1 0 4.351 2.176 2.176 0 0 1 0-4.351Zm0 1.088a1.088 1.088 0 1 0 0 2.176 1.088 1.088 0 0 0 0-2.176Z" clip-rule="evenodd"/>
</svg>
