<svg width="32" height="32" viewBox="0 0 32 32" fill="currentColor" xmlns="http://www.w3.org/2000/svg">
<path fill-rule="evenodd" clip-rule="evenodd" d="M5.39363 6.86453C5.39363 7.1818 5.65081 7.43904 5.96808 7.43904H19.0503C19.3676 7.43904 19.6248 7.1818 19.6248 6.86453C19.6248 6.54726 19.3676 6.2901 19.0503 6.2901H5.96808C5.65081 6.2901 5.39363 6.54726 5.39363 6.86453Z"/>
<path fill-rule="evenodd" clip-rule="evenodd" d="M24.6311 6.86629C24.6311 7.62237 25.2441 8.23524 26.0001 8.23524C26.7561 8.23524 27.369 7.62235 27.369 6.86629C27.369 6.11022 26.7561 5.49733 26.0001 5.49733C25.2441 5.49733 24.6311 6.1102 24.6311 6.86629ZM26.0001 7.39965C25.7055 7.39965 25.4667 7.16085 25.4667 6.86629C25.4667 6.57172 25.7055 6.33292 26.0001 6.33292C26.2947 6.33292 26.5334 6.5717 26.5334 6.86629C26.5334 7.16087 26.2947 7.39965 26.0001 7.39965Z"/>
<path fill-rule="evenodd" clip-rule="evenodd" d="M20.817 6.86629C20.817 7.62237 21.43 8.23524 22.186 8.23524C22.942 8.23524 23.5549 7.62235 23.5549 6.86629C23.5549 6.11022 22.942 5.49733 22.186 5.49733C21.43 5.49733 20.817 6.1102 20.817 6.86629ZM22.186 7.39965C21.8914 7.39965 21.6526 7.16085 21.6526 6.86629C21.6526 6.57172 21.8914 6.33292 22.186 6.33292C22.4806 6.33292 22.7193 6.5717 22.7193 6.86629C22.7193 7.16087 22.4806 7.39965 22.186 7.39965Z"/>
<path fill-rule="evenodd" clip-rule="evenodd" d="M12.245 13.105C12.772 13.2355 13.2763 13.4445 13.741 13.7251C13.9274 13.8376 14.0321 14.0647 13.9967 14.2795C13.9352 14.6543 14.0288 14.941 14.2034 15.1162C14.3786 15.2913 14.6658 15.3844 15.0401 15.3229C15.255 15.2872 15.4825 15.392 15.595 15.5786C15.8756 16.0433 16.0846 16.5476 16.2151 17.0746C16.2677 17.286 16.1812 17.5211 16.0041 17.648C15.6951 17.8694 15.558 18.1376 15.558 18.3856C15.558 18.6337 15.6951 18.9024 16.0041 19.1239C16.181 19.2507 16.2675 19.4854 16.2151 19.6967C16.0846 20.2237 15.8756 20.728 15.595 21.1927C15.4825 21.3793 15.255 21.4841 15.0401 21.4484C14.6653 21.3869 14.3791 21.4805 14.204 21.6551C14.0288 21.8303 13.9352 22.1175 13.9972 22.4918C14.0329 22.7067 13.9281 22.9342 13.7416 23.0467C13.2765 23.3274 12.7718 23.5364 12.2445 23.6668C12.0332 23.7192 11.7984 23.6327 11.6716 23.4558C11.4507 23.1468 11.182 23.0097 10.9339 23.0097C10.6864 23.0097 10.4171 23.1468 10.1963 23.4558C10.0694 23.6327 9.83472 23.7192 9.62343 23.6668C9.0961 23.5364 8.59141 23.3274 8.12633 23.0467C7.93978 22.9342 7.83498 22.7067 7.87065 22.4918C7.93266 22.1175 7.83964 21.8308 7.66393 21.6557C7.4893 21.4805 7.20261 21.3869 6.82779 21.4489C6.61304 21.4844 6.3859 21.3796 6.27345 21.1933C5.99275 20.7282 5.78369 20.2235 5.65328 19.6962C5.60098 19.4849 5.68747 19.2501 5.86436 19.1233C6.17281 18.9024 6.31044 18.6337 6.31044 18.3856C6.31044 18.1381 6.17281 17.8688 5.86436 17.648C5.68747 17.5211 5.60098 17.2864 5.65328 17.0751C5.78373 16.548 5.9928 16.0435 6.27345 15.5786C6.3859 15.3922 6.61304 15.2875 6.82779 15.3229C7.20261 15.3844 7.4893 15.2913 7.66447 15.1162C7.83964 14.941 7.93267 14.6538 7.87119 14.2795C7.83576 14.0647 7.94052 13.8376 8.12687 13.7251C8.59161 13.4446 9.09593 13.2355 9.62289 13.105C9.83433 13.0524 10.0694 13.139 10.1963 13.3161C10.4177 13.6245 10.6859 13.7621 10.9339 13.7621C11.182 13.7621 11.4507 13.6245 11.6722 13.3161C11.799 13.1392 12.0337 13.0527 12.245 13.105ZM12.3005 14.2528C11.9431 14.6102 11.4736 14.8496 10.9339 14.8496C10.3943 14.8496 9.92481 14.6108 9.5674 14.2523C9.36507 14.3192 9.16796 14.4011 8.9777 14.4971C8.97824 15.003 8.81504 15.5035 8.43369 15.8854C8.05235 16.2667 7.55132 16.4299 7.04539 16.4294C6.94965 16.6187 6.86805 16.8156 6.80059 17.0191C7.15909 17.3765 7.39791 17.846 7.39791 18.3856C7.39791 18.9253 7.15909 19.3948 6.80059 19.7522C6.86805 19.9556 6.95019 20.1531 7.04539 20.3424C7.55132 20.3413 8.0518 20.5045 8.43369 20.8864C8.81504 21.2672 8.97824 21.7683 8.9777 22.2742C9.16647 22.3699 9.36394 22.4515 9.5674 22.519C9.92481 22.1605 10.3943 21.9217 10.9339 21.9217C11.4736 21.9217 11.9431 22.161 12.3005 22.519C12.503 22.4521 12.7003 22.3702 12.8907 22.2742C12.8896 21.7683 13.0528 21.2678 13.4347 20.8859C13.8155 20.5045 14.3166 20.3419 14.8225 20.3419C14.9182 20.1531 14.9998 19.9556 15.0673 19.7522C14.7088 19.3948 14.47 18.9253 14.47 18.3856C14.47 17.846 14.7093 17.3765 15.0673 17.0191C15.0004 16.8168 14.9185 16.6197 14.8225 16.4294C14.3166 16.4299 13.8161 16.2667 13.4342 15.8854C13.0528 15.504 12.8902 15.003 12.8902 14.4971C12.6999 14.4011 12.5028 14.3198 12.3005 14.2528ZM10.9339 16.2096C12.1192 16.2096 13.11 17.2004 13.11 18.3856C13.11 19.5709 12.1192 20.5617 10.9339 20.5617C9.74873 20.5617 8.75792 19.5709 8.75792 18.3856C8.75792 17.2004 9.74874 16.2096 10.9339 16.2096ZM10.9339 17.2976C10.3413 17.2976 9.84593 17.793 9.84593 18.3856C9.84593 18.9782 10.3413 19.4737 10.9339 19.4737C11.5265 19.4737 12.022 18.9782 12.022 18.3856C12.022 17.793 11.5265 17.2976 10.9339 17.2976Z"/>
<path fill-rule="evenodd" clip-rule="evenodd" d="M20.719 20.6695C21.3517 20.6695 21.8733 21.145 21.9459 21.7582H27.1538C27.8274 21.7582 27.8274 22.8027 27.1538 22.8027H21.9453C21.8703 23.4133 21.3499 23.886 20.719 23.886C20.0881 23.886 19.5677 23.4133 19.4927 22.8027H18.8501C18.1766 22.8027 18.1766 21.7582 18.8501 21.7582H19.492C19.5646 21.145 20.0863 20.6695 20.719 20.6695ZM20.4234 22.6505V21.9051C20.4234 21.5239 21.0145 21.5239 21.0145 21.9051V22.6505C21.0145 23.0316 20.4234 23.0316 20.4234 22.6505Z"/>
<path fill-rule="evenodd" clip-rule="evenodd" d="M25.285 16.6694C24.6523 16.6694 24.1307 17.145 24.058 17.7581H18.8501C18.1766 17.7581 18.1766 18.8026 18.8501 18.8026H24.0587C24.1337 19.4132 24.6541 19.886 25.285 19.886C25.9159 19.886 26.4363 19.4132 26.5113 18.8026H27.1538C27.8274 18.8026 27.8274 17.7581 27.1538 17.7581H26.512C26.4394 17.145 25.9177 16.6694 25.285 16.6694ZM25.5806 18.6504V17.905C25.5806 17.5239 24.9894 17.5239 24.9894 17.905V18.6504C24.9894 19.0316 25.5806 19.0316 25.5806 18.6504Z"/>
<path fill-rule="evenodd" clip-rule="evenodd" d="M20.719 12.6127C21.3517 12.6127 21.8733 13.0883 21.9459 13.7014H27.1538C27.8274 13.7014 27.8274 14.7459 27.1538 14.7459H21.9453C21.8703 15.3565 21.3499 15.8293 20.719 15.8293C20.0881 15.8293 19.5677 15.3565 19.4927 14.7459H18.8501C18.1766 14.7459 18.1766 13.7014 18.8501 13.7014H19.492C19.5646 13.0882 20.0863 12.6127 20.719 12.6127ZM20.4234 14.5937V13.8483C20.4234 13.4671 21.0145 13.4671 21.0145 13.8483V14.5937C21.0145 14.9749 20.4234 14.9748 20.4234 14.5937Z"/>
<path d="M4.62538 28.0271C3.7277 28.0271 3 27.2994 3 26.4017V5.62538C3 4.7277 3.7277 4 4.62538 4H28.3746C29.2723 4 30 4.7277 30 5.62538V19.4084C30 20.0819 28.9555 20.0819 28.9555 19.4084V9.72917H6.77436C6.48593 9.72917 6.25212 9.49536 6.25212 9.20693C6.25212 8.9185 6.48593 8.68468 6.77436 8.68468H28.9555V5.62538C28.9555 5.30456 28.6954 5.04449 28.3746 5.04449H4.62538C4.30456 5.04449 4.04449 5.30456 4.04449 5.62538V8.68468H4.94327C5.2317 8.68468 5.46552 8.9185 5.46552 9.20693C5.46552 9.49536 5.2317 9.72917 4.94327 9.72917H4.04449V26.4017C4.04449 26.7225 4.30456 26.9826 4.62538 26.9826H28.3746C28.6954 26.9826 28.9555 26.7225 28.9555 26.4017V21.2395C28.9555 20.566 30 20.566 30 21.2395V26.4017C30 27.2994 29.2723 28.0271 28.3746 28.0271H4.62538Z"/>
</svg>
