<svg xmlns="http://www.w3.org/2000/svg" width="32" height="32" fill="currentColor" viewBox="0 0 32 32">
  <path d="M26.953 26.787 28.35 21.2a.64.64 0 0 0-.768-.768l-5.59 1.397a.639.639 0 0 0-.294 1.062l1.038 1.038a10.423 10.423 0 0 1-6.813 2.516.646.646 0 0 0-.633.634c0 .34.293.633.633.633a11.69 11.69 0 0 0 8.151-3.288.59.59 0 0 0 .177-.551c-.077-.427-.584-.804-.866-1.087l3.47-.867-.86 3.476-.606-.606-.002-.002c-.302-.292-.765-.193-1.013.057a12.205 12.205 0 0 1-8.45 3.38c-7.013 0-12.688-6.136-12.23-13.103.024-.354-.275-.655-.61-.678-.328.002-.63.259-.654.592-.519 7.688 5.762 14.455 13.493 14.455a13.464 13.464 0 0 0 8.972-3.403l.996.997a.64.64 0 0 0 1.062-.296ZM5.166 5.112l-1.397 5.59a.64.64 0 0 0 .769.767l5.588-1.397a.639.639 0 0 0 .295-1.063L9.383 7.972a10.423 10.423 0 0 1 6.813-2.516c.34 0 .633-.294.633-.634a.646.646 0 0 0-.633-.633 11.689 11.689 0 0 0-8.151 3.288.59.59 0 0 0-.177.55c.077.428.584.805.866 1.087l-3.469.867.86-3.475.605.606.003.002c.301.292.764.192 1.012-.057a12.205 12.205 0 0 1 8.451-3.38c7.013 0 12.688 6.136 12.229 13.103-.024.354.275.654.61.678.328-.002.63-.26.654-.592.519-7.689-5.762-14.455-13.493-14.455a13.464 13.464 0 0 0-8.971 3.403l-.997-.997a.64.64 0 0 0-1.062.295Z"/>
  <path fill-rule="evenodd" d="M17.855 5.556a.633.633 0 1 0 0-1.267.633.633 0 0 0 0 1.267ZM14.13 27.531a.633.633 0 1 0 0-1.267.633.633 0 0 0 0 1.267Zm-1.127-12.695a.65.65 0 0 0-.08.893l2.222 2.667a.64.64 0 0 0 .955.022l5.867-6.479.004-.004a.646.646 0 0 0-.053-.878.646.646 0 0 0-.88.022l-5.385 5.948-1.757-2.11a.65.65 0 0 0-.893-.08Z" clip-rule="evenodd"/>
  <path fill-rule="evenodd" d="M19.726 11.512a.646.646 0 0 0-.17-.864l-.004-.002-.001-.001a6.387 6.387 0 0 0-3.474-1.022 6.42 6.42 0 0 0-6.412 6.412 6.42 6.42 0 0 0 6.412 6.413c4.307 0 7.418-4.386 6.093-8.414a.638.638 0 0 0-.807-.427.638.638 0 0 0-.396.822c1.07 3.27-1.506 6.748-4.89 6.752a5.15 5.15 0 0 1-5.145-5.146 5.15 5.15 0 0 1 5.145-5.145 5.125 5.125 0 0 1 2.786.818l.006.003c.285.171.676.08.857-.199Z" clip-rule="evenodd"/>
</svg>
