<svg xmlns="http://www.w3.org/2000/svg" width="32" height="32" fill="currentColor" viewBox="0 0 32 32">
  <path fill-rule="evenodd" d="M25.448 6.542a13.224 13.224 0 0 0-9.392-3.875C8.737 2.667 2.78 8.594 2.778 15.88a13.142 13.142 0 0 0 1.772 6.606l-1.883 6.847 7.038-1.837a13.313 13.313 0 0 0 6.345 1.608h.006c7.318 0 13.275-5.928 13.277-13.214a13.101 13.101 0 0 0-3.885-9.348Zm-9.392 20.33h-.005c-1.98 0-3.922-.53-5.617-1.53l-.402-.239-4.177 1.09 1.114-4.052-.262-.415A10.917 10.917 0 0 1 5.02 15.88C5.022 9.825 9.973 4.897 16.06 4.897a10.986 10.986 0 0 1 7.802 3.221 10.892 10.892 0 0 1 3.23 7.77c-.003 6.056-4.953 10.983-11.036 10.983Zm6.053-8.225c-.332-.166-1.963-.964-2.267-1.074-.304-.11-.525-.166-.746.165-.221.33-.857 1.074-1.05 1.294-.194.22-.388.248-.72.083-.331-.165-1.4-.514-2.668-1.639-.986-.875-1.651-1.956-1.845-2.287-.193-.33-.002-.492.145-.674.36-.444.72-.909.83-1.13.11-.22.055-.412-.028-.578-.083-.165-.746-1.79-1.023-2.451-.27-.644-.543-.557-.746-.567-.194-.01-.415-.012-.636-.012-.221 0-.58.083-.885.414-.304.33-1.16 1.129-1.16 2.754s1.188 3.195 1.354 3.416c.165.22 2.34 3.555 5.667 4.985.792.34 1.41.543 1.892.696.794.25 1.517.215 2.09.13.637-.095 1.962-.798 2.239-1.57.276-.77.276-1.432.193-1.57-.083-.137-.304-.22-.636-.385Z" clip-rule="evenodd"/>
</svg>
