<svg xmlns="http://www.w3.org/2000/svg" width="32" height="32" fill="currentColor" viewBox="0 0 32 32">
  <path fill-rule="evenodd" d="M22.753 8.573a9.918 9.918 0 0 0-7.044-2.906c-5.49 0-9.957 4.445-9.959 9.91 0 1.746.458 3.451 1.33 4.954l-1.413 5.136 5.279-1.379a9.985 9.985 0 0 0 4.758 1.207h.005c5.488 0 9.956-4.446 9.958-9.91a9.826 9.826 0 0 0-2.914-7.012Zm-7.044 15.248h-.004a8.298 8.298 0 0 1-4.213-1.148l-.302-.179-3.132.818.836-3.04-.197-.311a8.187 8.187 0 0 1-1.265-4.384c.001-4.542 3.714-8.236 8.28-8.236a8.24 8.24 0 0 1 5.851 2.415 8.169 8.169 0 0 1 2.422 5.828c-.002 4.542-3.714 8.237-8.276 8.237Zm4.54-6.17c-.25-.123-1.473-.722-1.7-.805-.229-.082-.395-.124-.56.124-.166.248-.643.806-.788.97-.146.166-.29.187-.54.063-.248-.124-1.05-.386-2-1.23-.74-.656-1.24-1.467-1.385-1.714-.145-.248-.001-.37.11-.506.269-.333.539-.682.622-.847.083-.165.04-.31-.021-.434-.063-.124-.56-1.342-.767-1.838-.203-.483-.408-.418-.56-.425a9.863 9.863 0 0 0-.477-.01.916.916 0 0 0-.664.31c-.228.249-.87.848-.87 2.067 0 1.218.891 2.396 1.016 2.561.124.165 1.754 2.667 4.25 3.74a14.27 14.27 0 0 0 1.419.52c.596.19 1.138.163 1.567.099.478-.071 1.472-.6 1.68-1.177.207-.579.207-1.075.144-1.178-.062-.103-.228-.165-.477-.29Z" clip-rule="evenodd"/>
</svg>
