<svg viewBox="0 0 512 512" fill="none" xmlns="http://www.w3.org/2000/svg">
  <style>
      .rectangle {
        fill: #2F3C33;
      }
     @media (prefers-color-scheme: dark) {
      .rectangle {
        fill: #F5F5F5;
      }
     }
  </style>
<path class="rectangle" fill-rule="evenodd" clip-rule="evenodd" d="M448.305 217.491C452.517 250.101 448.825 283.05 437.84 313.489C430.043 335.093 403.858 340.784 384.675 328.208C367.541 316.974 361.983 294.763 366.083 274.657C368.099 264.771 369.166 254.455 369.166 243.847C369.166 170.763 318.5 111.516 256 111.516C193.5 111.516 142.833 170.763 142.833 243.847C142.833 316.932 193.5 376.179 256 376.179C257.235 376.179 258.465 376.156 259.69 376.11C279.196 375.379 300.142 384.284 306.007 402.945C311.419 420.163 302.044 438.868 284.236 441.567C250.192 446.726 215.219 442.491 182.98 428.998C140.668 411.29 105.778 378.772 84.4511 337.17C63.1246 295.567 56.7295 247.548 66.3918 201.566C76.0541 155.585 101.154 114.588 137.273 85.7959C173.392 57.0035 218.213 42.2608 263.846 44.1636C309.479 46.0664 352.997 64.4927 386.739 96.1982C420.481 127.904 442.282 170.855 448.305 217.491Z" fill="#2F3C33"/>
<path d="M262.381 325.282C241.03 300.954 258.264 262.751 290.591 262.751C301.39 262.751 311.667 267.409 318.8 275.536L432.84 405.47C454.192 429.797 436.957 468 404.631 468C393.832 468 383.554 463.342 376.422 455.215L262.381 325.282Z" fill="#F43F5E"/>
</svg>
