<svg width="512" height="512" viewBox="0 0 512 512" fill="none" xmlns="http://www.w3.org/2000/svg">
<path fill-rule="evenodd" clip-rule="evenodd" d="M135.911 31C99.3627 31 69.7345 60.6282 69.7345 97.1765V324.85C69.7345 361.399 99.3628 391.027 135.911 391.027H373.494C410.042 391.027 439.67 361.399 439.67 324.85V97.1765C439.67 60.6282 410.042 31 373.494 31H135.911Z" fill="#84CC16"/>
<path fill-rule="evenodd" clip-rule="evenodd" d="M135.911 31C99.3627 31 69.7345 60.6282 69.7345 97.1765V324.85C69.7345 361.399 99.3628 391.027 135.911 391.027H373.494C410.042 391.027 439.67 361.399 439.67 324.85V97.1765C439.67 60.6282 410.042 31 373.494 31H135.911Z" fill="#84CC16"/>
<path fill-rule="evenodd" clip-rule="evenodd" d="M113.244 79.4821C113.244 73.9999 117.688 69.5557 123.17 69.5557H215.649C221.131 69.5557 225.576 73.9999 225.576 79.4821V176.169C225.576 181.652 221.131 186.096 215.649 186.096H123.17C117.688 186.096 113.244 181.652 113.244 176.169V79.4821ZM133.097 89.4086V166.243H205.723V89.4086H133.097ZM253.14 69.5557C258.623 69.5557 263.067 73.9999 263.067 79.4821V211.328C263.067 216.81 258.623 221.255 253.14 221.255H123.17C117.688 221.255 113.244 216.81 113.244 211.328C113.244 205.846 117.688 201.402 123.17 201.402H243.214V79.4821C243.214 73.9999 247.658 69.5557 253.14 69.5557ZM283.83 79.4821C283.83 73.9999 288.274 69.5557 293.756 69.5557H386.235C391.717 69.5557 396.162 73.9999 396.162 79.4821V176.169C396.162 181.652 391.717 186.096 386.235 186.096H293.756C288.274 186.096 283.83 181.652 283.83 176.169V79.4821ZM303.683 89.4086V166.243H376.309V89.4086H303.683ZM293.756 201.402C299.239 201.402 303.683 205.846 303.683 211.328V260.928C303.683 266.41 299.239 270.854 293.756 270.854H263.067V342.547C263.067 348.029 258.623 352.473 253.14 352.473C247.658 352.473 243.214 348.029 243.214 342.547V260.928C243.214 255.445 247.658 251.001 253.14 251.001H283.83V211.328C283.83 205.846 288.274 201.402 293.756 201.402ZM321.946 211.328C321.946 205.846 326.39 201.402 331.873 201.402H386.235C391.717 201.402 396.162 205.846 396.162 211.328C396.162 216.81 391.717 221.255 386.235 221.255H341.799V251.001H386.235C391.717 251.001 396.162 255.445 396.162 260.928C396.162 266.41 391.717 270.854 386.235 270.854H331.873C326.39 270.854 321.946 266.41 321.946 260.928V211.328ZM113.244 245.86C113.244 240.377 117.688 235.933 123.17 235.933H215.649C221.131 235.933 225.576 240.377 225.576 245.86V342.547C225.576 348.029 221.131 352.473 215.649 352.473H123.17C117.688 352.473 113.244 348.029 113.244 342.547V245.86ZM133.097 255.786V332.62H205.723V255.786H133.097ZM276.956 297.342C276.956 291.86 281.401 287.416 286.883 287.416H369.989C375.471 287.416 379.915 291.86 379.915 297.342V342.547C379.915 348.029 375.471 352.473 369.989 352.473C364.507 352.473 360.062 348.029 360.062 342.547V307.269H331.176V342.547C331.176 348.029 326.732 352.473 321.25 352.473C315.768 352.473 311.324 348.029 311.324 342.547V307.269H286.883C281.401 307.269 276.956 302.825 276.956 297.342Z" fill="white"/>
<path d="M256 426.857C186.622 426.857 86.8276 418.448 47.6673 414.886C38.7045 414.071 31 421.288 31 430.49C31 438.56 37.0161 445.29 44.8798 445.96C61.9126 447.412 92.9351 449.932 128.393 452.23C138.532 452.887 147.865 458.149 153.771 466.604C160.081 475.638 170.268 481 181.124 481H330.876C341.732 481 351.919 475.638 358.229 466.604C364.135 458.149 373.468 452.887 383.607 452.23C419.065 449.932 450.087 447.412 467.12 445.96C474.984 445.29 481 438.56 481 430.49C481 421.288 473.295 414.071 464.333 414.886C425.172 418.448 325.378 426.857 256 426.857Z" fill="#84CC16"/>
</svg>
