<svg xmlns="http://www.w3.org/2000/svg" width="512" height="512" fill="none" viewBox="0 0 512 512">
  <path fill="url(#a)" d="M0 0h512v512H0z"/>
  <path fill="#fff" d="M269.721 94.313c72.466 5.865 133.597 53.961 154.754 123.671 1.589 5.222 4.007 10.886 4.02 16.675 2.073 15.542 2.073 30.047 1.037 48.697-.691 12.434-3.613 20.681-6.031 28.79-6.631 22.201-17.317 42.191-32.057 59.971-25.627 29.785-57.581 49.16-95.862 58.126-2.694.635-6.61.898-11.749.787l-134.965-.062-61.752-.062c-2.722 0-3.095-.932-1.12-2.797l43.683-41.445a1.844 1.844 0 0 0 .566-1.293 1.817 1.817 0 0 0-.131-.703 1.77 1.77 0 0 0-.393-.594c-82.143-82.662-60.758-215.326 41.507-269.764 30.807-15.983 63.638-22.65 98.493-19.997Zm-125.598 70.083c-25.281 26.732-38.73 57.719-40.346 92.961-1.928 42.045 14.547 83.842 46.687 113.185 4.711 4.296 9.511 8.634 14.402 13.014a1.81 1.81 0 0 1 .594 1.347 1.83 1.83 0 0 1-.594 1.346l-25.323 22.857c-1.644 1.478-1.361 2.217.85 2.217l56.282.187c31.967.11 52.248.104 60.84-.021 34.842-.511 66.105-11.715 93.79-33.611 68.342-54.542 74.476-156.35 10.817-217.357-2.57-2.459-5.671-4.179-9.305-5.16-19.161-5.139-37.79-3.018-55.888 6.362-20.169 10.776-32.658 26.663-37.466 47.661-6.064 26.511 1.085 50.066 21.448 70.664.511.525.504 1.049-.021 1.574l-24.038 23.541c-.925.912-1.851.912-2.776 0l-23.396-22.857a2.206 2.206 0 0 1-.667-1.585 2.21 2.21 0 0 1 .667-1.585c13.787-13.525 21.303-29.633 22.546-48.325 1.202-18.07-5.201-38.129-17.2-51.329-21.205-23.278-47.647-31.346-79.325-24.204-4.103.926-8.296 3.965-12.578 9.118Z"/>
  <path fill="#fff" d="m157.725 224.447 20.846 20.287a1.96 1.96 0 0 0 1.373.558c.514 0 1.01-.2 1.383-.558l27.002-26.566a1.403 1.403 0 0 1 2.134.186c8.33 11.563 10.299 25.074 4.082 38.627-7.225 15.749-20.549 23.216-39.973 22.4-8.69-1.022-15.369-3.64-20.038-7.853-17.532-15.818-19.852-33.861-6.963-54.127.373-.594.856-.711 1.45-.352 3.274 1.948 6.176 4.414 8.704 7.398Zm152.568.186 19.873 19.645c1.423 1.409 2.846 1.409 4.269 0l26.379-25.82a1.852 1.852 0 0 1 1.472-.524 1.84 1.84 0 0 1 1.346.793c18.443 27.043.083 60.302-31.87 60.841-18.899-.249-33.985-11.791-38.44-29.964-2.598-10.596-.332-21.047 6.797-31.353.939-1.368 2.01-1.478 3.211-.332l6.963 6.714Z"/>
  <defs>
    <linearGradient id="a" x1="21.634" x2="512" y1="512" y2="54.084" gradientUnits="userSpaceOnUse">
      <stop stop-color="#64009E"/>
      <stop offset="1" stop-color="#DF001F"/>
    </linearGradient>
  </defs>
</svg>
